<svg width="83" height="80" viewBox="0 0 83 80" fill="none" xmlns="http://www.w3.org/2000/svg">
<g clip-path="url(#clip0_1703_2239)">
<g clip-path="url(#clip1_1703_2239)">
<path d="M70.0463 33.5189C54.0903 24.6708 28.2214 24.6708 12.2654 33.5189C4.28655 37.9438 0.29541 43.7418 0.29541 49.5415V51.3483C0.29541 57.1512 4.27629 62.9542 12.2654 67.3823C28.2214 76.2305 54.092 76.2305 70.0463 67.3823C78.0235 62.9575 82.0163 57.1594 82.0163 51.3614C82.0163 51.0592 82.0163 49.9144 82.0163 49.645C82.0471 43.8075 78.0611 37.9685 70.0463 33.5189Z" fill="#DFCA50"/>
<path opacity="0.15" d="M70.0463 33.5189C54.0903 24.6708 28.2214 24.6708 12.2654 33.5189C4.28655 37.9438 0.29541 43.7418 0.29541 49.5415V51.3483C0.29541 57.1512 4.27629 62.9542 12.2654 67.3823C28.2214 76.2305 54.092 76.2305 70.0463 67.3823C78.0235 62.9575 82.0163 57.1594 82.0163 51.3614C82.0163 51.0592 82.0163 49.9144 82.0163 49.645C82.0471 43.8075 78.0611 37.9685 70.0463 33.5189Z" fill="black"/>
<path d="M12.2566 65.5625C-3.69945 56.7143 -3.69945 42.3671 12.2566 33.5189C28.2126 24.6708 54.0814 24.6708 70.0374 33.5189C85.9935 42.3671 85.9935 56.7143 70.046 65.5625C54.0985 74.4106 28.2126 74.4122 12.2566 65.5625Z" fill="#DFCA50"/>
<path opacity="0.3" d="M12.2483 65.5625C-3.70775 56.7143 -3.70775 42.3671 12.2483 33.5189C28.2043 24.6708 54.0749 24.6708 70.0309 33.5189C85.9869 42.3671 85.9869 56.7143 70.0309 65.5625C54.0749 74.4106 28.2094 74.4122 12.2483 65.5625Z" fill="white"/>
<path d="M11.9748 65.3982L69.7488 33.3695C69.506 33.2364 69.2598 33.1067 69.0101 32.9769L11.2686 65.0056C11.5 65.1349 11.7354 65.2657 11.9748 65.3982Z" fill="#FAFAFA"/>
<path opacity="0.15" d="M72.0704 46.6065C72.6125 46.6706 73.1768 46.347 73.4897 45.9002C74.738 44.1214 73.9001 41.1698 72.0978 40.0398C70.3878 38.9689 68.0314 39.1906 66.135 39.6078C64.1294 40.0419 62.2663 40.9446 60.7109 42.2358L60.6288 42.3065C60.4668 42.4365 60.3296 42.5927 60.2235 42.768C59.9431 43.2772 60.3193 43.65 60.7656 43.9046C61.5795 44.3694 62.6072 44.33 63.5221 44.0968C65.3535 43.6303 67.3593 42.3607 69.1292 43.696C69.8679 44.2528 70.3707 45.0396 70.9247 45.7688C71.1709 46.0973 71.4531 46.4258 71.8481 46.5572C71.9201 46.5816 71.9946 46.5981 72.0704 46.6065Z" fill="black"/>
<path opacity="0.15" d="M24.7 42.451C20.5789 39.0214 13.7338 38.6223 9.5306 42.0896C8.95604 42.5643 8.42081 43.1146 8.13866 43.7896C7.85651 44.4647 7.86506 45.2876 8.30966 45.874C8.40749 46.0008 8.5225 46.1146 8.65166 46.2123C7.43927 47.0664 7.54187 48.3065 8.96117 49.0949C10.5002 49.9441 12.9797 49.9441 14.5118 49.0949C16.044 48.2457 16.0406 46.9071 14.5751 46.0546C15.5481 45.7343 16.5057 45.3566 17.5095 45.0314C18.8244 44.6043 20.0009 44.5386 21.3689 44.583C22.5027 44.6257 23.7321 44.9952 24.83 44.537C25.9774 44.059 25.3994 43.0341 24.7 42.451Z" fill="black"/>
<path opacity="0.15" d="M41.3485 66.7091C43.5065 67.2856 44.7497 67.3661 46.8906 67.3414C48.3476 67.3256 49.7932 67.0929 51.1759 66.6516C52.2304 66.3264 53.2058 65.8002 54.0435 65.1043C54.7891 64.4769 55.6236 63.6064 55.5535 62.5831C55.4782 61.4596 54.1017 61.1903 53.1595 61.3414C52.3284 61.4761 51.6068 61.9376 50.8749 62.3055C49.7834 62.8367 48.5978 63.1665 47.3797 63.2779C45.6013 63.4668 43.8092 63.3321 42.0308 63.204C41.1399 63.1383 40.249 63.0742 39.3563 63.0512C38.6518 63.0331 37.5386 62.9182 37.3625 63.8018C37.3116 64.1408 37.3972 64.4856 37.6019 64.766C38.002 65.3556 38.6279 65.6365 39.2777 65.9551C39.9477 66.2551 40.6398 66.5071 41.3485 66.7091Z" fill="black"/>
<path d="M61.8173 30.2899C61.6788 30.6463 62.1935 31.1916 63.4743 31.5759C64.7551 31.9603 65.2288 31.8634 65.3673 31.5759C65.5058 31.2885 65.0253 30.4262 63.9993 30.0451C62.9733 29.6641 61.978 29.853 61.8173 30.2899Z" fill="#37474F"/>
<path d="M64.3499 23.2025C64.3499 23.2025 63.288 26.044 62.657 27.9657C61.8618 30.3884 61.7097 31.4692 61.8909 32.1163C62.2483 33.3975 63.7907 38.2051 63.9156 38.8884C64.0404 39.5716 64.1276 39.8739 63.63 40.5309C63.1324 41.1879 62.3834 41.8268 61.867 42.0847C61.3506 42.3425 61.0992 42.6464 61.7062 42.8813C62.2056 43.0751 63.2812 43.2246 63.8797 42.8468C64.4782 42.469 64.6491 41.8202 65.2767 41.5574C65.523 41.4539 66.1847 41.3636 66.3027 40.9004C66.4207 40.4372 66.0599 39.9478 65.9607 39.3647C65.8615 38.7816 65.6187 35.2108 65.6085 33.9017C65.5978 33.1406 65.3953 32.3934 65.0185 31.7238L66.9183 28.0889C66.9183 28.0889 67.5527 31.2228 67.9289 32.4448C68.3051 33.6668 70.1519 39.2185 70.5179 40.6491C70.8838 42.0797 70.7898 42.7236 70.8086 43.6204C70.8274 44.5172 71.0377 45.2925 71.5285 45.4387C72.0192 45.5848 72.628 45.3122 72.9238 44.7817C73.0761 44.4569 73.1548 44.1047 73.1548 43.7485C73.1548 43.3923 73.0761 43.0402 72.9238 42.7154C72.6024 42.1011 72.445 41.4441 72.2398 40.705C72.0346 39.9658 72.0346 37.5645 72.0227 36.2374C72.0226 35.2353 71.867 34.2388 71.561 33.2809C71.39 32.7996 71.1916 32.2707 71.1916 32.2707C71.1916 32.2707 71.1591 27.6208 71.1916 26.1935C71.2374 25.0708 71.1508 23.9467 70.9334 22.8428C70.9334 22.8428 69.6184 23.8726 67.0927 23.8463C65.1057 23.8118 64.3499 23.2025 64.3499 23.2025Z" fill="#F28F8F"/>
<path d="M72.2364 40.6935C72.0278 39.9527 72.0312 37.553 72.0192 36.2259C72.0175 35.2855 71.8812 34.3498 71.614 33.4451C70.9779 34.1136 69.1772 34.2795 68.3872 33.8705C69.0712 36.0058 70.2357 39.5437 70.5179 40.6442C70.8821 42.0732 70.7898 42.7187 70.8086 43.6155C70.8274 44.5123 71.0377 45.2875 71.5285 45.4337C72.0192 45.5799 72.628 45.3072 72.9238 44.7767C73.0761 44.4519 73.1548 44.0998 73.1548 43.7436C73.1548 43.3874 73.0761 43.0352 72.9238 42.7104C72.6024 42.0814 72.4433 41.4244 72.2364 40.6935Z" fill="#455A64"/>
<path d="M71.7593 34.0101C71.7115 33.795 71.6584 33.6011 71.6071 33.4369C70.971 34.1054 69.1704 34.2713 68.3804 33.8623C68.4539 34.0906 68.5343 34.3353 68.6164 34.5916C69.167 34.7903 70.9043 34.9529 71.7593 34.0101Z" fill="#DFCA50"/>
<path d="M70.7573 44.2133C70.836 44.7915 70.9591 45.1709 71.1985 45.4978C71.3181 45.6495 71.4867 45.7589 71.6779 45.8089C71.8691 45.8588 72.0722 45.8464 72.2553 45.7737C72.6588 45.6456 73.1633 45.3434 73.2437 44.8326C73.3154 44.3694 73.2803 43.8967 73.1411 43.4479L70.7573 44.2133Z" fill="#263238"/>
<path d="M72.1201 39.8886C72.2911 39.8886 72.3988 40.6672 72.5544 41.4424C72.7254 42.2735 72.9631 42.6021 73.1067 43.282C73.2777 44.0606 73.2555 44.4137 73.0059 44.9081C72.7562 45.4025 71.7764 45.938 71.2257 45.2925C70.776 44.7669 70.7127 44.1542 70.6922 43.3675C70.6619 42.7072 70.5923 42.0491 70.4836 41.3965C70.4067 40.8117 70.2459 40.2467 70.3878 40.1712C70.4049 40.2566 70.5862 40.8709 70.6683 40.8282C70.7025 40.8101 70.6683 40.6836 70.6546 40.6064C70.6465 40.5739 70.6452 40.5402 70.6508 40.5072C70.6564 40.4742 70.6687 40.4426 70.6871 40.4142C70.7349 40.3644 70.7987 40.3314 70.8684 40.3206C71.0394 40.2779 71.2941 40.2171 71.4617 40.1909C71.5455 40.1777 71.6755 40.1679 71.7593 40.1629C71.832 40.1555 71.9055 40.1605 71.9764 40.1777C71.9971 40.1825 72.0164 40.1914 72.0332 40.2038C72.05 40.2163 72.0639 40.232 72.0739 40.25C72.0851 40.2789 72.0903 40.3095 72.0893 40.3403C72.0929 40.3962 72.1038 40.4514 72.1218 40.5046C72.1303 40.5276 72.1491 40.5539 72.1731 40.5473C72.197 40.5407 72.1919 40.498 72.1885 40.4783C72.168 40.3321 72.1594 40.2664 72.1201 39.8886Z" fill="#DFCA50"/>
<path opacity="0.4" d="M72.1201 39.8886C72.2911 39.8886 72.3988 40.6672 72.5544 41.4424C72.7254 42.2735 72.9631 42.6021 73.1067 43.282C73.2777 44.0606 73.2555 44.4137 73.0059 44.9081C72.7562 45.4025 71.7764 45.938 71.2257 45.2925C70.776 44.7669 70.7127 44.1542 70.6922 43.3675C70.6619 42.7072 70.5923 42.0491 70.4836 41.3965C70.4067 40.8117 70.2459 40.2467 70.3878 40.1712C70.4049 40.2566 70.5862 40.8709 70.6683 40.8282C70.7025 40.8101 70.6683 40.6836 70.6546 40.6064C70.6465 40.5739 70.6452 40.5402 70.6508 40.5072C70.6564 40.4742 70.6687 40.4426 70.6871 40.4142C70.7349 40.3644 70.7987 40.3314 70.8684 40.3206C71.0394 40.2779 71.2941 40.2171 71.4617 40.1909C71.5455 40.1777 71.6755 40.1679 71.7593 40.1629C71.832 40.1555 71.9055 40.1605 71.9764 40.1777C71.9971 40.1825 72.0164 40.1914 72.0332 40.2038C72.05 40.2163 72.0639 40.232 72.0739 40.25C72.0851 40.2789 72.0903 40.3095 72.0893 40.3403C72.0929 40.3962 72.1038 40.4514 72.1218 40.5046C72.1303 40.5276 72.1491 40.5539 72.1731 40.5473C72.197 40.5407 72.1919 40.498 72.1885 40.4783C72.168 40.3321 72.1594 40.2664 72.1201 39.8886Z" fill="black"/>
<path opacity="0.3" d="M73.0519 43.062C73.0776 43.1736 73.2332 43.916 73.0314 44.0672C72.8296 44.2183 72.6415 43.6483 72.6415 43.6483C72.6415 43.6483 72.0892 43.5268 71.3283 43.9111C71.3779 44.0294 71.2872 44.44 71.0649 44.3694C70.8426 44.2988 70.6956 43.4463 70.6938 43.4348C70.7178 44.1887 70.7896 44.7816 71.2257 45.2925C71.7763 45.938 72.7544 45.4025 73.0058 44.9081C73.2571 44.4137 73.2725 44.0606 73.1067 43.282C73.0913 43.2048 73.0725 43.1326 73.0519 43.062Z" fill="black"/>
<path d="M72.5835 43.7025C72.6075 43.9867 72.893 43.8668 72.8759 43.4693C72.8588 43.0718 72.604 42.1323 72.5545 41.4424C72.3988 40.6672 72.2877 39.8722 72.1167 39.8706C72.1252 39.9839 72.1766 40.4356 72.1885 40.4997C72.2963 41.0712 72.3681 42.1734 72.4604 42.699C72.5203 43.0311 72.5614 43.3661 72.5835 43.7025Z" fill="#37474F"/>
<path d="M71.4172 43.8963C71.3211 43.5719 71.2424 43.2429 71.1812 42.9108C71.0837 42.3901 70.7588 41.3225 70.5998 40.7591C70.5519 40.6655 70.386 40.1695 70.386 40.1646C70.2834 40.2204 70.2834 40.3781 70.386 40.8692C70.4339 41.1073 70.5177 41.4293 70.5981 41.7643C70.793 42.4296 70.9401 43.3921 71.0598 43.7748C71.1795 44.1575 71.4958 44.1706 71.4172 43.8963Z" fill="#37474F"/>
<path d="M71.3027 43.9358C71.2893 43.9354 71.2763 43.9308 71.2657 43.9228C71.2551 43.9149 71.2474 43.9038 71.2438 43.8914C71.2402 43.8789 71.2408 43.8657 71.2455 43.8536C71.2503 43.8415 71.2589 43.8311 71.2702 43.8241C71.6898 43.5959 72.1781 43.513 72.6536 43.5892C72.6682 43.5939 72.6804 43.6035 72.6881 43.6162C72.6958 43.629 72.6985 43.6439 72.6955 43.6584C72.6926 43.6728 72.6843 43.6858 72.6722 43.6948C72.6601 43.7038 72.645 43.7083 72.6297 43.7075C72.1853 43.6388 71.7297 43.7164 71.3369 43.9276C71.3263 43.9327 71.3146 43.9355 71.3027 43.9358Z" fill="#EBEBEB"/>
<path d="M71.1163 43.3297C71.1053 43.3296 71.0946 43.3268 71.085 43.3217C71.0754 43.3165 71.0674 43.3091 71.0616 43.3001C71.0574 43.2931 71.0546 43.2854 71.0535 43.2774C71.0524 43.2693 71.053 43.2612 71.0552 43.2534C71.0575 43.2456 71.0613 43.2383 71.0665 43.2319C71.0717 43.2256 71.0782 43.2203 71.0855 43.2163C71.5552 42.981 72.089 42.8903 72.6143 42.9568C72.6229 42.9575 72.6313 42.9599 72.639 42.9638C72.6467 42.9677 72.6534 42.9731 72.6588 42.9797C72.6642 42.9862 72.6681 42.9937 72.6703 43.0018C72.6726 43.0098 72.673 43.0182 72.6718 43.0265C72.6705 43.0347 72.6674 43.0426 72.6628 43.0497C72.6582 43.0567 72.6521 43.0628 72.645 43.0675C72.6378 43.0722 72.6297 43.0755 72.6212 43.0771C72.6127 43.0787 72.6039 43.0785 72.5955 43.0767C72.098 43.0161 71.5931 43.1014 71.1471 43.3215C71.138 43.3272 71.1272 43.33 71.1163 43.3297Z" fill="#EBEBEB"/>
<path d="M71.0207 42.7335C71.0098 42.7337 70.9991 42.7313 70.9895 42.7264C70.9799 42.7215 70.9718 42.7143 70.9659 42.7055C70.9575 42.6917 70.9549 42.6753 70.9588 42.6597C70.9626 42.6441 70.9725 42.6305 70.9865 42.6218C71.0172 42.6037 71.7389 42.1816 72.5152 42.377C72.5233 42.3789 72.5308 42.3824 72.5375 42.3872C72.5441 42.392 72.5497 42.398 72.5538 42.4049C72.558 42.4118 72.5606 42.4194 72.5616 42.4274C72.5626 42.4353 72.562 42.4433 72.5597 42.451C72.5577 42.4585 72.5541 42.4656 72.5493 42.4719C72.5444 42.4781 72.5383 42.4834 72.5313 42.4874C72.5243 42.4913 72.5166 42.4939 72.5085 42.495C72.5005 42.4961 72.4923 42.4956 72.4844 42.4937C71.7611 42.313 71.06 42.7203 71.0531 42.7253C71.0431 42.7303 71.032 42.7331 71.0207 42.7335Z" fill="#EBEBEB"/>
<path d="M70.8118 42.2013C70.7976 42.2023 70.7835 42.1986 70.7718 42.1907C70.7602 42.1829 70.7517 42.1714 70.7479 42.1582C70.744 42.1451 70.7451 42.131 70.7508 42.1185C70.7565 42.106 70.7666 42.0958 70.7793 42.0896C70.8135 42.0699 71.624 41.5968 72.4773 41.8284C72.4923 41.8337 72.5045 41.8442 72.5118 41.8579C72.519 41.8715 72.5206 41.8872 72.5163 41.9019C72.512 41.9166 72.502 41.9292 72.4885 41.9372C72.4749 41.9452 72.4587 41.948 72.4431 41.945C71.6446 41.7299 70.8528 42.1881 70.8443 42.1931C70.8345 42.1988 70.8232 42.2017 70.8118 42.2013Z" fill="#EBEBEB"/>
<path d="M70.7042 41.6051C70.6932 41.605 70.6824 41.6022 70.6728 41.597C70.6633 41.5919 70.6552 41.5845 70.6494 41.5755C70.6451 41.5686 70.6423 41.561 70.6411 41.553C70.6398 41.545 70.6403 41.5369 70.6423 41.5291C70.6444 41.5214 70.6481 41.514 70.6531 41.5076C70.6581 41.5012 70.6644 41.4958 70.6717 41.4917C70.7076 41.472 71.578 40.9858 72.3817 41.2125C72.3896 41.2146 72.397 41.2181 72.4034 41.223C72.4099 41.2279 72.4153 41.2339 72.4192 41.2408C72.4232 41.2477 72.4257 41.2553 72.4266 41.2631C72.4275 41.2709 72.4268 41.2789 72.4244 41.2864C72.4221 41.2941 72.4182 41.3012 72.4129 41.3074C72.4077 41.3136 72.4013 41.3188 72.3939 41.3226C72.3866 41.3264 72.3786 41.3288 72.3704 41.3296C72.3621 41.3305 72.3537 41.3297 72.3458 41.3275C71.5985 41.1172 70.7452 41.5919 70.7366 41.5968C70.7267 41.6021 70.7155 41.6049 70.7042 41.6051Z" fill="#EBEBEB"/>
<path d="M65.7111 33.9986C65.6995 33.5805 65.6122 33.1675 65.4528 32.7783C64.7432 33.3843 63.0161 33.5207 62.2124 33.1971C62.7921 35.1008 63.8147 38.3316 63.9224 38.8834C64.0472 39.5684 64.1344 39.8689 63.6368 40.5259C63.1392 41.1829 62.3902 41.8219 61.8738 42.0797C61.3574 42.3376 61.106 42.6415 61.7131 42.8764C62.2124 43.0702 63.288 43.2196 63.8865 42.8419C64.485 42.4641 64.656 41.8153 65.2836 41.5525C65.5298 41.449 66.1916 41.3587 66.3096 40.8955C66.4275 40.4323 66.0667 39.9428 65.9676 39.3598C65.8684 38.7767 65.7538 35.3061 65.7111 33.9986Z" fill="#455A64"/>
<path d="M65.4528 32.7783C64.7432 33.3843 63.0161 33.5207 62.2124 33.1971C62.2688 33.3843 62.3304 33.5831 62.3937 33.79C63.0777 33.9937 64.5688 34.1892 65.6085 33.2529C65.5725 33.0903 65.5204 32.9313 65.4528 32.7783Z" fill="#DFCA50"/>
<path d="M61.2819 42.7039C61.2639 42.7865 61.2704 42.8723 61.3007 42.9515C61.3309 43.0308 61.3836 43.1003 61.4529 43.1523C61.9624 43.4116 62.5577 43.4676 63.1099 43.3083C63.8965 43.103 64.2983 42.8271 64.5822 42.5281C64.8687 42.189 65.2162 41.9019 65.6082 41.6806C65.9194 41.5311 66.2802 41.3702 66.3726 41.2552C66.4649 41.1402 66.388 40.7 66.388 40.7L61.2819 42.7039Z" fill="#263238"/>
<path d="M64.9842 39.3877C65.0543 39.3877 65.1364 39.3877 65.1757 39.4402C65.1959 39.4741 65.2049 39.5131 65.2013 39.5519C65.2013 39.6045 65.2013 39.6554 65.2013 39.7063C65.2013 39.7572 65.1877 39.8147 65.2013 39.8443C65.215 39.8739 65.3176 39.8443 65.3484 39.8114C65.4291 39.7197 65.4949 39.6167 65.5433 39.5059C65.5792 39.4485 65.7007 39.4008 65.7554 39.3598C65.832 39.311 65.9041 39.2561 65.9708 39.1955C66.0187 39.1347 65.9298 39.0937 65.9212 39.0214C65.9514 39.0189 65.9815 39.0263 66.0067 39.0425C66.0318 39.0586 66.0506 39.0824 66.0598 39.1101C66.1008 39.2284 66.2308 39.7293 66.3111 39.9313C66.4447 40.225 66.4753 40.5525 66.3983 40.8643C66.2273 41.1386 65.8614 41.3275 65.5279 41.5032C65.1402 41.7309 64.7903 42.0133 64.49 42.3409C64.0481 42.7564 63.4914 43.0414 62.886 43.1621C62.267 43.2393 61.5436 43.1392 61.347 42.8846C61.1025 42.5692 61.2273 42.3524 62.0857 41.8235C62.2704 41.7102 62.4397 41.5739 62.6124 41.4441L62.6483 41.4162C62.8974 41.236 63.1291 41.0348 63.3409 40.815C63.5255 40.6091 63.6526 40.3616 63.7102 40.0956C63.7615 39.8788 63.7889 39.6587 63.8573 39.4468C63.8623 39.4259 63.8729 39.4067 63.8881 39.391C63.9223 39.3565 63.9804 39.3663 64.0283 39.3762C64.197 39.4093 64.3692 39.4225 64.5413 39.4156L64.9842 39.3877Z" fill="#DFCA50"/>
<path opacity="0.4" d="M64.9842 39.3877C65.0543 39.3877 65.1364 39.3877 65.1757 39.4402C65.1959 39.4741 65.2049 39.5131 65.2013 39.5519C65.2013 39.6045 65.2013 39.6554 65.2013 39.7063C65.2013 39.7572 65.1877 39.8147 65.2013 39.8443C65.215 39.8739 65.3176 39.8443 65.3484 39.8114C65.4291 39.7197 65.4949 39.6167 65.5433 39.5059C65.5792 39.4485 65.7007 39.4008 65.7554 39.3598C65.832 39.311 65.9041 39.2561 65.9708 39.1955C66.0187 39.1347 65.9298 39.0937 65.9212 39.0214C65.9514 39.0189 65.9815 39.0263 66.0067 39.0425C66.0318 39.0586 66.0506 39.0824 66.0598 39.1101C66.1008 39.2284 66.2308 39.7293 66.3111 39.9313C66.4447 40.225 66.4753 40.5525 66.3983 40.8643C66.2273 41.1386 65.8614 41.3275 65.5279 41.5032C65.1402 41.7309 64.7903 42.0133 64.49 42.3409C64.0481 42.7564 63.4914 43.0414 62.886 43.1621C62.267 43.2393 61.5436 43.1392 61.347 42.8846C61.1025 42.5692 61.2273 42.3524 62.0857 41.8235C62.2704 41.7102 62.4397 41.5739 62.6124 41.4441L62.6483 41.4162C62.8974 41.236 63.1291 41.0348 63.3409 40.815C63.5255 40.6091 63.6526 40.3616 63.7102 40.0956C63.7615 39.8788 63.7889 39.6587 63.8573 39.4468C63.8623 39.4259 63.8729 39.4067 63.8881 39.391C63.9223 39.3565 63.9804 39.3663 64.0283 39.3762C64.197 39.4093 64.3692 39.4225 64.5413 39.4156L64.9842 39.3877Z" fill="black"/>
<path opacity="0.3" d="M64.495 42.336C64.6372 42.1873 64.7873 42.0459 64.9447 41.9122C64.9447 41.9122 63.9563 42.6825 63.481 42.4542C63.1732 42.308 63.2758 42.0666 63.2723 41.9943C63.2689 41.9221 62.5319 41.7069 62.2566 41.7118C62.1865 41.7611 62.1266 41.8022 62.0856 41.8251C61.2306 42.354 61.1023 42.5708 61.3469 42.8862C61.5452 43.1408 62.0805 43.2886 62.8859 43.1835C63.404 43.1096 64.1615 42.6792 64.495 42.336Z" fill="black"/>
<path d="M63.317 41.7709C62.7784 42.065 63.0485 42.1931 63.199 42.1356C63.7979 41.8618 64.337 41.4811 64.7876 41.0138C65.3314 40.4684 65.7161 39.8377 65.9179 39.6373C66.0037 39.5613 66.0805 39.4765 66.1471 39.3844C66.1146 39.2661 66.0906 39.1561 66.0718 39.0986C66.0616 39.0693 66.0403 39.0447 66.0121 39.0298C65.9839 39.0149 65.9509 39.0107 65.9196 39.0181L65.935 39.1742C65.889 39.2493 65.8251 39.3129 65.7486 39.3598C65.6735 39.3967 65.6057 39.4462 65.5486 39.5059C65.4819 39.6127 65.4357 39.6915 65.3417 39.8229C65.0048 40.3009 63.8557 41.4769 63.317 41.7709Z" fill="#37474F"/>
<path d="M63.2196 42.0502C63.2126 42.0502 63.2057 42.0489 63.1992 42.0464C63.1928 42.0438 63.1869 42.0401 63.1819 42.0354C63.0422 41.932 62.8814 41.858 62.7099 41.8181C62.5385 41.7782 62.3602 41.7734 62.1867 41.8038C62.1795 41.8058 62.172 41.8063 62.1646 41.8053C62.1572 41.8044 62.15 41.802 62.1436 41.7983C62.1372 41.7946 62.1317 41.7897 62.1273 41.7839C62.123 41.778 62.1199 41.7714 62.1183 41.7644C62.1163 41.7574 62.1157 41.75 62.1167 41.7428C62.1176 41.7356 62.1201 41.7286 62.1239 41.7223C62.1278 41.716 62.1329 41.7106 62.139 41.7062C62.1451 41.7019 62.152 41.6987 62.1594 41.697C62.3513 41.6624 62.5487 41.6676 62.7384 41.7124C62.928 41.7572 63.1055 41.8404 63.2589 41.9565C63.2642 41.9616 63.2684 41.9676 63.2713 41.9742C63.2742 41.9809 63.2757 41.988 63.2757 41.9951C63.2757 42.0023 63.2742 42.0094 63.2713 42.0161C63.2684 42.0227 63.2642 42.0287 63.2589 42.0337C63.2483 42.0437 63.2343 42.0496 63.2196 42.0502Z" fill="#EBEBEB"/>
<path d="M63.676 41.6921C63.6614 41.6923 63.6473 41.687 63.6367 41.6773C63.4968 41.574 63.3361 41.5 63.1647 41.4598C62.9933 41.4196 62.8151 41.4143 62.6414 41.4441C62.6271 41.4471 62.6121 41.4446 62.5997 41.4372C62.5872 41.4297 62.5782 41.4179 62.5747 41.4043C62.5711 41.3906 62.5732 41.3761 62.5806 41.3639C62.588 41.3518 62.6 41.3428 62.6141 41.339C62.8072 41.3029 63.0062 41.3072 63.1974 41.3517C63.3887 41.3962 63.5676 41.4798 63.7222 41.5968C63.7277 41.6018 63.7321 41.6077 63.7352 41.6144C63.7382 41.621 63.7398 41.6282 63.7398 41.6354C63.7398 41.6427 63.7382 41.6499 63.7352 41.6565C63.7321 41.6631 63.7277 41.6691 63.7222 41.674C63.7164 41.6801 63.7092 41.6849 63.7012 41.6881C63.6932 41.6912 63.6846 41.6926 63.676 41.6921Z" fill="#EBEBEB"/>
<path d="M64.1327 41.3505C64.1182 41.3503 64.1042 41.3451 64.0934 41.3357C63.9534 41.2327 63.7926 41.1589 63.6212 41.119C63.4498 41.0792 63.2717 41.0741 63.0982 41.1041C63.0836 41.1076 63.0683 41.1054 63.0555 41.098C63.0426 41.0906 63.0334 41.0786 63.0298 41.0647C63.0261 41.0508 63.0284 41.036 63.0361 41.0237C63.0438 41.0114 63.0563 41.0025 63.0708 40.999C63.2629 40.9639 63.4606 40.9687 63.6505 41.0132C63.8405 41.0577 64.0183 41.1408 64.172 41.2569C64.1774 41.2619 64.1816 41.2679 64.1845 41.2745C64.1874 41.2812 64.1888 41.2883 64.1888 41.2955C64.1888 41.3026 64.1874 41.3098 64.1845 41.3164C64.1816 41.323 64.1774 41.329 64.172 41.3341C64.167 41.3393 64.1609 41.3434 64.1542 41.3463C64.1474 41.3491 64.1401 41.3505 64.1327 41.3505Z" fill="#EBEBEB"/>
<path d="M64.5481 40.9694C64.5336 40.9692 64.5196 40.9639 64.5088 40.9546C64.1883 40.7566 63.8008 40.6842 63.4264 40.7526C63.4116 40.756 63.3961 40.7538 63.3831 40.7462C63.3701 40.7387 63.3608 40.7265 63.3571 40.7123C63.3535 40.6982 63.3559 40.6832 63.3637 40.6707C63.3716 40.6583 63.3843 40.6493 63.399 40.6458C63.603 40.607 63.813 40.6072 64.0169 40.6464C64.2208 40.6856 64.4147 40.763 64.5875 40.8741C64.5928 40.8792 64.597 40.8852 64.5999 40.8918C64.6028 40.8984 64.6043 40.9055 64.6043 40.9127C64.6043 40.9199 64.6028 40.927 64.5999 40.9336C64.597 40.9403 64.5928 40.9463 64.5875 40.9513C64.5826 40.9567 64.5765 40.9612 64.5698 40.9643C64.563 40.9674 64.5556 40.9691 64.5481 40.9694Z" fill="#EBEBEB"/>
<path d="M64.8834 40.5391C64.8686 40.5388 64.8544 40.5329 64.8441 40.5226C64.6201 40.3173 64.0404 40.2746 63.6608 40.3666C63.646 40.3701 63.6304 40.3678 63.6175 40.3603C63.6045 40.3527 63.5951 40.3405 63.5915 40.3264C63.5879 40.3122 63.5903 40.2972 63.5981 40.2848C63.606 40.2723 63.6187 40.2633 63.6334 40.2598C64.0506 40.1596 64.6594 40.2106 64.9227 40.4438C64.9331 40.4542 64.9389 40.468 64.9389 40.4824C64.9389 40.4968 64.9331 40.5106 64.9227 40.521C64.9126 40.5317 64.8985 40.5382 64.8834 40.5391Z" fill="#EBEBEB"/>
<path d="M64.2558 22.9545C64.2558 22.9545 65.1981 23.623 67.2535 23.5918C68.5527 23.5479 69.8229 23.2103 70.9608 22.6063C71.099 23.3302 71.1989 24.0604 71.26 24.7941C71.3062 25.6662 71.2686 31.5924 71.2686 31.5924C71.2686 31.5924 70.2015 32.5171 67.5373 32.003L66.9423 28.2992L65.3673 31.5743C65.3673 31.5743 65.3263 30.9173 63.8694 30.3851C62.4125 29.853 61.8174 30.2882 61.8174 30.2882C61.8174 30.2882 63.0315 26.5105 63.3564 25.6088C63.6813 24.707 64.2558 22.9545 64.2558 22.9545Z" fill="#455A64"/>
<path d="M66.9423 28.3008L66.7182 26.793C66.7182 26.793 65.7145 26.5942 65.1057 25.8781C65.1057 25.8781 65.1673 26.5614 66.2531 27.0886L66.6618 28.3008L65.6204 31.0487L66.9423 28.3008Z" fill="#37474F"/>
<path d="M69.7075 32.1245C69.846 32.1098 69.9725 32.09 70.0905 32.067C70.1999 28.5735 70.0734 24.9534 69.7656 23.1269C69.6527 23.1663 69.5313 23.2041 69.4048 23.2419C69.6938 25.1143 69.8135 28.6868 69.7075 32.1245Z" fill="#DFCA50"/>
<path d="M70.9042 31.8108C71.0051 28.1973 70.8547 24.4968 70.5178 22.8297C70.4152 22.8756 70.2972 22.9249 70.1655 22.9775C70.4887 24.7333 70.6255 28.3977 70.5195 31.9587C70.6509 31.9174 70.7795 31.868 70.9042 31.8108Z" fill="#DFCA50"/>
<path d="M68.0451 31.0717C68.0434 31.0681 68.0425 31.0642 68.0425 31.0602C68.0425 31.0562 68.0434 31.0523 68.0451 31.0487C68.0465 31.0401 68.0514 31.0325 68.0587 31.0274L68.3306 30.8319L68.3563 30.8155C68.3657 30.8088 68.3771 30.8054 68.3888 30.8056H68.5427C68.5469 30.8055 68.5511 30.8063 68.555 30.808C68.5589 30.8097 68.5622 30.8123 68.5649 30.8155C68.5713 30.8215 68.575 30.8298 68.5752 30.8385L68.5649 31.617C68.565 31.6211 68.5642 31.6251 68.5624 31.6289C68.5606 31.6326 68.558 31.6358 68.5546 31.6384C68.5483 31.6446 68.5397 31.6481 68.5307 31.6482H68.3597C68.3552 31.6484 68.3507 31.6475 68.3466 31.6458C68.3425 31.6441 68.3388 31.6416 68.3358 31.6384C68.3293 31.6323 68.3256 31.624 68.3255 31.6154L68.334 31.0898L68.1836 31.1949C68.1796 31.1968 68.1752 31.1978 68.1707 31.1978C68.1663 31.1978 68.1619 31.1968 68.1579 31.1949C68.1534 31.1945 68.149 31.1931 68.1452 31.1909C68.1413 31.1886 68.1381 31.1855 68.1357 31.1817L68.0451 31.0717Z" fill="#DFCA50"/>
<path d="M69.0847 30.8023C69.1396 30.8021 69.1941 30.8116 69.2454 30.8302C69.2869 30.8473 69.3247 30.8718 69.3566 30.9025C69.3856 30.9329 69.4077 30.9686 69.4216 31.0076C69.4354 31.048 69.4435 31.09 69.4455 31.1325C69.4455 31.167 69.4455 31.2031 69.4455 31.2409C69.4455 31.2786 69.4455 31.3148 69.4455 31.3476C69.4433 31.3898 69.4341 31.4314 69.4181 31.4708C69.4041 31.5096 69.3813 31.5449 69.3515 31.5743C69.3191 31.6048 69.2807 31.6288 69.2386 31.6449C69.1864 31.6624 69.1314 31.6707 69.0761 31.6696C69.0211 31.6694 68.9666 31.6594 68.9154 31.64C68.8733 31.624 68.8354 31.5993 68.8043 31.5677C68.7745 31.5379 68.7523 31.5019 68.7393 31.4626C68.7243 31.4225 68.7162 31.3804 68.7153 31.3378C68.7153 31.3049 68.7153 31.2704 68.7153 31.2327C68.7153 31.1949 68.7153 31.1587 68.7153 31.1243C68.7182 31.0816 68.7274 31.0396 68.7427 30.9994C68.7574 30.9606 68.7808 30.9253 68.8111 30.8959C68.8432 30.8656 68.8817 30.8421 68.924 30.827C68.9756 30.8097 69.03 30.8014 69.0847 30.8023ZM69.2112 31.3378C69.2112 31.2704 69.2112 31.2031 69.2112 31.1357C69.2098 31.1174 69.2063 31.0992 69.201 31.0815C69.1984 31.0653 69.1913 31.05 69.1805 31.0372C69.1702 31.0239 69.1567 31.0132 69.1411 31.006C69.121 30.9983 69.0995 30.9944 69.0779 30.9945C69.0569 30.9938 69.0359 30.9972 69.0163 31.0043C69.0007 31.0115 68.9867 31.0215 68.9753 31.0339C68.9643 31.047 68.9561 31.0621 68.9513 31.0783C68.9457 31.0958 68.9428 31.1141 68.9428 31.1325C68.9385 31.1997 68.9385 31.2672 68.9428 31.3345C68.9436 31.3533 68.9464 31.3721 68.9513 31.3903C68.9546 31.4064 68.9616 31.4216 68.9718 31.4347C68.9824 31.448 68.9966 31.4582 69.0129 31.4642C69.0322 31.4726 69.0533 31.4765 69.0744 31.4757C69.096 31.4763 69.1174 31.473 69.1377 31.4659C69.1535 31.4599 69.1676 31.4504 69.1787 31.438C69.1894 31.4246 69.1975 31.4096 69.2027 31.3936C69.2081 31.3732 69.2109 31.3523 69.2112 31.3312V31.3378Z" fill="#DFCA50"/>
<path d="M59.5156 13.9832C59.6866 14.1605 60.0645 14.5088 61.2256 15.4811C62.0806 16.1907 63.4281 17.1023 63.835 17.8348C63.782 16.6144 66.0016 14.673 66.0016 14.673C65.2646 14.6024 64.4968 14.7305 63.8521 14.3839C62.8174 13.8245 61.8794 13.1142 61.0717 12.2782C60.993 11.7329 60.7844 9.54512 60.8853 8.56291C60.9048 8.38926 60.99 8.22853 61.1247 8.11122C61.4838 7.79258 61.5984 7.51171 61.8446 7.14872C62.0361 6.86456 62.2276 6.76766 62.1866 6.69539C62.1235 6.61966 62.0331 6.5695 61.9333 6.55489C61.8335 6.54028 61.7316 6.56229 61.648 6.61655C61.4399 6.726 61.2474 6.86069 61.0751 7.01732C61.1484 6.60872 61.2771 6.21112 61.4581 5.83472C61.8822 4.9724 61.9096 4.74738 60.757 4.94613C60.0354 5.07096 59.36 5.65569 59.1189 7.28176C59.0278 7.8686 58.9787 8.46074 58.9718 9.05402C58.9718 10.4189 58.8299 11.7871 58.8863 12.8893C58.9068 13.359 59.1821 13.6464 59.5156 13.9832Z" fill="#F28F8F"/>
<path d="M65.5793 14.5662C64.9644 14.5519 64.3595 14.4131 63.8043 14.1589C63.158 13.8552 62.5464 13.4875 61.9797 13.0617C61.9797 13.0617 60.6117 13.8435 60.6391 15.2249C60.6391 15.2249 62.1576 16.4173 62.7561 16.8986C63.157 17.2315 63.5256 17.5987 63.8573 17.9958L65.5793 14.5662Z" fill="#DFCA50"/>
<path opacity="0.15" d="M65.5793 14.5662C64.9644 14.5519 64.3595 14.4131 63.8043 14.1589C63.158 13.8552 62.5464 13.4875 61.9797 13.0617C61.9797 13.0617 60.6117 13.8435 60.6391 15.2249C60.6391 15.2249 62.1576 16.4173 62.7561 16.8986C63.157 17.2315 63.5256 17.5987 63.8573 17.9958L65.5793 14.5662Z" fill="black"/>
<path d="M71.2188 23.6591C71.1589 22.7262 70.9058 20.765 70.8648 20.0637C70.7913 18.8548 70.7348 18.0253 70.716 17.7346C70.6869 17.2501 70.0696 14.875 69.7533 14.8077C68.8189 14.6478 67.8736 14.5539 66.925 14.5268C66.3738 14.4992 65.8211 14.529 65.2765 14.6155C64.9598 14.6806 64.6692 14.8315 64.4392 15.0505C64.2092 15.2694 64.0493 15.5471 63.9786 15.8507C63.8644 16.3469 63.8071 16.8536 63.8076 17.3618C63.8076 17.9547 64.0966 19.3081 64.2129 20.6993C64.1953 21.7382 64.0959 22.7743 63.9154 23.7987C65.0234 24.5411 69.3292 25.341 71.2188 23.6591Z" fill="#DFCA50"/>
<path d="M70.716 17.7346C70.712 17.6696 70.704 17.6049 70.6921 17.5408C68.1835 18.303 65.2851 17.9597 63.8127 17.5753C63.8247 17.7232 63.8452 17.9038 63.8709 18.0927C65.3688 18.4721 68.2485 18.799 70.7348 18.0303C70.7331 17.9022 70.7211 17.8036 70.716 17.7346Z" fill="#455A64"/>
<path d="M69.7535 14.8077C68.8192 14.6478 67.8738 14.5539 66.9252 14.5268C66.374 14.4992 65.8213 14.529 65.2767 14.6155C64.9601 14.6806 64.6695 14.8315 64.4394 15.0505C64.2094 15.2694 64.0495 15.5471 63.9789 15.8507C63.8945 16.2156 63.8402 16.5863 63.8164 16.9594C65.0972 17.3437 68.0658 17.7642 70.5692 16.9594C70.3589 16.0806 69.9792 14.8553 69.7535 14.8077Z" fill="#455A64"/>
<path d="M68.1938 9.61575C68.3527 9.63593 68.504 9.69319 68.6346 9.78252C68.7652 9.87185 68.871 9.99054 68.9427 10.1282C69.1001 10.4288 68.994 11.0349 68.8162 11.8364C68.7169 12.3539 68.561 12.8599 68.3511 13.3459C68.2687 13.4924 68.1374 13.6081 67.9783 13.6744V12.8268L67.5183 12.293C67.5183 12.293 67.3952 12.2405 67.2122 11.2862C67.1398 10.8659 67.1015 10.4409 67.0977 10.0149L68.1938 9.61575Z" fill="#263238"/>
<path d="M67.4721 10.6653C67.4828 11.014 67.3855 11.3579 67.1926 11.6535C66.9996 11.9491 66.7197 12.183 66.3883 12.3256C66.0568 12.4683 65.6888 12.5132 65.3307 12.4548C64.9726 12.3964 64.6407 12.2372 64.3769 11.9974C64.1131 11.7576 63.9293 11.448 63.8488 11.1078C63.7684 10.7676 63.7948 10.4121 63.9248 10.0864C64.0549 9.76062 64.2826 9.47927 64.5792 9.27795C64.8759 9.07664 65.228 8.9644 65.5911 8.95547C66.0763 8.94354 66.5467 9.11677 66.8992 9.43724C67.2518 9.7577 67.4578 10.1993 67.4721 10.6653Z" fill="#263238"/>
<path d="M67.7803 12.0056C67.889 11.8505 68.0102 11.7039 68.1428 11.567C68.1971 11.5142 68.2627 11.4732 68.3349 11.4468C68.4072 11.4205 68.4846 11.4094 68.5617 11.4143C68.6545 11.4171 68.7446 11.4454 68.8212 11.4957C68.8979 11.5461 68.9579 11.6164 68.9944 11.6984C69.2047 12.0664 68.9653 12.564 68.6746 12.7891C68.5786 12.8702 68.4567 12.9175 68.3289 12.9232C68.2011 12.9289 68.0752 12.8926 67.9718 12.8203L67.9855 14.673C67.9855 14.673 67.8487 15.0869 67.0091 15.4006C66.3541 15.6454 65.4136 15.3514 66.0087 14.7272L65.9882 14.1146C65.6748 14.1885 65.3492 14.2014 65.0306 14.1523C64.6989 14.0883 64.4423 13.9372 64.2491 13.4543C63.9071 12.6002 63.8917 11.2287 64.2491 10.0674C64.5911 9.78821 65.2546 9.82763 65.665 9.90318C66.0293 10.0217 66.3818 10.1712 66.7184 10.3499C66.7795 10.5185 66.885 10.669 67.0245 10.7868C67.1786 10.9036 67.3643 10.9754 67.5597 10.9938C67.5597 10.9938 67.4998 11.2073 67.4947 11.227C67.4701 11.3129 67.4507 11.4001 67.4366 11.4882C67.408 11.6588 67.4121 11.833 67.4485 12.0023C67.4513 12.0312 67.4609 12.059 67.4766 12.0838C67.4923 12.1086 67.5137 12.1296 67.5392 12.1452C67.5641 12.154 67.5911 12.1562 67.6173 12.1516C67.6435 12.1469 67.6678 12.1357 67.6879 12.1189C67.7245 12.0858 67.7556 12.0476 67.7803 12.0056Z" fill="#F28F8F"/>
<path d="M63.9086 8.88648C63.9138 8.87325 63.9225 8.86159 63.9339 8.85265C63.9454 8.84371 63.959 8.83781 63.9735 8.83556C63.9964 8.8367 64.0182 8.8454 64.0351 8.8602C64.1647 8.95287 64.302 9.03526 64.4455 9.10657C64.4025 8.93446 64.3944 8.75603 64.4216 8.58097C64.437 8.47421 64.4609 8.22619 64.5926 8.19498C64.6746 8.17692 64.7482 8.24097 64.8097 8.29353C65.3775 8.7715 66.0888 8.5202 66.754 8.5202C67.3098 8.5202 67.9869 8.7173 68.2537 9.22812C68.3768 9.46135 68.4042 9.71101 68.1836 9.88512C67.9955 10.0313 67.3628 10.1808 67.1353 10.2514C66.5334 10.4419 64.9859 10.9314 64.1343 9.9656C63.9913 9.77413 63.8954 9.55398 63.8538 9.32174C63.8289 9.17582 63.8473 9.02611 63.9069 8.88976L63.9086 8.88648Z" fill="#263238"/>
<path d="M65.988 14.1146C65.988 14.1146 66.6566 13.9963 66.9833 13.7779C67.2243 13.5974 67.4215 13.3688 67.5612 13.1077C67.5612 13.1077 67.4655 13.6005 67.2192 13.8255C66.8191 14.1754 66.0034 14.3297 66.0034 14.3297L65.988 14.1146Z" fill="#B16668"/>
<path d="M66.0904 11.7477C66.0904 11.7737 66.0958 11.7994 66.1062 11.8233C66.1167 11.8472 66.132 11.8689 66.1512 11.8871C66.1705 11.9053 66.1933 11.9196 66.2184 11.9293C66.2435 11.9389 66.2703 11.9436 66.2974 11.9432C66.3394 11.9438 66.3806 11.9323 66.4158 11.9102C66.451 11.8881 66.4785 11.8564 66.4947 11.8192C66.5109 11.7819 66.5151 11.7409 66.5069 11.7013C66.4986 11.6617 66.4781 11.6254 66.4481 11.5971C66.4182 11.5688 66.3801 11.5498 66.3387 11.5425C66.2974 11.5352 66.2547 11.5399 66.2162 11.5561C66.1777 11.5724 66.1452 11.5993 66.1228 11.6334C66.1003 11.6676 66.0891 11.7074 66.0904 11.7477Z" fill="#263238"/>
<path d="M66.3643 11.0776L66.7883 11.319C66.8193 11.2636 66.8274 11.199 66.8109 11.138C66.7944 11.0771 66.7546 11.0244 66.6994 10.9905C66.6716 10.9748 66.6407 10.9645 66.6086 10.9603C66.5766 10.9562 66.544 10.9582 66.5128 10.9663C66.4816 10.9744 66.4523 10.9885 66.4268 11.0076C66.4013 11.0267 66.3801 11.0505 66.3643 11.0776Z" fill="#263238"/>
<path d="M66.147 12.8909L65.292 13.1422C65.3305 13.2523 65.4116 13.344 65.5186 13.3981C65.6256 13.4523 65.7502 13.4647 65.8666 13.4329C65.9226 13.4159 65.9746 13.3882 66.0193 13.3515C66.0639 13.3147 66.1005 13.2697 66.1266 13.2191C66.1528 13.1685 66.1681 13.1134 66.1716 13.057C66.1751 13.0006 66.1667 12.9441 66.147 12.8909Z" fill="#B16668"/>
<path d="M65.5793 13.428C65.6054 13.3204 65.6705 13.2251 65.7629 13.1593C65.8552 13.0934 65.969 13.0611 66.0838 13.0683C66.1121 13.0701 66.1401 13.0745 66.1676 13.0814C66.1596 13.1627 66.1268 13.24 66.0732 13.3034C66.0197 13.3668 65.9478 13.4136 65.8666 13.4379C65.7722 13.4643 65.6715 13.4608 65.5793 13.428Z" fill="#FFA8A7"/>
<path d="M64.3481 11.232L64.7893 11.0135C64.7758 10.9851 64.7564 10.9597 64.7324 10.9387C64.7083 10.9178 64.6801 10.9017 64.6493 10.8916C64.6186 10.8815 64.5861 10.8774 64.5537 10.8798C64.5213 10.8821 64.4898 10.8907 64.4609 10.9051C64.402 10.9353 64.3575 10.986 64.3365 11.0469C64.3154 11.1077 64.3196 11.174 64.3481 11.232Z" fill="#263238"/>
<path d="M64.509 11.705C64.5092 11.7308 64.5147 11.7563 64.5253 11.7801C64.5358 11.8038 64.5511 11.8253 64.5704 11.8433C64.5896 11.8614 64.6124 11.8755 64.6373 11.8851C64.6623 11.8946 64.689 11.8993 64.7159 11.8988C64.758 11.8995 64.7993 11.8879 64.8345 11.8658C64.8697 11.8436 64.8972 11.8118 64.9133 11.7744C64.9295 11.7371 64.9336 11.6959 64.9252 11.6563C64.9167 11.6167 64.8961 11.5804 64.866 11.5522C64.8358 11.524 64.7976 11.5051 64.7561 11.498C64.7147 11.4908 64.672 11.4958 64.6335 11.5123C64.595 11.5288 64.5626 11.5559 64.5404 11.5903C64.5182 11.6247 64.5073 11.6646 64.509 11.705Z" fill="#263238"/>
<path d="M65.4664 12.6757L64.8286 12.5197L65.5554 11.5441L65.4664 12.6757Z" fill="#B16668"/>
<path d="M72.8504 25.5907C73.0573 25.2195 73.377 24.4952 73.4078 24.2373C73.2482 24.3744 73.0765 24.498 72.8948 24.6069C72.7238 24.6709 72.5049 24.6693 72.4194 24.5362C72.3562 24.4393 72.6332 24.2899 72.7409 24.1355C72.9505 23.8393 73.1843 23.5598 73.4403 23.2994C73.4996 23.255 73.5489 23.1995 73.5854 23.1362C73.6218 23.073 73.6446 23.0034 73.6523 22.9315C73.7293 21.8984 73.6865 20.6517 73.7276 19.4823C72.9547 19.0142 70.9232 18.1256 70.2785 17.7445C69.8527 17.2846 69.6236 16.7869 69.5141 16.0084C69.4868 15.8113 69.5603 14.9752 69.7211 14.8356C70.5299 14.8997 70.8839 14.9999 71.4311 15.3662C71.7098 15.5501 72.0039 15.7719 73.2214 16.649C73.9054 17.1417 74.8767 17.7987 75.6052 18.62C75.9301 18.9944 75.4427 22.1727 75.3264 22.8773C75.2649 23.2584 75.0545 24.3671 74.9212 24.8647C74.6972 25.7057 74.0918 26.407 73.4386 26.5072C72.3972 26.6715 72.5699 26.0917 72.8504 25.5907Z" fill="#F28F8F"/>
<path d="M69.5944 14.7781C70.3759 14.8685 70.8684 14.8619 71.5285 15.3284C71.9765 15.6437 74.1841 17.232 74.1841 17.232C74.1841 17.232 74.4662 18.2504 73.1991 19.272L70.2665 17.958C70.2665 17.958 68.7275 16.7541 69.5944 14.7781Z" fill="#DFCA50"/>
<path opacity="0.15" d="M69.5944 14.7781C70.3759 14.8685 70.8684 14.8619 71.5285 15.3284C71.9765 15.6437 74.1841 17.232 74.1841 17.232C74.1841 17.232 74.4662 18.2504 73.1991 19.272L70.2665 17.958C70.2665 17.958 68.7275 16.7541 69.5944 14.7781Z" fill="black"/>
<path d="M51.7679 53.8335C51.2891 52.7396 51.0412 52.3207 50.3845 51.4946C50.3845 51.4946 49.9143 46.388 49.8083 44.4236C49.7455 43.695 49.6353 42.9709 49.4782 42.2555C47.0842 43.2131 44.6458 43.3724 42.1731 42.9798C42.1492 43.9062 41.643 46.007 40.7282 50.6191C40.6221 51.1595 40.4186 51.9232 40.6119 53.0648C40.7111 53.7743 40.7966 54.3361 41.0103 55.3347C41.2668 56.5436 41.9423 59.3457 42.1817 60.3624C42.4211 61.3791 42.4724 61.8029 42.5903 62.3055C42.7083 62.8081 42.7767 62.4697 42.8144 62.7293C42.852 62.9888 42.7596 62.9346 42.7169 63.1432C42.9033 63.0003 43.0709 63.0495 43.2932 62.9921C43.5155 62.9346 43.8181 63.0775 44.0353 62.9231C44.3653 62.6882 44.6646 63.1678 44.6731 62.2841C44.6817 61.4005 44.6954 59.0599 44.6954 57.9134C44.6954 57.0922 44.6954 56.0656 44.6629 55.3873C44.6201 54.3295 44.3619 53.7103 44.0849 52.7773L46.0685 46.8315C46.0685 46.8315 46.3216 50.0574 46.59 51.6145C46.7149 52.3454 46.8602 52.5687 47.2159 53.1124C47.5288 53.5887 51.7577 59.6151 52.3801 60.2244C52.7324 60.5677 53.6523 58.83 53.6523 58.83C53.6523 58.83 51.9338 54.2063 51.7679 53.8335Z" fill="#B16668"/>
<path d="M51.7678 53.8335C51.5968 53.4277 51.4039 53.0308 51.1899 52.6443C50.2203 52.5277 48.6556 53.3276 48.0469 54.3082C49.3909 56.2266 51.9115 59.7646 52.38 60.2212C52.4067 60.2452 52.4406 60.2604 52.477 60.2646C52.5133 60.2687 52.55 60.2616 52.5818 60.2442C52.9973 60.0635 53.6523 58.8267 53.6523 58.8267C53.6523 58.8267 51.9337 54.2063 51.7678 53.8335Z" fill="#DFCA50"/>
<path opacity="0.3" d="M51.7678 53.8335C51.5968 53.4277 51.4039 53.0308 51.1899 52.6443C50.2203 52.5277 48.6556 53.3276 48.0469 54.3082C49.3909 56.2266 51.9115 59.7646 52.38 60.2212C52.4067 60.2452 52.4406 60.2604 52.477 60.2646C52.5133 60.2687 52.55 60.2616 52.5818 60.2442C52.9973 60.0635 53.6523 58.8267 53.6523 58.8267C53.6523 58.8267 51.9337 54.2063 51.7678 53.8335Z" fill="black"/>
<path d="M48.3459 54.7418C48.5409 54.456 50.0799 53.0287 51.4068 53.0467C51.3195 52.8494 51.2154 52.6593 51.0956 52.4784C50.4739 52.5184 49.8702 52.6958 49.3316 52.9966C48.793 53.2975 48.3339 53.7137 47.9902 54.2129L48.3459 54.7418Z" fill="#37474F"/>
<path d="M52.3236 61.0736C52.3236 61.1853 52.3236 61.2954 52.3236 61.4021C52.3236 61.6863 52.2929 61.7569 52.2433 61.8046C52.0877 61.9573 51.7559 61.89 51.3883 62.023C50.853 62.2168 50.9556 62.7736 50.9556 62.7736C50.9556 62.7736 51.4037 63.2762 51.8585 63.3715C52.1717 63.4269 52.4947 63.3985 52.7922 63.2894C53.2487 63.0496 54.3808 62.4271 54.362 62.3564C54.3431 62.2858 54.6219 59.3654 54.615 59.3441C54.562 59.17 54.3602 59.0731 54.2098 58.9893C54.1294 58.945 54.049 58.9039 53.9687 58.8628C53.8664 58.7901 53.7759 58.7032 53.7002 58.605C53.6699 58.569 53.6312 58.5403 53.5873 58.5212C53.5436 58.5131 53.4987 58.5136 53.4552 58.5226C53.4117 58.5317 53.3706 58.5491 53.3342 58.5738C53.2436 58.6132 53.153 58.6575 53.0658 58.7052C52.8938 58.7986 52.7376 58.9166 52.6024 59.055C52.4924 59.1447 52.4048 59.257 52.3459 59.3835C52.2569 59.712 52.3459 59.8976 52.3835 60.2212C52.3014 60.1325 52.0962 59.8828 52.0962 59.8828C52.0393 59.9219 52.0001 59.9804 51.9864 60.0463C51.9727 60.1122 51.9857 60.1806 52.0227 60.2376C52.2069 60.4815 52.3117 60.7725 52.3236 61.0736Z" fill="#455A64"/>
<path d="M54.3583 62.3614C54.3583 62.3416 54.3771 62.0509 54.4096 61.6567L53.1852 61.3151C53.1716 61.9951 52.8432 62.7293 52.2379 62.6488C51.6326 62.5683 51.6924 62.2201 51.9335 62.1758C52.1746 62.1314 52.1336 62.046 52.2379 61.8095C52.0823 61.9622 51.7505 61.8949 51.3829 62.0279C50.8477 62.2217 50.9503 62.7785 50.9503 62.7785C50.9503 62.7785 51.3983 63.2812 51.8531 63.3764C52.1663 63.4318 52.4893 63.4034 52.7868 63.2943C53.2451 63.0545 54.3771 62.432 54.3583 62.3614Z" fill="#37474F"/>
<path d="M54.7824 59.4722C54.9944 59.5494 54.9021 60.1883 54.7704 60.7221C54.6388 61.256 54.5652 61.4416 54.6319 61.885C54.6986 62.3285 54.7379 62.5289 54.5498 62.6915C54.3617 62.8541 52.8621 63.5275 52.8621 63.5275C53.0688 62.9926 53.1843 62.4291 53.2041 61.8587C53.2434 60.8732 53.3118 60.2409 53.7872 59.7941C53.9131 59.6665 54.0697 59.5705 54.2431 59.5144C54.4166 59.4583 54.6017 59.4438 54.7824 59.4722Z" fill="black"/>
<path d="M50.9522 62.7786C51.2842 63.093 51.7142 63.2943 52.1765 63.3518C52.8434 63.4323 53.0555 62.951 53.1256 62.1889C53.1957 61.4268 53.1769 60.369 53.4898 59.9042C53.8028 59.4394 54.4047 59.3014 54.6116 59.349C54.6759 59.3797 54.7339 59.4215 54.7826 59.4722C54.5964 59.4513 54.4078 59.4736 54.2325 59.5374C54.0572 59.6011 53.9004 59.7044 53.7754 59.8385C53.3633 60.2343 53.3753 61.1131 53.3547 61.867C53.3342 62.6209 53.3017 63.493 52.6707 63.5834C52.3658 63.6162 52.0572 63.5895 51.7633 63.5048C51.4695 63.4201 51.1965 63.2792 50.9607 63.0906C50.9325 63.0434 50.9169 62.9901 50.9154 62.9356C50.9139 62.8812 50.9265 62.8272 50.9522 62.7786Z" fill="#263238"/>
<path d="M53.7377 58.6559L53.6967 58.6099C53.6663 58.5739 53.6277 58.5452 53.5838 58.5261C53.5401 58.5181 53.4952 58.5185 53.4517 58.5276C53.4082 58.5366 53.367 58.554 53.3307 58.5787C53.2401 58.6181 53.1495 58.6625 53.0622 58.7101C52.8903 58.8036 52.734 58.9215 52.5988 59.0599C52.4889 59.1497 52.4012 59.2619 52.3423 59.3884C52.2534 59.7169 52.3423 59.9025 52.38 60.2261C52.3971 60.4577 52.551 61.1344 52.4449 61.5894C52.3389 62.0444 52.1149 62.0821 52.0003 62.1363C51.8858 62.1905 51.9217 62.3219 52.0773 62.2891C52.2041 62.2466 52.3184 62.1754 52.4106 62.0817C52.5028 61.988 52.5703 61.8743 52.6074 61.7504C52.6858 61.4276 52.7072 61.0944 52.6707 60.7649C52.6109 60.3843 52.58 60 52.5783 59.6151C52.6074 59.418 52.9271 58.9253 53.7377 58.6559Z" fill="#263238"/>
<path d="M52.1369 62.2103C52.1216 62.2101 52.1069 62.2047 52.0953 62.1951C52.0837 62.1854 52.076 62.1722 52.0736 62.1577C52.0586 62.031 52.0792 61.9028 52.1335 61.7865C52.1414 61.7724 52.1549 61.7618 52.1709 61.7572C52.1869 61.7526 52.2042 61.7543 52.219 61.7618C52.2334 61.7698 52.244 61.7827 52.2488 61.798C52.2536 61.8133 52.2521 61.8297 52.2446 61.844C52.2022 61.938 52.1863 62.0411 52.1984 62.1429C52.2004 62.1588 52.1957 62.1748 52.1855 62.1874C52.1752 62.2 52.1602 62.2082 52.1437 62.2103H52.1369Z" fill="#EBEBEB"/>
<path d="M52.508 61.8538H52.4927C52.4327 61.8378 52.3778 61.8078 52.3328 61.7665C52.2878 61.7253 52.254 61.674 52.2344 61.6173C52.2296 61.6021 52.2312 61.5856 52.2389 61.5715C52.2465 61.5573 52.2597 61.5467 52.2755 61.5418C52.2916 61.5376 52.3087 61.5396 52.3234 61.5472C52.338 61.5548 52.349 61.5676 52.3541 61.5828C52.3679 61.6197 52.3906 61.6529 52.4203 61.6798C52.4501 61.7066 52.486 61.7263 52.5251 61.7372C52.5403 61.7407 52.5536 61.7494 52.5625 61.7617C52.5714 61.7739 52.5753 61.7889 52.5733 61.8038C52.5714 61.8186 52.5639 61.8323 52.5522 61.8421C52.5404 61.852 52.5253 61.8573 52.5098 61.8571L52.508 61.8538Z" fill="#EBEBEB"/>
<path d="M52.563 61.4333C52.5013 61.4351 52.4403 61.4207 52.3864 61.3918C52.3325 61.3629 52.2878 61.3205 52.2569 61.2691C52.2495 61.2549 52.248 61.2384 52.2527 61.2231C52.2575 61.2079 52.2682 61.1949 52.2826 61.187C52.2973 61.1794 52.3146 61.1777 52.3306 61.1823C52.3466 61.187 52.3601 61.1975 52.3681 61.2116C52.3875 61.2462 52.4168 61.2748 52.4525 61.294C52.4883 61.3132 52.529 61.3222 52.5698 61.32C52.5864 61.3191 52.6026 61.3244 52.615 61.3349C52.6275 61.3453 52.6352 61.36 52.6365 61.3759C52.638 61.3917 52.6329 61.4075 52.6223 61.4198C52.6118 61.4321 52.5966 61.4399 52.5801 61.4416L52.563 61.4333Z" fill="#EBEBEB"/>
<path d="M52.5509 61.072C52.494 61.0718 52.4377 61.0603 52.3857 61.0383C52.3336 61.0162 52.2868 60.9841 52.2482 60.9439C52.2422 60.9384 52.2375 60.9317 52.2342 60.9244C52.2309 60.9171 52.2292 60.9092 52.2292 60.9012C52.2292 60.8932 52.2309 60.8853 52.2342 60.878C52.2375 60.8706 52.2422 60.864 52.2482 60.8585C52.2538 60.8528 52.2606 60.8482 52.2681 60.8451C52.2756 60.842 52.2837 60.8404 52.2918 60.8404C52.3 60.8404 52.3081 60.842 52.3156 60.8451C52.3231 60.8482 52.3298 60.8528 52.3354 60.8585C52.3918 60.9138 52.4686 60.9456 52.5492 60.9472C52.5656 60.9471 52.5814 60.953 52.5934 60.9637C52.6055 60.9743 52.6129 60.989 52.6142 61.0047C52.6146 61.0205 52.6086 61.0359 52.5975 61.0476C52.5863 61.0592 52.5708 61.0662 52.5543 61.0671L52.5509 61.072Z" fill="#EBEBEB"/>
<path d="M52.5372 60.7172C52.3877 60.7097 52.2469 60.6473 52.1439 60.5431C52.1379 60.5377 52.1332 60.5312 52.1299 60.524C52.1267 60.5168 52.125 60.5091 52.125 60.5012C52.125 60.4934 52.1267 60.4856 52.1299 60.4784C52.1332 60.4712 52.1379 60.4647 52.1439 60.4593C52.1557 60.4481 52.1717 60.4418 52.1883 60.4418C52.205 60.4418 52.2209 60.4481 52.2328 60.4593C52.3123 60.5394 52.4204 60.5876 52.5354 60.594C52.5522 60.594 52.5683 60.6004 52.5802 60.6118C52.592 60.6232 52.5987 60.6387 52.5987 60.6548C52.5987 60.6709 52.592 60.6864 52.5802 60.6978C52.5683 60.7092 52.5522 60.7156 52.5354 60.7156L52.5372 60.7172Z" fill="#EBEBEB"/>
<path d="M38.6111 63.9398C38.4811 63.9398 38.464 64.104 38.5581 64.2995C38.7052 64.5984 39.2421 64.8744 39.7414 64.9565C40.2407 65.0386 41.2325 65.0255 41.7695 65.0091C42.3064 64.9926 42.8981 65.2045 43.3085 65.2554C43.8661 65.352 44.4412 65.2517 44.9278 64.9729C45.0133 64.922 45.0116 64.7528 45.0219 64.6362C45.0339 64.472 45.0219 64.3997 44.9347 64.3948C42.8023 64.2847 40.7161 64.0778 38.6111 63.9398Z" fill="#263238"/>
<path d="M44.9346 63.8527C44.9863 64.0976 44.9962 64.3489 44.9637 64.5968C44.8902 64.8021 44.661 64.8957 44.4507 64.945C43.9223 65.0657 43.3717 65.0657 42.8433 64.945C42.4871 64.8579 42.1215 64.8111 41.754 64.8054C41.272 64.8402 40.7881 64.843 40.3057 64.8136C39.9362 64.7811 39.5741 64.6947 39.2318 64.5574C38.936 64.4309 38.6692 64.2896 38.5392 63.9874C38.5291 63.8381 38.5555 63.6885 38.6163 63.5507C38.6772 63.413 38.7709 63.2908 38.8898 63.1941C39.2694 62.9527 39.6661 63.0298 40.0218 63.0298C40.4972 63.0216 40.8973 63.0298 41.3317 63.0085C41.6011 63.001 41.8652 62.9353 42.1046 62.8163C42.2228 62.7529 42.3177 62.6559 42.3765 62.5387C42.4586 62.3975 42.4363 62.2759 42.6125 62.2267C43.1255 62.3219 44.1173 62.4747 44.5396 62.5272C44.9278 62.5765 44.779 62.9674 44.7944 63.1284C44.832 63.475 44.9124 63.6212 44.9346 63.8527Z" fill="#455A64"/>
<path d="M40.0286 64.1632C39.6165 63.9743 39.6524 63.6425 39.9123 63.5801C40.1722 63.5177 40.2047 63.5587 40.2543 63.3945C40.3001 63.2616 40.3721 63.1383 40.4664 63.0315L40.4783 63.0134H40.3962H40.0183H39.9328C39.735 63.004 39.5367 63.0078 39.3395 63.0249H39.3001C39.153 63.0482 39.0127 63.1008 38.888 63.1793L38.8555 63.204C38.7324 63.3098 38.6409 63.4453 38.5905 63.5965C38.5464 63.7171 38.5283 63.8451 38.5375 63.9727V63.9874C38.6691 64.2798 38.9308 64.4178 39.2215 64.5426C39.5638 64.6799 39.9259 64.7663 40.2954 64.7988C40.7462 64.83 41.1988 64.83 41.6497 64.7988C41.3727 64.2847 40.439 64.3455 40.0286 64.1632Z" fill="#37474F"/>
<path d="M44.8131 62.7753C44.7994 62.5765 44.7259 62.5683 44.5857 62.5207C44.4454 62.4731 44.2796 62.7638 44.1205 62.7227C43.5665 62.8213 42.9817 62.7227 42.532 63.0282C42.273 63.2118 41.9744 63.337 41.6581 63.3945C41.1686 63.4878 40.6678 63.5149 40.1704 63.475C39.9892 63.4651 40.061 63.6392 40.1704 63.6721C40.5295 63.7657 41.4889 63.6721 41.6855 63.6376C42.2652 63.516 42.6072 63.1448 43.0535 63.204C43.4873 63.2638 43.9278 63.2638 44.3617 63.204C44.4741 63.1867 44.578 63.1361 44.659 63.0592C44.7399 62.9823 44.7938 62.883 44.8131 62.7753Z" fill="#263238"/>
<path d="M40.2354 63.5932C40.2194 63.5932 40.2039 63.5872 40.1925 63.5765C40.181 63.5658 40.1743 63.5512 40.1738 63.5358C40.1756 63.4322 40.1995 63.3302 40.2439 63.2358C40.2883 63.1415 40.3523 63.0568 40.432 62.9872C40.4436 62.9769 40.4587 62.9711 40.4744 62.971C40.4902 62.9708 40.5054 62.9763 40.5171 62.9864C40.5289 62.9964 40.5363 63.0103 40.538 63.0253C40.5396 63.0404 40.5354 63.0554 40.5261 63.0676C40.458 63.1252 40.4025 63.1953 40.3629 63.2737C40.3233 63.3521 40.3003 63.4372 40.2952 63.5243C40.2957 63.5322 40.2945 63.5402 40.2918 63.5478C40.289 63.5553 40.2847 63.5623 40.2792 63.5682C40.2736 63.5742 40.2669 63.579 40.2594 63.5825C40.2518 63.5859 40.2437 63.5879 40.2354 63.5883V63.5932Z" fill="#EBEBEB"/>
<path d="M40.6939 63.608C40.6774 63.6076 40.6617 63.601 40.6502 63.5896C40.6387 63.5783 40.6323 63.5631 40.6323 63.5472C40.6444 63.3289 40.7429 63.1233 40.9076 62.9724C40.9195 62.9611 40.9354 62.9548 40.9521 62.9548C40.9687 62.9548 40.9847 62.9611 40.9966 62.9724C41.0083 62.9837 41.0148 62.9991 41.0148 63.0151C41.0148 63.0311 41.0083 63.0464 40.9966 63.0578C40.855 63.1876 40.7685 63.3631 40.7537 63.5505C40.7529 63.5655 40.7463 63.5797 40.7353 63.5903C40.7242 63.6009 40.7095 63.6072 40.6939 63.608Z" fill="#EBEBEB"/>
<path d="M41.1777 63.608C41.1619 63.6077 41.1467 63.6019 41.1351 63.5916C41.1234 63.5813 41.1161 63.5673 41.1144 63.5522C41.0994 63.3378 41.1643 63.1253 41.2974 62.9527C41.3022 62.946 41.3083 62.9404 41.3154 62.936C41.3225 62.9317 41.3304 62.9287 41.3386 62.9274C41.3469 62.926 41.3554 62.9262 41.3636 62.928C41.3718 62.9298 41.3795 62.9332 41.3863 62.9379C41.3994 62.9474 41.4083 62.9613 41.4112 62.9769C41.414 62.9924 41.4107 63.0084 41.4017 63.0217C41.2838 63.1706 41.2267 63.3557 41.241 63.5423C41.2419 63.5584 41.2364 63.5741 41.2256 63.5864C41.2148 63.5986 41.1995 63.6064 41.1828 63.608H41.1777Z" fill="#EBEBEB"/>
<path d="M41.6634 63.5357C41.6491 63.5361 41.6352 63.5317 41.624 63.5233C41.6128 63.5149 41.605 63.5031 41.6018 63.4897C41.5811 63.3818 41.5831 63.2709 41.6078 63.1637C41.6325 63.0565 41.6793 62.9551 41.7454 62.8656C41.7495 62.8587 41.755 62.8527 41.7615 62.8479C41.768 62.8431 41.7755 62.8395 41.7835 62.8376C41.7915 62.8356 41.7998 62.8351 41.8079 62.8363C41.8161 62.8374 41.8239 62.8401 41.8309 62.8442C41.8452 62.8527 41.8554 62.8662 41.8596 62.8818C41.8637 62.8974 41.8614 62.914 41.8532 62.928C41.7948 63.0038 41.7531 63.0902 41.7308 63.182C41.7084 63.2738 41.7058 63.369 41.7232 63.4618C41.7252 63.4695 41.7256 63.4775 41.7244 63.4853C41.7232 63.4931 41.7203 63.5006 41.716 63.5073C41.7117 63.5141 41.706 63.5199 41.6993 63.5245C41.6927 63.5291 41.6851 63.5324 41.677 63.5341L41.6634 63.5357Z" fill="#EBEBEB"/>
<path d="M42.2054 63.4076C42.1945 63.4073 42.1838 63.4044 42.1743 63.3992C42.1648 63.3941 42.1567 63.3868 42.1507 63.3781C42.0977 63.2807 42.0655 63.1742 42.0561 63.0647C42.0467 62.9553 42.0603 62.8451 42.096 62.7408C42.0985 62.7331 42.1026 62.726 42.108 62.7199C42.1135 62.7138 42.1202 62.7088 42.1277 62.7053C42.1352 62.7017 42.1434 62.6997 42.1518 62.6993C42.1601 62.6989 42.1685 62.7002 42.1764 62.703C42.1844 62.7049 42.1921 62.7084 42.1988 62.7131C42.2055 62.7179 42.2111 62.7239 42.2154 62.7307C42.2197 62.7376 42.2226 62.7452 42.2238 62.7531C42.225 62.7611 42.2246 62.7691 42.2225 62.7769C42.1907 62.8658 42.178 62.96 42.1854 63.0538C42.1927 63.1476 42.2199 63.2389 42.2653 63.3222C42.2735 63.3362 42.2758 63.3528 42.2717 63.3684C42.2676 63.384 42.2573 63.3975 42.243 63.406C42.2309 63.4098 42.2179 63.4104 42.2054 63.4076Z" fill="#EBEBEB"/>
<path d="M44.6729 62.2776C44.6832 61.3857 44.6934 59.0731 44.6952 57.9036C44.6952 57.0676 44.6832 56.1166 44.6661 55.3692C44.6529 54.9658 44.6008 54.5644 44.5105 54.1702C43.3545 54.7401 42.1165 54.8272 40.8596 54.5857C40.8989 54.796 40.9485 55.0522 40.9981 55.2871C41.2957 56.6602 41.9198 59.2636 42.1404 60.3312C42.3507 61.3578 42.426 61.7224 42.5491 62.2398C42.7355 62.3055 42.9663 62.3006 42.9133 62.5683C42.8603 62.836 42.7098 62.8689 42.4653 63.0775C42.6517 62.9346 43.7256 63.0249 43.9958 63.02C44.127 63.027 44.258 63.003 44.3772 62.95C44.4965 62.897 44.6004 62.8167 44.6798 62.7161L44.6729 62.2776Z" fill="#DFCA50"/>
<path opacity="0.3" d="M44.6729 62.2776C44.6832 61.3857 44.6934 59.0731 44.6952 57.9036C44.6952 57.0676 44.6832 56.1166 44.6661 55.3692C44.6529 54.9658 44.6008 54.5644 44.5105 54.1702C43.3545 54.7401 42.1165 54.8272 40.8596 54.5857C40.8989 54.796 40.9485 55.0522 40.9981 55.2871C41.2957 56.6602 41.9198 59.2636 42.1404 60.3312C42.3507 61.3578 42.426 61.7224 42.5491 62.2398C42.7355 62.3055 42.9663 62.3006 42.9133 62.5683C42.8603 62.836 42.7098 62.8689 42.4653 63.0775C42.6517 62.9346 43.7256 63.0249 43.9958 63.02C44.127 63.027 44.258 63.003 44.3772 62.95C44.4965 62.897 44.6004 62.8167 44.6798 62.7161L44.6729 62.2776Z" fill="black"/>
<path d="M40.8545 54.5562C40.8904 54.7845 40.94 55.0095 40.9879 55.2345C42.2601 55.4481 43.4605 55.3462 44.6216 54.7845C44.5979 54.567 44.5584 54.3513 44.5036 54.139C43.3726 54.6743 42.0848 54.8215 40.8545 54.5562Z" fill="#37474F"/>
<path d="M42.1763 42.7795C43.0809 43.1786 45.6391 43.0078 47.2311 42.7335C48.8231 42.4592 49.4182 41.9122 49.4182 41.9122C49.6383 42.5987 49.8142 43.2975 49.9448 44.0048C50.0919 44.9213 50.3843 51.0412 50.3843 51.0412C50.3843 51.0412 49.3754 52.2189 46.4205 51.6046L46.0785 47.978L44.5395 51.9955C44.5395 51.9955 42.2652 52.3618 40.4509 51.3911L42.1763 42.7795Z" fill="#DFCA50"/>
<path opacity="0.3" d="M42.1763 42.7795C43.0809 43.1786 45.6391 43.0078 47.2311 42.7335C48.8231 42.4592 49.4182 41.9122 49.4182 41.9122C49.6383 42.5987 49.8142 43.2975 49.9448 44.0048C50.0919 44.9213 50.3843 51.0412 50.3843 51.0412C50.3843 51.0412 49.3754 52.2189 46.4205 51.6046L46.0785 47.978L44.5395 51.9955C44.5395 51.9955 42.2652 52.3618 40.4509 51.3911L42.1763 42.7795Z" fill="black"/>
<path opacity="0.25" d="M46.0786 47.9829L46.4514 46.2107C46.4514 46.2107 47.9784 46.0661 48.777 44.7686C48.777 44.7686 48.7616 46.0826 46.8567 46.5852L46.3864 48.3065L46.4206 51.6096L46.0786 47.9829Z" fill="black"/>
<path d="M40.8083 51.5685C40.9629 51.6346 41.121 51.6928 41.282 51.7426L42.992 42.9651C42.8372 42.9489 42.6836 42.9237 42.532 42.8895L40.8083 51.5685Z" fill="#37474F"/>
<path d="M41.6428 51.8444C41.8138 51.8839 41.966 51.9134 42.1233 51.9381L43.8333 43.0144C43.6726 43.0144 43.517 43.0061 43.3665 42.9979L41.6428 51.8444Z" fill="#37474F"/>
<path d="M48.0947 32.8506C49.5739 32.931 49.697 32.9852 50.7486 34.6113C51.8328 36.29 52.8246 37.7748 52.9716 38.1657C53.1426 38.5977 53.0999 38.89 52.4279 39.3236C51.6515 39.8279 48.5291 40.8019 48.5291 40.8019L48.2572 39.2152L50.3229 38.0392L48.3666 35.7758L48.0947 32.8506Z" fill="#B16668"/>
<path d="M48.3579 32.8243C49.2899 32.9212 49.5139 32.8883 50.1209 33.6061C50.728 34.3239 52.2772 36.8123 52.2772 36.8123C52.0376 37.148 51.7209 37.4263 51.3514 37.6257C50.982 37.825 50.5697 37.9401 50.1466 37.962L48.3579 36.0945V32.8243Z" fill="#DFCA50"/>
<path opacity="0.3" d="M48.3579 32.8243C49.2899 32.9212 49.5139 32.8883 50.1209 33.6061C50.728 34.3239 52.2772 36.8123 52.2772 36.8123C52.0376 37.148 51.7209 37.4263 51.3514 37.6257C50.982 37.825 50.5697 37.9401 50.1466 37.962L48.3579 36.0945V32.8243Z" fill="black"/>
<path d="M49.5293 38.4876L48.2639 39.2087L48.5358 40.7986L49.6199 40.4471C49.5635 39.4895 49.5379 38.9705 49.5293 38.4876Z" fill="#9A4A4D"/>
<path opacity="0.1" d="M49.242 34.5407L48.3579 36.0945L49.5429 37.328C49.5429 37.328 49.7806 35.7069 49.242 34.5407Z" fill="black"/>
<path d="M50.3226 38.0327L50.7587 38.5221L50.1277 38.1427L50.3226 38.0327Z" fill="#9A4A4D"/>
<path d="M44.2249 32.0014L44.4848 33.9527L47.1233 33.7687L46.73 31.1818L44.2249 32.0014Z" fill="#B16668"/>
<path d="M42.7013 29.2682C42.7013 29.2682 42.0994 30.1076 42.166 30.1913C42.2327 30.2751 42.6671 30.3556 42.6671 30.3556L42.7013 29.2682Z" fill="#9A4A4D"/>
<path d="M44.3033 27.0608C43.2004 27.2792 42.7831 27.6488 42.6703 29.3274C42.554 31.0832 42.8413 31.7304 43.0738 31.9669C43.2363 32.1311 44.1357 32.1607 44.5906 32.0425C45.6713 31.8569 46.4818 31.5497 47.0872 30.6693C47.8003 29.6329 47.961 28.1399 47.2052 27.5584C46.1433 26.7437 44.7513 26.9753 44.3033 27.0608Z" fill="#B16668"/>
<path d="M44.2387 32.1016L44.1891 31.7994C43.8473 31.9729 43.4545 32.0308 43.0742 31.9636C43.2025 32.095 43.7753 32.1427 44.2387 32.1016Z" fill="#9A4A4D"/>
<path d="M42.3472 27.6471C42.312 27.7484 42.312 27.8579 42.3472 27.9592C42.4007 28.0862 42.5029 28.1886 42.6327 28.2455C42.7625 28.3023 42.91 28.3092 43.0449 28.2647C43.0348 28.3279 43.0459 28.3926 43.0766 28.4493C43.1074 28.506 43.1562 28.5518 43.2159 28.5801C43.2852 28.6121 43.3612 28.6287 43.4382 28.6287C43.5151 28.6287 43.5911 28.6121 43.6605 28.5801C43.7939 28.5357 43.8315 28.5111 43.905 28.5801C43.9785 28.649 43.9597 28.8346 43.9597 28.9086C43.9597 29.0531 43.9597 29.2371 43.9597 29.4259C43.9597 29.7183 44.1547 29.94 44.2504 29.5508C44.2504 29.5508 44.4214 28.902 44.9977 28.9858C45.574 29.0695 45.6133 29.6871 45.3397 30.17C45.1687 30.464 44.7309 30.3835 44.7309 30.3835C44.706 30.6408 44.7536 30.8999 44.8688 31.1334C44.9841 31.3669 45.1627 31.5663 45.3859 31.7107C45.7142 31.7977 46.4957 31.7928 46.7744 31.5366C47.325 30.8369 47.6961 30.5297 47.9714 29.8103C48.575 28.2286 48.1099 27.5601 47.5764 27.1659C47.5473 27.1445 47.5371 26.9573 47.5251 26.9146C47.5041 26.8357 47.4761 26.7588 47.4413 26.6846C47.3812 26.5506 47.2886 26.4323 47.1711 26.3397C46.868 26.1311 46.5025 26.0227 46.1297 26.0309C45.8312 26.0588 45.5305 26.0588 45.232 26.0309C45.0366 25.9903 44.8462 25.9297 44.6642 25.8502C44.4812 25.7714 44.287 25.7194 44.088 25.6958C43.9881 25.686 43.8871 25.6954 43.7911 25.7236C43.6951 25.7518 43.6059 25.7982 43.5288 25.8601C43.4529 25.9231 43.4004 26.0081 43.3791 26.1023C43.3578 26.1965 43.369 26.2948 43.4108 26.3824C43.2222 26.3151 43.0146 26.3151 42.826 26.3824C42.7329 26.4174 42.6502 26.4737 42.5849 26.5464C42.5197 26.6191 42.4739 26.706 42.4515 26.7996C42.4316 26.8944 42.4429 26.9928 42.484 27.0812C42.5251 27.1695 42.5938 27.2433 42.6807 27.2923C42.6 27.3223 42.5279 27.37 42.47 27.4316C42.4121 27.4932 42.37 27.567 42.3472 27.6471Z" fill="#263238"/>
<path d="M49.6642 42.5889C49.4788 41.4768 49.3686 40.3542 49.3342 39.2284C49.2863 38.1115 49.2573 37.6237 49.3 36.5922C49.3633 35.0926 49.2196 34.1284 49.0726 33.7277C48.8571 33.138 48.5698 32.8506 48.3578 32.8243C48.091 32.798 47.2617 32.706 46.9607 32.66C46.8786 33.0263 44.9258 33.2136 44.3632 33.0362L43.2842 33.23C42.5763 33.4764 42.0496 34.7312 42.0051 36.6612C41.9607 38.5911 42.0513 42.0814 42.0274 43.0012C42.0274 43.0012 43.6895 43.8553 46.434 43.5761C49.1786 43.2969 49.6642 42.5889 49.6642 42.5889Z" fill="#37474F"/>
<path d="M42.0051 39.91C42.4155 39.0346 42.6071 37.9012 42.8601 36.878L41.9932 38.7898L42.0051 39.91Z" fill="#37474F"/>
<path d="M43.2792 33.2267C42.5354 33.3696 42.2173 33.3236 41.6889 33.6488C41.2289 33.933 40.9861 34.3321 40.5432 35.3816C40.179 36.2456 39.5292 38.1345 39.1479 38.9524C38.2929 39.1939 36.1707 39.4107 35.3568 39.2645C35.2008 39.2269 35.0602 39.145 34.9532 39.0296C34.6369 38.7323 34.3701 38.7356 34.0521 38.4942C33.8041 38.3069 33.6861 38.1181 33.616 38.1525C33.5459 38.187 33.4313 38.3759 33.5373 38.6239C33.6581 38.8035 33.7955 38.9723 33.9477 39.1282C33.7237 39.1578 33.1406 38.9492 32.5797 38.5977C31.8957 38.1723 31.7453 38.2839 31.8342 39.2842C31.8906 39.9117 32.4139 40.434 33.8092 40.7428C34.4522 40.8897 35.1037 40.9994 35.7603 41.0713C37.1027 41.1731 39.1273 41.2454 40.0695 41.0713C40.7074 40.9497 40.7535 40.7116 41.1639 40.1843C41.9523 39.161 42.8739 36.8878 42.8739 36.8878C43.7153 35.1763 43.5443 34.0611 43.2792 33.2267Z" fill="#B16668"/>
<path d="M43.3954 33.2053C42.7371 33.2464 41.9864 33.2858 41.3691 33.7999C40.7518 34.314 40.721 34.6491 40.3721 35.5787C40.0233 36.5084 39.4402 38.1115 39.4402 38.1115C39.4402 38.1115 39.7394 39.1627 41.8342 39.2891L43.3732 35.8399C43.3732 35.8399 43.7579 34.4668 43.3954 33.2053Z" fill="#DFCA50"/>
<path opacity="0.3" d="M43.3954 33.2053C42.7371 33.2464 41.9864 33.2858 41.3691 33.7999C40.7518 34.314 40.721 34.6491 40.3721 35.5787C40.0233 36.5084 39.4402 38.1115 39.4402 38.1115C39.4402 38.1115 39.7394 39.1627 41.8342 39.2891L43.3732 35.8399C43.3732 35.8399 43.7579 34.4668 43.3954 33.2053Z" fill="black"/>
<path d="M24.6229 42.7647C24.1099 42.5084 23.3712 41.8728 22.8804 41.2289C22.3896 40.5851 22.4768 40.2878 22.6 39.6127C22.7231 38.9376 24.3527 33.8163 24.6109 32.5303C24.8691 31.2442 24.3955 30.1076 23.9816 28.7164C23.4943 27.0739 22.8137 23.8447 22.8137 23.8447L15.7377 22.8099C15.6233 24.0912 15.5861 25.3778 15.6266 26.6632C15.6745 28.6671 15.5171 30.6709 15.5206 32.6731C15.5206 33.0378 15.5206 33.3926 15.7258 33.7161C15.9009 33.9881 16.1521 34.2073 16.4508 34.3485C16.8595 34.5489 17.4443 34.6934 17.8718 34.5341C18.4447 34.3222 18.6293 33.7851 18.785 33.2792C19.1577 32.072 19.8007 27.5551 19.8007 27.5551L21.4868 32.499C21.1316 33.1764 20.9404 33.922 20.9276 34.6803C20.9156 35.9729 20.6831 39.4977 20.5856 40.0743C20.4881 40.6508 20.1205 41.1287 20.2436 41.5903C20.3667 42.0518 21.0182 42.1405 21.2696 42.2473C21.8886 42.5052 22.0579 43.1474 22.6478 43.5202C23.2378 43.8931 24.3014 43.7452 24.7956 43.5531C25.3804 43.3215 25.1325 43.0209 24.6229 42.7647Z" fill="#FFA8A7"/>
<path d="M18.0295 34.3502C17.6328 34.7641 17.219 34.8692 15.6646 34.4766L15.5278 34.4405C14.4847 34.1629 13.4604 33.8098 12.4395 33.455C12.065 33.3269 11.6905 33.1988 11.316 33.0674C10.9416 32.936 10.6098 32.8505 10.2712 32.6962C10.1325 32.6085 9.96541 32.5723 9.80098 32.5943C9.73942 32.6107 9.6847 32.6452 9.62998 32.6649C9.60174 32.6751 9.57131 32.6783 9.54145 32.6743C9.51159 32.6702 9.48325 32.6591 9.45898 32.6419C9.5179 32.5947 9.56919 32.5394 9.61117 32.4777C9.71344 32.3027 9.79107 32.1155 9.84202 31.9209C9.90871 31.6926 9.90529 31.438 10.0455 31.2442C10.2165 31.0044 10.4952 30.9994 10.7654 31.0257C11.0869 31.0586 11.4101 31.0849 11.7316 31.1111C12.4275 31.167 13.6314 31.2639 14.589 31.3279C17.3575 31.5234 18.0295 34.3502 18.0295 34.3502Z" fill="#FFA8A7"/>
<path d="M12.4393 33.4665C13.1506 33.7096 13.8637 33.9592 14.5836 34.1727C14.334 32.9606 14.6862 31.6975 15.0351 31.4002C14.8831 31.3716 14.7295 31.3518 14.5751 31.3411C13.6175 31.277 12.4136 31.1768 11.7177 31.1243C11.3962 31.098 11.073 31.0717 10.7515 31.0389C10.4813 31.0126 10.206 31.0175 10.0316 31.2573C9.89138 31.4511 9.8948 31.7057 9.82811 31.934C9.7763 32.1252 9.6987 32.3091 9.59726 32.481C9.55528 32.5427 9.50399 32.598 9.44507 32.6452C9.46933 32.6624 9.49768 32.6735 9.52753 32.6775C9.55739 32.6815 9.58782 32.6783 9.61607 32.6682C9.67592 32.6485 9.73064 32.614 9.78707 32.5976C9.95149 32.5756 10.1186 32.6118 10.2573 32.6994C10.5993 32.8538 10.9516 32.9474 11.3021 33.0706C11.6527 33.1938 12.0648 33.3334 12.4393 33.4665Z" fill="#455A64"/>
<path d="M15.0352 31.3953C14.8832 31.3666 14.7296 31.3469 14.5752 31.3361L14.4042 31.3246C14.0126 31.8519 13.7937 33.0328 14.0228 33.9871C14.2109 34.0479 14.399 34.1103 14.5888 34.1678C14.3341 32.9556 14.6863 31.6926 15.0352 31.3953Z" fill="#DFCA50"/>
<path d="M24.6229 42.7647C24.1099 42.5084 23.3712 41.8728 22.8804 41.2289C22.3896 40.5851 22.4768 40.2878 22.5999 39.6127C22.6872 39.1331 23.5695 36.4673 24.1099 34.4142C22.8753 34.7969 21.2969 34.1169 21.0165 33.8393C20.944 34.1262 20.9033 34.4197 20.8951 34.7148C20.8455 36.0058 20.683 39.4977 20.5787 40.0743C20.4744 40.6508 20.1136 41.1287 20.2367 41.5903C20.3598 42.0518 21.0114 42.1405 21.2627 42.2473C21.8817 42.5052 22.051 43.1474 22.641 43.5202C23.2309 43.8931 24.2946 43.7452 24.7887 43.5531C25.3804 43.3215 25.1325 43.0209 24.6229 42.7647Z" fill="#455A64"/>
<path d="M22.4597 35.173C22.9392 35.2552 23.4305 35.2502 23.908 35.1583C23.9799 34.9053 24.0465 34.6556 24.1098 34.4142C22.8752 34.7969 21.2969 34.1169 21.0164 33.8393C20.9487 34.1086 20.9092 34.3837 20.8984 34.6606C21.3917 34.8998 21.9171 35.0723 22.4597 35.173Z" fill="#DFCA50"/>
<path d="M25.2694 43.3313C25.2873 43.4142 25.2808 43.5002 25.2506 43.5797C25.2204 43.6592 25.1677 43.729 25.0984 43.7813C24.5893 44.04 23.9946 44.0955 23.4432 43.9357C22.6566 43.7304 22.2462 43.4561 21.9691 43.1556C21.6826 42.8165 21.3351 42.5294 20.9431 42.308C20.6319 42.1586 20.2728 41.9992 20.1788 41.8843C20.0847 41.7693 20.1634 41.3275 20.1634 41.3275L25.2694 43.3313Z" fill="#263238"/>
<path d="M21.5672 40.0168C21.533 40.0092 21.4973 40.01 21.4635 40.0192C21.4298 40.0284 21.3989 40.0457 21.3739 40.0693C21.3546 40.1034 21.3462 40.1423 21.35 40.181C21.35 40.2319 21.35 40.2845 21.35 40.3354C21.35 40.3863 21.3637 40.4438 21.35 40.4717C21.3363 40.4997 21.2354 40.4717 21.2046 40.4389C21.1239 40.3477 21.0582 40.2453 21.0097 40.135C20.9738 40.0775 20.8524 40.0283 20.7977 39.9872C20.7196 39.9404 20.6474 39.8853 20.5822 39.8229C20.5343 39.7638 20.6232 39.7211 20.6301 39.6505C20.6004 39.648 20.5707 39.6552 20.5458 39.671C20.521 39.6868 20.5025 39.7103 20.4933 39.7375C20.4505 39.8574 20.3223 40.3584 20.2402 40.5588C20.1078 40.8533 20.0772 41.1809 20.153 41.4934C20.324 41.7677 20.6916 41.9566 21.0234 42.1307C21.4118 42.3581 21.7618 42.6411 22.0614 42.97C22.5043 43.385 23.0613 43.6699 23.667 43.7912C24.2844 43.8684 25.0077 43.7666 25.206 43.5136C25.4523 43.1983 25.3257 42.9815 24.4673 42.4526C24.2844 42.3393 24.1134 42.2013 23.9424 42.0715L23.9064 42.0436C23.6574 41.864 23.4257 41.6634 23.2139 41.4441C23.0287 41.2386 22.9015 40.9909 22.8445 40.7247C22.7932 40.5079 22.7659 40.2861 22.6958 40.0759C22.6914 40.0546 22.6814 40.0348 22.6667 40.0184C22.6325 39.9856 22.5744 39.9938 22.5265 40.0036C22.358 40.0382 22.1855 40.0514 22.0135 40.043L21.5672 40.0168Z" fill="#DFCA50"/>
<path opacity="0.4" d="M21.5672 40.0168C21.533 40.0092 21.4973 40.01 21.4635 40.0192C21.4298 40.0284 21.3989 40.0457 21.3739 40.0693C21.3546 40.1034 21.3462 40.1423 21.35 40.181C21.35 40.2319 21.35 40.2845 21.35 40.3354C21.35 40.3863 21.3637 40.4438 21.35 40.4717C21.3363 40.4997 21.2354 40.4717 21.2046 40.4389C21.1239 40.3477 21.0582 40.2453 21.0097 40.135C20.9738 40.0775 20.8524 40.0283 20.7977 39.9872C20.7196 39.9404 20.6474 39.8853 20.5822 39.8229C20.5343 39.7638 20.6232 39.7211 20.6301 39.6505C20.6004 39.648 20.5707 39.6552 20.5458 39.671C20.521 39.6868 20.5025 39.7103 20.4933 39.7375C20.4505 39.8574 20.3223 40.3584 20.2402 40.5588C20.1078 40.8533 20.0772 41.1809 20.153 41.4934C20.324 41.7677 20.6916 41.9566 21.0234 42.1307C21.4118 42.3581 21.7618 42.6411 22.0614 42.97C22.5043 43.385 23.0613 43.6699 23.667 43.7912C24.2844 43.8684 25.0077 43.7666 25.206 43.5136C25.4523 43.1983 25.3257 42.9815 24.4673 42.4526C24.2844 42.3393 24.1134 42.2013 23.9424 42.0715L23.9064 42.0436C23.6574 41.864 23.4257 41.6634 23.2139 41.4441C23.0287 41.2386 22.9015 40.9909 22.8445 40.7247C22.7932 40.5079 22.7659 40.2861 22.6958 40.0759C22.6914 40.0546 22.6814 40.0348 22.6667 40.0184C22.6325 39.9856 22.5744 39.9938 22.5265 40.0036C22.358 40.0382 22.1855 40.0514 22.0135 40.043L21.5672 40.0168Z" fill="black"/>
<path opacity="0.3" d="M22.0545 42.9601C21.9129 42.8115 21.7633 42.67 21.6064 42.5363C21.6064 42.5363 22.5948 43.3083 23.0702 43.08C23.1574 43.0406 23.2267 42.972 23.2651 42.887C23.3035 42.8021 23.3084 42.7066 23.2788 42.6185C23.2788 42.5462 24.0175 42.331 24.2946 42.336C24.3647 42.3869 24.4245 42.4279 24.4656 42.4509C25.3206 42.9798 25.4505 43.1966 25.2043 43.512C25.0059 43.7649 24.4724 43.9144 23.6738 43.8093C23.1454 43.7387 22.3896 43.3083 22.0545 42.9601Z" fill="black"/>
<path d="M23.2329 42.4C23.7715 42.6924 23.5031 42.8222 23.3526 42.7647C22.7525 42.4914 22.2127 42.11 21.7623 41.6412C21.2185 41.0975 20.8355 40.4652 20.632 40.2664C20.5467 40.1904 20.4704 40.1056 20.4045 40.0135C20.437 39.8952 20.461 39.7835 20.4798 39.7277C20.49 39.6984 20.5113 39.6738 20.5395 39.6589C20.5677 39.644 20.6007 39.6398 20.632 39.6472C20.632 39.7178 20.6166 39.8016 20.6166 39.8016C20.6625 39.8772 20.7264 39.9414 20.803 39.9888C20.8785 40.0253 20.9463 40.0748 21.003 40.135C21.0697 40.2418 21.1159 40.319 21.21 40.452C21.5468 40.9284 22.6959 42.106 23.2329 42.4Z" fill="#37474F"/>
<path d="M23.3303 42.6792C23.3225 42.6792 23.3148 42.6776 23.3078 42.6745C23.3007 42.6714 23.2944 42.6668 23.2893 42.6612C23.2839 42.6561 23.2797 42.6501 23.2768 42.6435C23.2739 42.6369 23.2725 42.6298 23.2725 42.6226C23.2725 42.6154 23.2739 42.6083 23.2768 42.6017C23.2797 42.595 23.2839 42.589 23.2893 42.584C23.4433 42.4684 23.6211 42.3856 23.811 42.3411C24.0009 42.2967 24.1984 42.2915 24.3905 42.3261C24.4053 42.3296 24.4179 42.3386 24.4258 42.351C24.4337 42.3635 24.436 42.3785 24.4324 42.3926C24.4288 42.4068 24.4194 42.419 24.4065 42.4265C24.3935 42.4341 24.3779 42.4364 24.3632 42.4329C24.1894 42.4022 24.0108 42.4069 23.8391 42.4468C23.6673 42.4867 23.5062 42.5609 23.3662 42.6645C23.3563 42.6731 23.3437 42.6783 23.3303 42.6792Z" fill="#EBEBEB"/>
<path d="M22.8752 42.3195C22.8676 42.3198 22.8599 42.3185 22.8528 42.3156C22.8458 42.3128 22.8394 42.3085 22.8342 42.3031C22.8289 42.2981 22.8246 42.292 22.8218 42.2854C22.8189 42.2788 22.8174 42.2717 22.8174 42.2645C22.8174 42.2573 22.8189 42.2502 22.8218 42.2436C22.8246 42.237 22.8289 42.2309 22.8342 42.2259C22.9878 42.1095 23.1655 42.0262 23.3555 41.9814C23.5455 41.9366 23.7432 41.9315 23.9354 41.9664C23.9501 41.9702 23.9626 41.9794 23.9702 41.992C23.9779 42.0046 23.9801 42.0196 23.9765 42.0337C23.9725 42.0474 23.9631 42.0592 23.9504 42.0665C23.9377 42.0738 23.9226 42.0762 23.9081 42.0731C23.7345 42.043 23.5564 42.048 23.385 42.0879C23.2136 42.1278 23.0528 42.2017 22.9129 42.3047C22.9025 42.3137 22.8892 42.319 22.8752 42.3195Z" fill="#EBEBEB"/>
<path d="M22.4187 41.9763C22.4025 41.9759 22.3872 41.9694 22.3759 41.9582C22.3706 41.9532 22.3664 41.9471 22.3635 41.9405C22.3606 41.9339 22.3591 41.9268 22.3591 41.9196C22.3591 41.9124 22.3606 41.9053 22.3635 41.8987C22.3664 41.8921 22.3706 41.886 22.3759 41.881C22.5295 41.7652 22.707 41.6822 22.8966 41.6377C23.0863 41.5932 23.2837 41.5883 23.4755 41.6231C23.4828 41.6248 23.4898 41.628 23.4959 41.6323C23.5019 41.6367 23.5071 41.6421 23.5109 41.6484C23.5147 41.6547 23.5172 41.6617 23.5182 41.6689C23.5191 41.6761 23.5186 41.6835 23.5165 41.6905C23.5125 41.7042 23.5032 41.7159 23.4905 41.7232C23.4777 41.7306 23.4626 41.7329 23.4481 41.7299C23.2746 41.6994 23.0963 41.7043 22.9249 41.7442C22.7535 41.7841 22.5927 41.8581 22.4529 41.9615C22.4438 41.9702 22.4316 41.9755 22.4187 41.9763Z" fill="#EBEBEB"/>
<path d="M21.9983 41.5985C21.9822 41.5981 21.9668 41.5916 21.9556 41.5804C21.9452 41.57 21.9395 41.5562 21.9395 41.5418C21.9395 41.5274 21.9452 41.5136 21.9556 41.5032C22.1368 41.339 22.7165 41.1747 23.1526 41.2749C23.1667 41.2787 23.1787 41.2877 23.1861 41.2999C23.1934 41.3121 23.1955 41.3265 23.192 41.3402C23.1884 41.3539 23.1795 41.3657 23.167 41.3731C23.1545 41.3806 23.1395 41.383 23.1252 41.38C22.7507 41.2913 22.2018 41.4392 22.0411 41.5837C22.0355 41.5891 22.0288 41.5932 22.0214 41.5957C22.014 41.5983 22.0061 41.5992 21.9983 41.5985Z" fill="#EBEBEB"/>
<path d="M21.6682 41.1665C21.6605 41.1668 21.6529 41.1655 21.6458 41.1626C21.6387 41.1598 21.6324 41.1555 21.6272 41.1501C21.6218 41.145 21.6176 41.139 21.6147 41.1324C21.6118 41.1258 21.6104 41.1187 21.6104 41.1115C21.6104 41.1043 21.6118 41.0972 21.6147 41.0906C21.6176 41.0839 21.6218 41.0779 21.6272 41.0729C21.8802 40.8396 22.4976 40.7887 22.9165 40.8889C22.931 40.8924 22.9435 40.9013 22.9512 40.9136C22.9589 40.9259 22.9612 40.9407 22.9575 40.9546C22.9539 40.9686 22.9447 40.9807 22.932 40.9884C22.9192 40.9961 22.9039 40.9987 22.8891 40.9957C22.5078 40.9037 21.9281 40.9464 21.7058 41.1599C21.6944 41.166 21.6812 41.1683 21.6682 41.1665Z" fill="#EBEBEB"/>
<path d="M15.7241 22.4814C15.6369 23.4883 15.5275 24.4524 15.5053 25.819C15.483 27.1856 15.2744 31.6187 15.2744 31.6187C15.2744 31.6187 15.6369 32.2034 17.0152 32.3841C18.4567 32.573 19.1493 32.2592 19.1493 32.2592L19.8162 27.7949L21.1671 32.3167C21.1671 32.3167 21.7468 32.4925 23.2567 31.9078C24.7666 31.323 24.7598 30.9814 24.7598 30.9814L22.6992 23.2403L15.7241 22.4814Z" fill="#455A64"/>
<path d="M17.0631 31.0504C17.0611 31.0462 17.0601 31.0418 17.0601 31.0372C17.0601 31.0327 17.0611 31.0282 17.0631 31.0241C17.0656 31.0155 17.071 31.008 17.0785 31.0027L17.3657 30.7991L17.3914 30.7826C17.4021 30.776 17.4146 30.7725 17.4273 30.7728H17.5863C17.5959 30.7728 17.605 30.7764 17.6117 30.7829C17.6185 30.7894 17.6222 30.7981 17.6222 30.8073L17.6051 31.6285C17.6052 31.633 17.6042 31.6374 17.6021 31.6414C17.6 31.6454 17.5969 31.6489 17.5932 31.6515C17.5869 31.6577 17.5783 31.6612 17.5692 31.6614H17.3982C17.3933 31.6616 17.3884 31.6606 17.384 31.6586C17.3795 31.6566 17.3756 31.6536 17.3726 31.6499C17.3693 31.647 17.3669 31.6434 17.3654 31.6394C17.3639 31.6354 17.3634 31.6311 17.364 31.6269L17.3743 31.075L17.217 31.185C17.2082 31.1882 17.1984 31.1882 17.1896 31.185C17.1803 31.1833 17.1719 31.1787 17.1657 31.1719L17.0631 31.0504Z" fill="#DFCA50"/>
<path d="M17.9779 31.4051L17.9984 31.4298C18.0063 31.4387 18.0156 31.4464 18.0258 31.4528C18.0369 31.4616 18.0497 31.4683 18.0634 31.4725C18.0804 31.4754 18.0978 31.4754 18.1147 31.4725C18.1323 31.475 18.1502 31.475 18.1677 31.4725C18.1841 31.4697 18.1994 31.4629 18.2122 31.4528C18.2255 31.4444 18.2366 31.4331 18.2447 31.4199C18.2525 31.4052 18.2566 31.3889 18.2567 31.3723C18.2573 31.3589 18.2546 31.3456 18.249 31.3333C18.2434 31.3211 18.2349 31.3103 18.2242 31.3017C18.1968 31.2814 18.1629 31.271 18.1284 31.2721C18.1171 31.2704 18.1055 31.2704 18.0942 31.2721L18.0634 31.282L18.0378 31.2918H18.0173H17.8121C17.8024 31.2908 17.7934 31.2867 17.7864 31.2803C17.783 31.2772 17.7805 31.2733 17.779 31.269C17.7775 31.2647 17.7771 31.2601 17.7779 31.2557L17.8257 30.8056C17.8273 30.797 17.8314 30.789 17.8377 30.7826C17.841 30.7794 17.845 30.7768 17.8494 30.7751C17.8539 30.7734 17.8586 30.7726 17.8634 30.7728L18.4259 30.7843C18.435 30.7844 18.4436 30.7879 18.4499 30.7941C18.4533 30.7973 18.456 30.8012 18.4577 30.8054C18.4595 30.8097 18.4603 30.8142 18.4601 30.8188V30.9518C18.4601 30.9563 18.4592 30.9608 18.4574 30.965C18.4556 30.9692 18.453 30.973 18.4496 30.9762C18.4463 30.9794 18.4423 30.982 18.438 30.9837C18.4336 30.9854 18.429 30.9863 18.4242 30.9863H18.0429L18.0309 31.098C18.0486 31.0899 18.0669 31.0833 18.0857 31.0783C18.1084 31.0756 18.1313 31.0756 18.1541 31.0783C18.2017 31.079 18.249 31.0867 18.2943 31.1013C18.335 31.1147 18.3727 31.1353 18.4054 31.1621C18.4374 31.1878 18.4626 31.2205 18.479 31.2573C18.4971 31.2977 18.5053 31.3415 18.5029 31.3854C18.5031 31.4316 18.492 31.4772 18.4704 31.5185C18.4507 31.5562 18.422 31.5888 18.3866 31.6137C18.3505 31.6408 18.3093 31.6609 18.2652 31.6729C18.2161 31.6851 18.1654 31.6906 18.1147 31.6893C18.0607 31.6886 18.0072 31.6803 17.9557 31.6647C17.9126 31.6513 17.8725 31.6301 17.8377 31.6022C17.8068 31.5788 17.7816 31.5491 17.7642 31.5152C17.7475 31.4842 17.7387 31.4499 17.7385 31.415C17.7385 31.4076 17.7416 31.4005 17.7471 31.3953C17.7538 31.3934 17.7609 31.3934 17.7676 31.3953H17.9386C17.95 31.3951 17.9613 31.3979 17.9711 31.4035L17.9779 31.4051Z" fill="#DFCA50"/>
<path d="M17.3284 22.6555L16.8804 22.6063C16.5914 24.8778 16.5384 30.1289 16.4717 32.2806C16.5726 32.3052 16.6786 32.3282 16.7949 32.3496C16.8684 30.2652 16.9949 24.9912 17.3284 22.6555Z" fill="#DFCA50"/>
<path d="M15.748 32.0046C15.8511 32.0606 15.9579 32.11 16.0678 32.1524C16.1328 30.1667 16.2576 25.0174 16.5808 22.5734L16.1345 22.5258C15.8609 24.8795 15.8113 29.9022 15.748 32.0046Z" fill="#DFCA50"/>
<path d="M19.8162 27.7949L19.9153 27.1379C19.9153 27.1379 21.4663 26.7503 21.8921 25.9882C21.8921 25.9882 21.8579 27.0443 20.401 27.5108L21.1671 32.3167L19.8162 27.7949Z" fill="#37474F"/>
<path d="M7.76922 35.3028C7.68269 35.3213 7.59245 35.3157 7.50914 35.2866C7.42582 35.2575 7.3529 35.2061 7.29897 35.1386C7.01958 34.6547 6.95074 34.0843 7.10744 33.5519C7.30751 32.7914 7.58625 32.4021 7.89405 32.1229C8.23945 31.8385 8.52902 31.4969 8.74905 31.1144C8.89953 30.8138 9.06369 30.3457 9.36294 30.2143C9.71349 30.0599 9.852 30.257 9.852 30.257L7.76922 35.3028Z" fill="#263238"/>
<path d="M10.4608 33.0328C10.1736 33.0624 9.89484 33.3104 9.51864 33.703C9.02445 34.2204 8.71665 34.6523 8.55591 34.6737C8.70795 34.2763 8.94042 33.9118 9.23991 33.6011C9.72897 33.1265 9.93246 32.9392 10.4608 33.0328Z" fill="#37474F"/>
<path d="M10.7123 32.1886C10.6978 32.1441 10.6691 32.105 10.6303 32.0769C10.5732 32.0425 10.5117 32.0155 10.4473 31.9964C10.3772 31.9655 10.314 31.922 10.2609 31.8683C10.2622 31.8636 10.2646 31.8593 10.2678 31.8556C10.2711 31.8519 10.2751 31.849 10.2797 31.847C10.4097 31.755 10.5448 31.6712 10.6764 31.5809C10.7621 31.5123 10.8405 31.4358 10.9107 31.3526C10.9346 31.3279 11.1775 31.0586 11.1792 31.0586C11.1809 31.0586 11.3998 31.0947 11.3998 31.0947C11.3998 31.0947 11.463 31.0619 11.2185 30.9305C10.9021 30.7662 10.7311 30.579 10.5345 30.4755C10.2812 30.3166 9.9815 30.24 9.67949 30.257C9.27935 30.4788 9.11349 30.8713 8.93907 31.1933C8.7091 31.5702 8.42081 31.9113 8.08407 32.205C7.65632 32.6363 7.36717 33.177 7.25129 33.7621C7.18118 34.3567 7.29918 35.0498 7.56765 35.2404C7.89939 35.4703 8.21402 35.5689 8.66375 34.7131C8.71439 34.598 8.74945 34.4771 8.76807 34.3534C8.85699 34.2319 8.95274 34.1169 9.04508 34.0003L9.07244 33.9658C9.25568 33.7231 9.46113 33.4966 9.68633 33.2891C9.81248 33.1869 9.96028 33.1124 10.1195 33.0707C10.2786 33.029 10.4454 33.0211 10.608 33.0476C10.6781 33.0575 10.7619 33.0706 10.8081 33.0214C10.8543 32.9721 10.8355 32.8965 10.8184 32.8341C10.7772 32.6966 10.7486 32.5559 10.7329 32.4136C10.7341 32.3381 10.7272 32.2627 10.7123 32.1886Z" fill="#DFCA50"/>
<path opacity="0.4" d="M10.7123 32.1886C10.6978 32.1441 10.6691 32.105 10.6303 32.0769C10.5732 32.0425 10.5117 32.0155 10.4473 31.9964C10.3772 31.9655 10.314 31.922 10.2609 31.8683C10.2622 31.8636 10.2646 31.8593 10.2678 31.8556C10.2711 31.8519 10.2751 31.849 10.2797 31.847C10.4097 31.755 10.5448 31.6712 10.6764 31.5809C10.7621 31.5123 10.8405 31.4358 10.9107 31.3526C10.9346 31.3279 11.1775 31.0586 11.1792 31.0586C11.1809 31.0586 11.3998 31.0947 11.3998 31.0947C11.3998 31.0947 11.463 31.0619 11.2185 30.9305C10.9021 30.7662 10.7311 30.579 10.5345 30.4755C10.2812 30.3166 9.9815 30.24 9.67949 30.257C9.27935 30.4788 9.11349 30.8713 8.93907 31.1933C8.7091 31.5702 8.42081 31.9113 8.08407 32.205C7.65632 32.6363 7.36717 33.177 7.25129 33.7621C7.18118 34.3567 7.29918 35.0498 7.56765 35.2404C7.89939 35.4703 8.21402 35.5689 8.66375 34.7131C8.71439 34.598 8.74945 34.4771 8.76807 34.3534C8.85699 34.2319 8.95274 34.1169 9.04508 34.0003L9.07244 33.9658C9.25568 33.7231 9.46113 33.4966 9.68633 33.2891C9.81248 33.1869 9.96028 33.1124 10.1195 33.0707C10.2786 33.029 10.4454 33.0211 10.608 33.0476C10.6781 33.0575 10.7619 33.0706 10.8081 33.0214C10.8543 32.9721 10.8355 32.8965 10.8184 32.8341C10.7772 32.6966 10.7486 32.5559 10.7329 32.4136C10.7341 32.3381 10.7272 32.2627 10.7123 32.1886Z" fill="black"/>
<path opacity="0.3" d="M7.26668 33.7671C7.19657 34.3616 7.31456 35.0548 7.58303 35.2453C7.91477 35.4753 8.22941 35.5738 8.67914 34.7181C8.7207 34.6289 8.75057 34.5351 8.76806 34.4388C8.77042 34.4183 8.77442 34.398 8.78003 34.3781C8.78088 34.3715 8.78088 34.3649 8.78003 34.3584V34.3501C8.78003 34.0824 8.54405 33.386 8.46881 33.3843C8.39357 33.3827 8.14391 33.4845 7.98659 33.1922C7.74035 32.7388 8.52524 31.778 8.52524 31.778C8.45855 31.8519 8.38844 31.9258 8.31662 31.9981C8.24651 32.0703 8.17298 32.141 8.09945 32.2083C7.67141 32.64 7.38224 33.1813 7.26668 33.7671Z" fill="black"/>
<path d="M11.2817 30.9321C11.2511 30.9292 11.2207 30.9237 11.1911 30.9157C11.0389 30.8812 10.7943 31.2146 10.6969 31.2885C10.2796 31.6055 9.97184 31.64 9.41609 32.1722C8.86034 32.7044 8.50124 33.0197 8.32853 33.4517C8.2721 33.5979 8.41061 33.8541 8.70644 33.3318C8.95952 32.8867 10.2454 31.888 10.2454 31.8798C10.2563 31.8678 10.2684 31.8568 10.2813 31.847C10.4113 31.755 10.5464 31.6712 10.6781 31.5809C10.7673 31.5165 10.8497 31.4438 10.9243 31.3641C10.9763 31.2929 11.0334 31.2254 11.0953 31.162C11.1299 31.1312 11.1684 31.1047 11.2099 31.0832L11.4117 31.0963C11.4117 31.0963 11.5108 30.9666 11.2817 30.9321Z" fill="#37474F"/>
<path d="M8.74385 34.4864H8.73188C8.72454 34.4849 8.7176 34.482 8.71146 34.4778C8.70532 34.4736 8.7001 34.4684 8.69612 34.4622C8.69214 34.4561 8.68947 34.4493 8.68827 34.4422C8.68707 34.435 8.68736 34.4278 8.68913 34.4207C8.71797 34.2531 8.70974 34.0814 8.66496 33.917C8.62017 33.7526 8.53985 33.5991 8.42921 33.4665C8.41886 33.4561 8.41309 33.4422 8.41309 33.4279C8.41309 33.4135 8.41886 33.3997 8.42921 33.3893C8.43446 33.3841 8.44071 33.3801 8.44761 33.3773C8.45451 33.3745 8.46192 33.3731 8.46939 33.3731C8.47687 33.3731 8.48428 33.3745 8.49117 33.3773C8.49807 33.3801 8.50433 33.3841 8.50958 33.3893C8.63501 33.5357 8.72594 33.7066 8.77612 33.89C8.8263 34.0735 8.83454 34.2652 8.80028 34.452C8.79571 34.4626 8.78784 34.4716 8.77774 34.4778C8.76764 34.484 8.75581 34.487 8.74385 34.4864Z" fill="#EBEBEB"/>
<path d="M9.11006 34.043H9.09809C9.09075 34.0414 9.08381 34.0385 9.07767 34.0343C9.07153 34.0302 9.06631 34.0249 9.06233 34.0188C9.05835 34.0126 9.05568 34.0058 9.05448 33.9987C9.05328 33.9916 9.05357 33.9843 9.05534 33.9773C9.08369 33.8101 9.0752 33.6391 9.03043 33.4753C8.98566 33.3115 8.9056 33.1585 8.79542 33.0263C8.78507 33.0159 8.7793 33.0021 8.7793 32.9877C8.7793 32.9733 8.78507 32.9595 8.79542 32.9491C8.80067 32.944 8.80693 32.9399 8.81382 32.9371C8.82072 32.9344 8.82813 32.9329 8.83561 32.9329C8.84308 32.9329 8.85049 32.9344 8.85739 32.9371C8.86428 32.9399 8.87054 32.944 8.87579 32.9491C8.99999 33.0941 9.09073 33.2628 9.14202 33.444C9.19332 33.6252 9.20399 33.8148 9.17333 34.0003C9.16975 34.0134 9.16142 34.0249 9.14984 34.0328C9.13826 34.0406 9.12416 34.0442 9.11006 34.043Z" fill="#EBEBEB"/>
<path d="M9.46064 33.5962H9.44696C9.43237 33.5927 9.41976 33.5839 9.41179 33.5717C9.40382 33.5594 9.4011 33.5447 9.40421 33.5305C9.43219 33.3632 9.42368 33.1922 9.37923 33.0282C9.33479 32.8642 9.25536 32.7108 9.146 32.5779C9.14045 32.573 9.13603 32.567 9.13301 32.5603C9.12998 32.5537 9.12842 32.5465 9.12842 32.5393C9.12842 32.532 9.12998 32.5249 9.13301 32.5182C9.13603 32.5116 9.14045 32.5056 9.146 32.5007C9.15682 32.4907 9.17121 32.4852 9.18618 32.4852C9.20115 32.4852 9.21555 32.4907 9.22637 32.5007C9.35031 32.6463 9.44026 32.8159 9.49011 32.9978C9.53997 33.1797 9.54858 33.3698 9.51536 33.5552C9.51259 33.567 9.50563 33.5776 9.49565 33.5851C9.48567 33.5926 9.4733 33.5965 9.46064 33.5962Z" fill="#EBEBEB"/>
<path d="M9.81791 33.2759H9.80423C9.79689 33.2744 9.78995 33.2715 9.78381 33.2673C9.77767 33.2631 9.77245 33.2579 9.76847 33.2517C9.76449 33.2456 9.76182 33.2388 9.76062 33.2317C9.75942 33.2245 9.75971 33.2173 9.76148 33.2102C9.82627 32.8499 9.74422 32.4793 9.53234 32.1755C9.52148 32.165 9.51538 32.1508 9.51538 32.1361C9.51538 32.1213 9.52148 32.1071 9.53234 32.0966C9.54316 32.0867 9.55755 32.0811 9.57252 32.0811C9.58749 32.0811 9.60189 32.0867 9.61271 32.0966C9.73163 32.2604 9.81566 32.4451 9.85997 32.6402C9.90429 32.8352 9.90801 33.0368 9.87092 33.2332C9.86856 33.2451 9.86199 33.2559 9.85233 33.2637C9.84267 33.2714 9.83051 33.2758 9.81791 33.2759Z" fill="#EBEBEB"/>
<path d="M10.1992 33.1954C10.1919 33.1939 10.1849 33.191 10.1788 33.1868C10.1727 33.1826 10.1674 33.1774 10.1635 33.1712C10.1595 33.1651 10.1568 33.1583 10.1556 33.1512C10.1544 33.144 10.1547 33.1368 10.1565 33.1297C10.2437 32.7635 10.1907 32.2083 9.97179 31.9981C9.96093 31.9876 9.95483 31.9734 9.95483 31.9586C9.95483 31.9439 9.96093 31.9297 9.97179 31.9192C9.97704 31.9141 9.9833 31.91 9.9902 31.9073C9.9971 31.9045 10.0045 31.9031 10.012 31.9031C10.0195 31.9031 10.0269 31.9045 10.0338 31.9073C10.0407 31.91 10.0469 31.9141 10.0522 31.9192C10.3001 32.1574 10.3634 32.7503 10.2676 33.1527C10.2643 33.1671 10.2553 33.1796 10.2425 33.1876C10.2297 33.1955 10.2142 33.1984 10.1992 33.1954Z" fill="#EBEBEB"/>
<path d="M31.3469 21.33C30.9194 21.4138 30.1037 21.4943 29.8387 21.4516C30.0211 21.3463 30.1929 21.2247 30.3517 21.0886C30.4662 20.9539 30.5227 20.7469 30.4201 20.6303C30.3414 20.5449 30.1123 20.7584 29.9259 20.811C29.5702 20.9185 29.2242 21.0536 28.8913 21.215C28.83 21.2567 28.7604 21.2859 28.6869 21.3009C28.6134 21.3159 28.5375 21.3163 28.4638 21.3021C27.4122 21.0754 26.3879 20.7322 25.2148 20.4332C24.9703 19.5873 24.2162 17.3634 23.9939 16.6045C23.7716 15.8457 23.5869 15.4449 22.8431 15.1263C22.6533 15.0442 21.7247 15.2068 21.4922 15.3809C21.2989 16.2875 21.34 16.6473 21.5452 17.1482C21.6683 17.4504 21.8051 17.7297 22.3283 19.1011C22.6462 19.9872 23.0349 20.8482 23.4911 21.6766C23.5595 21.7998 23.6758 22.0659 24.2333 22.2055C25.3927 22.4946 27.4139 22.7656 27.9389 22.8346C28.3373 22.8871 29.5035 23.0136 30.0387 23.0349C30.9416 23.0711 31.8137 22.7064 32.101 22.1431C32.5559 21.2249 31.9283 21.2167 31.3469 21.33Z" fill="#FFA8A7"/>
<path d="M22.8156 15.0705C23.2773 15.2462 23.6005 15.4565 23.8193 15.9853C24.0382 16.5142 24.9257 19.2785 24.9257 19.2785C24.9257 19.2785 24.1836 20.4004 22.4873 20.4135L21.4288 17.1285C21.4288 17.1285 21.2338 15.3612 22.8156 15.0705Z" fill="#DFCA50"/>
<path opacity="0.15" d="M22.8156 15.0705C23.2773 15.2462 23.6005 15.4565 23.8193 15.9853C24.0382 16.5142 24.9257 19.2785 24.9257 19.2785C24.9257 19.2785 24.1836 20.4004 22.4873 20.4135L21.4288 17.1285C21.4288 17.1285 21.2338 15.3612 22.8156 15.0705Z" fill="black"/>
<path d="M22.8156 15.0705C22.8156 15.0705 21.3399 14.5547 20.1292 14.5038C19.476 14.4759 17.6463 14.6566 16.9452 14.7617C16.6254 14.8093 16.3039 16.4584 16.1398 17.6459C16.1004 17.9333 15.9483 18.8761 15.7978 20.3725C15.7242 21.0705 15.5686 23.5047 15.5088 24.4376C17.3197 25.5118 21.5861 25.6465 23.0037 24.0993C23.0037 24.0993 22.9456 21.8606 22.9849 20.6698C23.0242 19.4789 23.1816 17.9284 23.2551 17.3388C23.3662 16.3549 23.1183 15.7554 22.8156 15.0705Z" fill="#DFCA50"/>
<path d="M16.1277 17.7313C16.1106 17.843 16.0867 18.0056 16.0559 18.2241C17.9779 18.4327 21.5604 18.5608 23.1695 18.0894C23.1883 17.8972 23.2071 17.7231 23.2242 17.5786C21.6562 18.0565 18.0874 17.9366 16.1277 17.7313Z" fill="#455A64"/>
<path d="M20.1293 14.5022C19.4761 14.4742 17.6464 14.6549 16.9453 14.76C16.6717 14.8011 16.3981 16.0018 16.2219 17.0924C18.9032 17.2878 21.3964 17.3519 23.2791 16.9988C23.3099 16.2087 23.0807 15.6733 22.8157 15.0688C22.8157 15.0705 21.34 14.5531 20.1293 14.5022Z" fill="#455A64"/>
<path d="M11.3622 25.9915C11.4015 25.4987 11.3365 25.0618 11.475 24.5986C11.4927 24.6447 11.5132 24.6897 11.5366 24.7333C11.5605 24.7826 11.581 24.8351 11.6118 24.8861C11.6724 24.9873 11.7531 25.0761 11.8495 25.1472C11.9502 25.2222 12.0764 25.2585 12.2035 25.249C12.215 25.2499 12.2265 25.2479 12.2369 25.2433C12.2474 25.2387 12.2565 25.2316 12.2633 25.2228C12.2804 25.1981 12.2633 25.1669 12.2633 25.1374C12.1727 24.9313 12.099 24.7188 12.0427 24.5017C11.988 24.2553 12.0188 24.1026 11.9504 23.779C11.8683 23.393 11.6477 23.3175 11.7469 23.0021C12.0427 22.0593 12.737 20.7552 13.144 19.9717C14.2179 19.2326 15.2695 18.4934 16.2733 17.6837C16.8684 16.8378 17.2258 15.7653 16.8393 14.76C15.8578 14.8882 15.5995 14.8635 14.7873 15.6848C14.4453 16.0264 12.065 17.9843 11.593 18.4458C11.2613 18.7743 11.0082 18.8104 10.7996 19.7598C10.6286 20.5269 10.4576 21.3744 10.1583 22.7295C9.98827 23.3783 9.85978 24.0365 9.77357 24.7005C9.71543 25.3575 9.91208 26.1064 10.396 26.4661C11.157 27.0476 11.3074 26.6485 11.3622 25.9915Z" fill="#FFA8A7"/>
<path d="M16.9451 14.76C16.1038 14.76 15.808 14.5958 14.8196 15.4285C13.9389 16.1644 12.2819 17.7412 12.2819 17.7412C12.2819 17.7412 12.128 19.0552 13.7064 19.7582L16.3039 17.756C16.6727 17.3532 16.9258 16.8651 17.0383 16.3397C17.1507 15.8143 17.1186 15.2699 16.9451 14.76Z" fill="#DFCA50"/>
<path opacity="0.15" d="M16.9451 14.76C16.1038 14.76 15.808 14.5958 14.8196 15.4285C13.9389 16.1644 12.2819 17.7412 12.2819 17.7412C12.2819 17.7412 12.128 19.0552 13.7064 19.7582L16.3039 17.756C16.6727 17.3532 16.9258 16.8651 17.0383 16.3397C17.1507 15.8143 17.1186 15.2699 16.9451 14.76Z" fill="black"/>
<path d="M21.8888 8.42C21.2981 8.21979 20.6609 8.18168 20.0489 8.30995C19.7298 8.37333 19.4274 8.49794 19.1597 8.67632C18.892 8.8547 18.6646 9.08316 18.4911 9.34801C18.2695 9.67918 18.1344 10.0568 18.0972 10.4488C18.06 10.8408 18.1218 11.2357 18.2773 11.5999C18.5526 12.3193 18.7681 12.7053 18.8758 12.9434C18.9548 13.1427 19.0177 13.3475 19.0639 13.5561L19.1135 12.6675L19.6265 12.1304C19.6265 12.1304 19.7325 12.0893 19.9275 11.3617C20.0519 11.615 20.2348 11.8378 20.4622 12.0132C20.6896 12.1886 20.9556 12.312 21.24 12.3741C21.5243 12.4361 21.8197 12.4352 22.1037 12.3713C22.3876 12.3075 22.6527 12.1824 22.8789 12.0056C22.9556 11.9584 23.0267 11.9033 23.091 11.8413C23.1512 11.7306 23.1928 11.6114 23.2141 11.4882C23.2982 11.2237 23.3555 10.9519 23.3851 10.6768C23.4413 10.2422 23.3653 9.80119 23.1662 9.40714C22.8778 8.95777 22.4388 8.61603 21.9213 8.43807L21.8888 8.42Z" fill="#263238"/>
<path d="M19.5068 11.7083C19.5009 11.7162 19.4946 11.7239 19.488 11.7313C19.4652 11.7603 19.4354 11.7836 19.4011 11.799C19.3668 11.8145 19.3291 11.8217 19.2913 11.82C19.2483 11.8102 19.208 11.7919 19.1729 11.7661C19.1378 11.7404 19.1088 11.7078 19.0878 11.6705C19.0177 11.5736 18.963 11.4668 18.8929 11.3699C18.8429 11.2956 18.777 11.2323 18.6997 11.1843C18.6305 11.1579 18.5543 11.1538 18.4825 11.1728C18.4012 11.1879 18.3246 11.2203 18.2583 11.2678C18.1919 11.3153 18.1376 11.3766 18.0994 11.4471C17.86 11.8232 18.0858 12.3554 18.3782 12.5969C18.475 12.686 18.6005 12.7409 18.7341 12.7526C18.8678 12.7642 19.0015 12.7319 19.1135 12.6609L19.0075 14.5991C19.0075 14.5991 19.1306 15.0409 19.9924 15.4072C20.6662 15.693 21.6631 15.4285 21.0731 14.7502L21.1244 14.1096C21.4488 14.2012 21.7889 14.2296 22.1248 14.1934C22.4668 14.1408 22.7524 13.9946 22.9798 13.4986C23.3782 12.6199 23.4398 11.0792 23.1303 9.84732C23.0157 9.94587 22.7216 10.2087 21.9811 10.276C21.6908 10.2991 21.3987 10.2891 21.1108 10.2464C20.8286 10.2054 20.5636 10.1265 20.2917 10.0625C20.277 10.1981 20.2278 10.3282 20.1485 10.4414C20.0692 10.5545 19.9621 10.6472 19.8368 10.7113C19.7879 10.7286 19.744 10.7567 19.7086 10.7934C19.678 10.8465 19.6649 10.9072 19.6709 10.9675C19.6691 11.1576 19.6404 11.3466 19.5854 11.5292C19.569 11.5925 19.5424 11.6528 19.5068 11.7083Z" fill="#FFA8A7"/>
<path d="M21.1245 14.1145C21.1245 14.1145 20.4405 13.9602 20.0985 13.7171C19.8562 13.5162 19.662 13.2674 19.5291 12.9878C19.5291 12.9878 19.6043 13.5134 19.8591 13.7565C20.2592 14.1392 21.1057 14.3396 21.1057 14.3396L21.1245 14.1145Z" fill="#F28F8F"/>
<path d="M21.3604 11.6212C21.3552 11.6609 21.338 11.6982 21.3109 11.7285C21.2837 11.7588 21.2479 11.7808 21.2079 11.7917C21.1679 11.8026 21.1254 11.802 21.0857 11.7898C21.0461 11.7777 21.011 11.7547 20.9849 11.7235C20.9588 11.6924 20.9428 11.6546 20.9389 11.6148C20.935 11.575 20.9434 11.535 20.963 11.4998C20.9826 11.4645 21.0126 11.4356 21.0492 11.4166C21.0858 11.3976 21.1274 11.3893 21.1689 11.3929C21.1971 11.3958 21.2244 11.4039 21.2493 11.417C21.2742 11.43 21.2962 11.4476 21.314 11.4689C21.3318 11.4901 21.3451 11.5144 21.353 11.5406C21.361 11.5667 21.3635 11.5941 21.3604 11.6212Z" fill="#263238"/>
<path d="M21.3245 11.0463L20.8115 11.1547C20.798 11.0889 20.8115 11.0206 20.8491 10.964C20.8866 10.9074 20.9454 10.8669 21.0133 10.8509C21.0471 10.843 21.0823 10.8418 21.1167 10.8475C21.151 10.8531 21.1838 10.8655 21.213 10.8838C21.2421 10.9022 21.2671 10.926 21.2863 10.954C21.3054 10.9819 21.3185 11.0134 21.3245 11.0463Z" fill="#263238"/>
<path d="M21.1039 12.817L21.9794 13.1307C21.9327 13.2435 21.8423 13.3346 21.7272 13.3848C21.6121 13.435 21.4813 13.4405 21.3621 13.4C21.3044 13.3791 21.2518 13.3472 21.2073 13.3062C21.1628 13.2652 21.1275 13.216 21.1033 13.1615C21.0792 13.107 21.0668 13.0484 21.0669 12.9892C21.067 12.9299 21.0796 12.8714 21.1039 12.817Z" fill="#B16668"/>
<path d="M21.6564 13.4066C21.6322 13.2789 21.5564 13.1654 21.4457 13.091C21.3349 13.0165 21.1979 12.9871 21.0647 13.0091C21.0676 13.0948 21.0969 13.1777 21.149 13.2473C21.201 13.317 21.2735 13.3701 21.3571 13.4001C21.4533 13.4341 21.5586 13.4364 21.6564 13.4066Z" fill="#F28F8F"/>
<path d="M23.0994 11.1465L22.5864 11.0693C22.5897 11.0369 22.5999 11.0054 22.6164 10.9769C22.6329 10.9483 22.6553 10.9234 22.6822 10.9035C22.7091 10.8836 22.74 10.8693 22.773 10.8614C22.8059 10.8535 22.8402 10.8521 22.8737 10.8574C22.9427 10.8688 23.0045 10.905 23.0465 10.9588C23.0885 11.0126 23.1074 11.0798 23.0994 11.1465Z" fill="#263238"/>
<path d="M22.8961 11.6754C22.8909 11.7151 22.8736 11.7524 22.8465 11.7827C22.8194 11.813 22.7836 11.835 22.7436 11.8459C22.7035 11.8568 22.661 11.8562 22.6214 11.844C22.5817 11.8319 22.5467 11.8089 22.5206 11.7777C22.4945 11.7466 22.4785 11.7088 22.4746 11.669C22.4707 11.6292 22.479 11.5892 22.4987 11.554C22.5183 11.5187 22.5483 11.4898 22.5849 11.4708C22.6215 11.4518 22.6631 11.4435 22.7045 11.4471C22.7613 11.4533 22.8132 11.4807 22.8491 11.5235C22.8849 11.5662 22.9018 11.6208 22.8961 11.6754Z" fill="#263238"/>
<path d="M21.8291 12.633L22.5063 12.5082L21.812 11.4438L21.8291 12.633Z" fill="#F28F8F"/>
<path d="M61.9972 7.79074C63.2039 6.63167 63.2039 4.75243 61.9972 3.59336C60.7905 2.43428 58.834 2.43428 57.6273 3.59336C56.4206 4.75243 56.4206 6.63166 57.6273 7.79074C58.834 8.94981 60.7905 8.94982 61.9972 7.79074Z" fill="#F5F5F5"/>
<path opacity="0.1" d="M62.452 7.22899C61.939 7.93361 59.9418 8.37873 58.6695 6.79373C57.3973 5.20872 58.1326 3.38882 59.0577 2.8353C58.5627 2.95168 58.1053 3.18386 57.7264 3.51115C57.3474 3.83844 57.0586 4.25068 56.8857 4.71115C56.7128 5.17161 56.6611 5.66602 56.7353 6.15031C56.8095 6.6346 57.0073 7.09375 57.3109 7.48685C57.6146 7.87994 58.0148 8.19479 58.4759 8.40334C58.9369 8.61189 59.4445 8.70768 59.9535 8.68215C60.4624 8.65662 60.9569 8.51058 61.3928 8.25704C61.8287 8.0035 62.1926 7.65033 62.452 7.22899Z" fill="black"/>
</g>
</g>
<defs>
<clipPath id="clip0_1703_2239">
<rect width="82.125" height="79.2602" rx="4.5" fill="white"/>
</clipPath>
<clipPath id="clip1_1703_2239">
<rect width="85.5" height="82.125" fill="white" transform="translate(0.28125 -5.625)"/>
</clipPath>
</defs>
</svg>
