<svg width="83" height="80" viewBox="0 0 83 80" fill="none" xmlns="http://www.w3.org/2000/svg">
<g clip-path="url(#clip0_1703_2804)">
<g opacity="0.66">
<g clip-path="url(#clip1_1703_2804)">
<path d="M88.0702 64.4218H-1.5625V64.4663H88.0702V64.4218Z" fill="#EBEBEB"/>
<path d="M79.0891 67.3355H73.1519V67.38H79.0891V67.3355Z" fill="#EBEBEB"/>
<path d="M46.8141 66.7832H41.3967V66.8276H46.8141V66.7832Z" fill="#EBEBEB"/>
<path d="M72.9725 65.655H60.4436V65.6995H72.9725V65.655Z" fill="#EBEBEB"/>
<path d="M37.8042 65.9593H7.8418V66.0037H37.8042V65.9593Z" fill="#EBEBEB"/>
<path d="M40.5344 65.9593H39.3997V66.0037H40.5344V65.9593Z" fill="#EBEBEB"/>
<path d="M40.9235 56.3453H6.30917C6.038 56.3449 5.7781 56.2357 5.58653 56.0418C5.39495 55.848 5.28735 55.5853 5.28735 55.3113V6.15895C5.28971 5.8866 5.39835 5.62619 5.58967 5.43428C5.781 5.24238 6.03955 5.13447 6.30917 5.134H40.9235C41.195 5.134 41.4554 5.24294 41.6473 5.43686C41.8393 5.63077 41.9471 5.89377 41.9471 6.16801V55.3113C41.9471 55.5856 41.8393 55.8486 41.6473 56.0425C41.4554 56.2364 41.195 56.3453 40.9235 56.3453ZM6.30917 5.17022C6.04989 5.1707 5.80139 5.27508 5.61822 5.46045C5.43505 5.64582 5.33217 5.89704 5.33217 6.15895V55.3113C5.33217 55.5732 5.43505 55.8245 5.61822 56.0098C5.80139 56.1952 6.04989 56.2996 6.30917 56.3001H40.9235C41.183 56.2996 41.4317 56.1953 41.6151 56.0099C41.7986 55.8246 41.9019 55.5734 41.9023 55.3113V6.15895C41.9019 5.89687 41.7986 5.64566 41.6151 5.46034C41.4317 5.27502 41.183 5.1707 40.9235 5.17022H6.30917Z" fill="#EBEBEB"/>
<path d="M79.7003 56.3453H45.0842C44.8128 56.3449 44.5527 56.2358 44.3609 56.042C44.169 55.8481 44.061 55.5854 44.0605 55.3113V6.15895C44.0634 5.88644 44.1724 5.62603 44.364 5.43417C44.5556 5.24231 44.8144 5.13446 45.0842 5.134H79.7003C79.9696 5.13495 80.2277 5.24306 80.4186 5.43492C80.6096 5.62678 80.718 5.88692 80.7203 6.15895V55.3113C80.7203 55.5849 80.613 55.8474 80.4218 56.0412C80.2306 56.235 79.9712 56.3444 79.7003 56.3453ZM45.0842 5.17022C44.8247 5.1707 44.576 5.27502 44.3926 5.46034C44.2091 5.64566 44.1058 5.89687 44.1054 6.15895V55.3113C44.1058 55.5734 44.2091 55.8246 44.3926 56.0099C44.576 56.1953 44.8247 56.2996 45.0842 56.3001H79.7003C79.9598 56.2996 80.2084 56.1953 80.3919 56.0099C80.5754 55.8246 80.6786 55.5734 80.6791 55.3113V6.15895C80.6786 5.89687 80.5754 5.64566 80.3919 5.46034C80.2084 5.27502 79.9598 5.1707 79.7003 5.17022H45.0842Z" fill="#EBEBEB"/>
<path d="M29.7696 33.6425L13.9387 34.5588L11.0938 26.3157L26.9247 25.3976L29.7696 33.6425Z" fill="#F5F5F5"/>
<path d="M56.738 33.6425L72.569 34.5588L75.4139 26.3157L59.583 25.3976L56.738 33.6425Z" fill="#F5F5F5"/>
<path d="M85.1321 64.4218H1.37573L8.54635 34.6294C8.54635 32.02 77.9615 32.02 77.9615 34.6294L85.1321 64.4218Z" fill="#E6E6E6"/>
<path d="M83.5887 58.9168C56.8596 63.1173 29.6483 63.1173 2.91925 58.9168C2.82444 58.9018 2.7335 58.868 2.65162 58.8175C2.56975 58.7669 2.49854 58.7006 2.44209 58.6222C2.38564 58.5438 2.34505 58.4549 2.32265 58.3607C2.30025 58.2664 2.29647 58.1686 2.31154 58.0729C2.39878 57.5067 2.48782 56.9393 2.57864 56.3707C2.59235 56.275 2.62487 56.1831 2.67428 56.1004C2.72368 56.0176 2.78898 55.9457 2.86632 55.8888C2.94367 55.832 3.0315 55.7913 3.12463 55.7693C3.21777 55.7472 3.31434 55.7442 3.40864 55.7604C29.81 59.9073 56.6872 59.9073 83.0886 55.7604C83.1829 55.7442 83.2794 55.7472 83.3726 55.7693C83.4657 55.7913 83.5535 55.832 83.6309 55.8888C83.7082 55.9457 83.7735 56.0176 83.8229 56.1004C83.8723 56.1831 83.9048 56.275 83.9186 56.3707C84.0082 56.9375 84.0978 57.5061 84.1857 58.0729C84.2163 58.2646 84.1708 58.4608 84.059 58.6188C83.9472 58.7769 83.7782 58.8839 83.5887 58.9168Z" fill="#F5F5F5"/>
<path d="M80.7365 48.0516C55.897 51.9485 30.6108 51.9485 5.7713 48.0516C5.6765 48.0366 5.58555 48.0028 5.50367 47.9523C5.4218 47.9017 5.35059 47.8354 5.29414 47.757C5.23769 47.6786 5.19711 47.5897 5.1747 47.4955C5.1523 47.4012 5.14852 47.3034 5.16359 47.2077C5.24247 46.7127 5.32015 46.2184 5.39663 45.7246C5.41147 45.6293 5.44477 45.5379 5.49463 45.4556C5.54449 45.3734 5.60993 45.3018 5.68719 45.2451C5.76446 45.1885 5.85204 45.1477 5.94491 45.1253C6.03778 45.1028 6.13413 45.0991 6.22843 45.1143C30.7651 48.9624 55.7427 48.9624 80.2794 45.1143C80.3737 45.0991 80.4701 45.1028 80.5629 45.1253C80.6558 45.1477 80.7434 45.1885 80.8206 45.2451C80.8979 45.3018 80.9633 45.3734 81.0132 45.4556C81.0631 45.5379 81.0964 45.6293 81.1112 45.7246C81.1889 46.2184 81.2666 46.7127 81.3443 47.2077C81.3593 47.3034 81.3555 47.4012 81.3331 47.4955C81.3107 47.5897 81.2701 47.6786 81.2137 47.757C81.1572 47.8354 81.086 47.9017 81.0042 47.9523C80.9223 48.0028 80.8313 48.0366 80.7365 48.0516Z" fill="#F5F5F5"/>
<path d="M78.354 37.1864C55.093 40.8316 31.4146 40.8316 8.15364 37.1864C8.05874 37.1716 7.96766 37.138 7.88566 37.0875C7.80367 37.037 7.73237 36.9707 7.67588 36.8922C7.61939 36.8138 7.57883 36.7248 7.55652 36.6305C7.53422 36.5361 7.53062 36.4383 7.54593 36.3425C7.61166 35.9079 7.67919 35.4745 7.7485 35.0423C7.77893 34.8499 7.88351 34.6776 8.03938 34.5629C8.19524 34.4482 8.38972 34.4005 8.58029 34.4302C31.5585 38.032 54.9492 38.032 77.9274 34.4302C78.1179 34.4005 78.3124 34.4482 78.4683 34.5629C78.6241 34.6776 78.7287 34.8499 78.7592 35.0423C78.8273 35.4757 78.8948 35.9091 78.9617 36.3425C78.977 36.4383 78.9734 36.5361 78.9511 36.6305C78.9288 36.7248 78.8883 36.8138 78.8318 36.8922C78.7753 36.9707 78.704 37.037 78.622 37.0875C78.54 37.138 78.4489 37.1716 78.354 37.1864Z" fill="#F5F5F5"/>
<path d="M41.4998 72.3954C59.9448 72.3954 74.8974 71.5136 74.8974 70.4258C74.8974 69.3379 59.9448 68.4561 41.4998 68.4561C23.0549 68.4561 8.10229 69.3379 8.10229 70.4258C8.10229 71.5136 23.0549 72.3954 41.4998 72.3954Z" fill="#F5F5F5"/>
<path d="M37.4936 51.2823C32.5759 44.458 29.2049 36.4261 28.9724 33.9971L37.2146 36.0138C37.2146 36.0138 39.9292 44.4301 41.3865 49.2621C42.904 54.2855 36.3688 67.8297 36.3688 67.8297L34.3724 67.6209C36.3223 60.0136 35.4542 54.5134 37.4936 51.2823Z" fill="#7F3E3B"/>
<path d="M34.4121 66.944C34.7308 65.5868 35.5317 60.8331 35.8952 57.8456C38.5409 57.5915 40.2014 58.2023 40.2014 58.2023C40.2014 58.6442 38.0225 64.8351 36.6617 68.5065L34.4121 66.944Z" fill="#0025FF"/>
<path d="M35.8953 57.8456C35.8574 58.1605 35.8143 58.4946 35.7661 58.8443C37.1638 58.7797 38.564 58.8908 39.9346 59.1749C40.0484 58.8583 40.1371 58.5331 40.1998 58.2023C40.1998 58.2023 38.5411 57.5915 35.8953 57.8456Z" fill="#263238"/>
<path d="M36.7822 35.3787C36.7822 35.3787 37.4143 35.8206 37.4712 36.1408C38.0069 36.6489 39.204 39.9688 39.3539 41.5139C39.5037 43.059 40.5269 43.7185 40.2031 45.4237C39.2333 44.8269 34.7979 47.1915 34.7979 47.1915C33.5542 46.4294 33.3544 44.7033 32.5586 43.5654C31.7129 42.3578 30.8051 39.9114 30.3762 38.4811C29.9232 36.976 29.7251 35.932 29.7251 35.932L36.7822 35.3787Z" fill="#263238"/>
<path opacity="0.2" d="M32.6689 38.0357C32.1022 37.0404 30.6742 36.8873 30.1248 37.6041C30.1971 37.8733 30.2809 38.1633 30.3762 38.4741C30.8069 39.8992 31.7129 42.3526 32.5586 43.5619C32.6069 43.6298 32.6534 43.7011 32.6982 43.7742C33.4836 42.1769 33.6025 39.6782 32.6689 38.0357Z" fill="black"/>
<path d="M40.4117 69.2965C38.7495 68.7136 37.7642 68.3047 37.3353 67.3042C37.3353 67.3042 37.7746 67.3825 37.449 66.8257C37.1235 66.2689 36.164 65.9 35.8988 66.6673C35.8988 66.6673 34.786 66.1453 34.2176 66.6238L33.5286 68.9485C33.5179 68.9934 33.5162 69.04 33.5235 69.0856C33.5308 69.1312 33.5471 69.1749 33.5713 69.2141C33.5955 69.2533 33.6272 69.2872 33.6645 69.3139C33.7018 69.3406 33.7441 69.3595 33.7887 69.3696C34.8136 69.5697 35.4302 69.5157 36.4224 69.6949C37.5851 69.9037 38.3723 70.1717 39.7554 70.2169C40.5943 70.2378 40.7562 69.4183 40.4117 69.2965Z" fill="#263238"/>
<path d="M36.0777 69.9316L35.7315 69.8637L35.573 69.34L36.4187 69.507L36.0777 69.9316Z" fill="#263238"/>
<path d="M36.9803 70.0812L36.6358 70.0134L36.4756 69.4896L37.3231 69.6567L36.9803 70.0812Z" fill="#263238"/>
<path d="M38.0086 70.2744L37.6589 70.2465L37.4419 69.7437L38.3031 69.8133L38.0086 70.2744Z" fill="#263238"/>
<path d="M38.9853 70.3805L38.6339 70.3649L38.3997 69.8707L39.2626 69.909L38.9853 70.3805Z" fill="#263238"/>
<path d="M39.9516 70.424L39.6002 70.4083L39.3677 69.9142L40.2289 69.9525L39.9516 70.424Z" fill="#263238"/>
<path d="M34.1571 69.6636L33.8108 69.5958L33.6506 69.072L34.4981 69.2391L34.1571 69.6636Z" fill="#263238"/>
<path d="M35.1114 69.8237L34.7669 69.7558L34.6067 69.2304L35.4542 69.3974L35.1114 69.8237Z" fill="#263238"/>
<path d="M41.2661 22.0903C41.6106 22.2921 41.9551 22.5096 42.2996 22.7289C42.6441 22.9481 42.9799 23.1691 43.3124 23.3988L43.8136 23.7468L44.308 24.0948L45.264 24.7647L44.5199 24.5802C44.9212 24.5802 45.326 24.6063 45.7342 24.5802C46.1424 24.5541 46.5541 24.542 46.9675 24.4967C47.3809 24.4515 47.7943 24.3958 48.2112 24.3227C48.4179 24.2862 48.6263 24.2479 48.833 24.2061L49.4255 24.0791L49.5409 24.0548C49.721 24.0166 49.9086 24.0423 50.0722 24.1274C50.2358 24.2125 50.3653 24.352 50.4391 24.5222C50.5129 24.6925 50.5264 24.8833 50.4773 25.0624C50.4282 25.2416 50.3196 25.3982 50.1697 25.5059L49.9974 25.6277L49.8407 25.7373C49.7339 25.8087 49.6305 25.8731 49.5237 25.9392C49.3101 26.0662 49.0948 26.188 48.8743 26.2976C48.4332 26.5212 47.9781 26.7154 47.5118 26.8788C47.0429 27.0424 46.5643 27.1761 46.0787 27.279C45.5882 27.3848 45.0918 27.461 44.5922 27.5069C44.3948 27.5249 44.1962 27.4895 44.0169 27.4043L43.8446 27.3207C43.433 27.1224 43.0712 26.9397 42.7043 26.7378C42.3374 26.536 41.9809 26.3446 41.6261 26.1393C41.2712 25.934 40.9198 25.7234 40.5702 25.5094C40.2205 25.2954 39.8812 25.0744 39.5367 24.8395C39.1957 24.6008 38.9589 24.2385 38.8756 23.8279C38.7923 23.4174 38.8689 22.9902 39.0894 22.6352C39.3099 22.2803 39.6574 22.0248 40.0596 21.922C40.4618 21.8192 40.8877 21.877 41.2488 22.0833L41.2661 22.0903Z" fill="#7F3E3B"/>
<path d="M39.6467 20.5521C41.1849 21.095 43.1468 23.0212 43.7377 23.4388C44.5231 23.9921 44.3715 25.3754 43.9616 25.974C43.6412 26.4438 43.0728 26.9449 42.2666 26.7587C41.4605 26.5725 40.2685 25.8887 40.2685 25.8887C40.2685 25.8887 37.7726 19.7883 39.6467 20.5521Z" fill="#0025FF"/>
<path opacity="0.2" d="M39.6467 20.5521C41.1849 21.095 43.1468 23.0212 43.7377 23.4388C44.5231 23.9921 44.3715 25.3754 43.9616 25.974C43.6412 26.4438 43.0728 26.9449 42.2666 26.7587C41.4605 26.5725 40.2685 25.8887 40.2685 25.8887C40.2685 25.8887 37.7726 19.7883 39.6467 20.5521Z" fill="black"/>
<path d="M49.0207 24.2514L50.6295 23.578L50.8637 25.666C50.8637 25.666 49.3324 26.1027 48.969 25.318L49.0207 24.2514Z" fill="#7F3E3B"/>
<path d="M52.3125 24.2531L52.2712 25.003C52.2634 25.1478 52.2049 25.2851 52.1061 25.3903C52.0074 25.4955 51.8748 25.5618 51.732 25.5772L50.8708 25.6729L50.6296 23.578L51.7269 23.6145C51.807 23.617 51.8859 23.6355 51.9589 23.6691C52.0319 23.7026 52.0976 23.7505 52.1521 23.8099C52.2066 23.8694 52.2488 23.9391 52.2764 24.0152C52.3039 24.0913 52.3162 24.1722 52.3125 24.2531Z" fill="#7F3E3B"/>
<path d="M18.9543 41.8323C18.0448 40.7779 17.094 41.1033 16.6668 41.6357C16.0088 42.4518 15.9158 42.8015 15.3904 43.6715C14.7755 44.6894 13.9918 45.0739 13.9849 46.4729C13.9849 47.061 14.8461 47.9467 15.4714 47.155C16.0899 46.3758 16.8456 45.7187 17.7003 45.2166C18.3393 45.1731 19.2247 44.9695 18.6683 44.3814C18.6683 44.3814 19.5572 42.544 18.9543 41.8323Z" fill="#263238"/>
<path d="M16.6257 41.5087L16.8962 41.2808L17.3991 41.4861L16.736 42.0446L16.6257 41.5087Z" fill="#263238"/>
<path d="M16.0967 42.2447L16.3051 41.9576L16.8425 42.0342L16.3327 42.7389L16.0967 42.2447Z" fill="#263238"/>
<path d="M15.6265 42.9842L15.8108 42.6815L16.3516 42.711L15.9038 43.4575L15.6265 42.9842Z" fill="#263238"/>
<path d="M15.1753 43.7881L15.3579 43.4853L15.8987 43.5149L15.4509 44.2614L15.1753 43.7881Z" fill="#263238"/>
<path d="M14.7119 44.3867L14.9462 44.1222L15.4733 44.2509L14.8997 44.9017L14.7119 44.3867Z" fill="#263238"/>
<path d="M14.2625 45.0113L14.495 44.7451L15.0238 44.8721L14.4502 45.5246L14.2625 45.0113Z" fill="#263238"/>
<path d="M13.9539 45.8657L14.0744 45.5316L14.6119 45.455L14.3173 46.2728L13.9539 45.8657Z" fill="#263238"/>
<path d="M22.3408 46.0031C25.586 41.3312 25.164 36.0138 28.3127 33.9971L35.5317 35.1351C35.5317 35.1351 29.1085 47.0436 23.7756 51.7521C19.8604 55.2094 16.7892 43.414 16.7892 43.414C16.6858 42.2308 17.1698 41.8341 18.0483 41.9646C18.0483 41.9663 20.9524 43.414 22.3408 46.0031Z" fill="#7F3E3B"/>
<path d="M18.0483 41.9663C17.1698 41.8358 16.6858 42.2325 16.7892 43.4157C17.1765 44.8369 17.6546 46.2313 18.2206 47.59C17.8382 45.8291 19.5744 43.8264 20.8904 44.0821C20.0516 43.239 19.0939 42.526 18.0483 41.9663Z" fill="#0025FF"/>
<path d="M20.0273 43.2905C18.968 43.4488 17.8277 44.7138 17.6331 46.0745C17.8053 46.553 18.0017 47.0645 18.2187 47.5813C17.838 45.8222 19.5743 43.8177 20.8903 44.0735C20.6162 43.7976 20.3281 43.5363 20.0273 43.2905Z" fill="#263238"/>
<path d="M28.0544 33.9971C28.0544 33.9971 27.3826 34.3747 27.293 34.6931C26.7108 35.1472 25.195 38.3332 24.8953 39.8539C24.5956 41.3747 23.5535 41.8706 23.7085 43.6019C25.9701 43.5201 28.6934 46.057 28.6934 46.057C30.0042 45.4219 30.5417 43.6106 31.4597 42.577C32.3778 41.5435 33.7352 39.3876 34.5516 38.053C35.0497 37.2277 35.392 36.3162 35.561 35.3647L28.0544 33.9971Z" fill="#263238"/>
<path d="M28.7262 34.0302C28.4088 34.4399 28.1523 34.8942 27.9648 35.3787C27.4274 35.7528 25.8582 39.3494 25.5671 40.5708C25.276 41.7923 24.1701 42.5614 24.2821 43.6263C24.3975 43.7742 24.8764 43.896 25.3156 43.896C25.2036 42.8328 26.2819 42.0237 26.573 40.8023C26.8641 39.5808 28.4316 35.9842 28.9707 35.6084C29.1611 35.1258 29.4174 34.6724 29.7321 34.2616L28.7262 34.0302Z" fill="white"/>
<path d="M30.3607 21.4395C29.7458 27.3085 27.9802 32.9914 27.7615 34.185C35.9175 34.8636 36.8425 37.5189 38.0293 36.7237C39.6502 32.1997 41.2814 27.9019 41.9773 24.6498C42.1485 23.8478 42.0366 23.0106 41.661 22.2832C41.2854 21.5558 40.6697 20.984 39.9206 20.667C37.9897 19.8674 35.9932 19.2403 33.9539 18.793C33.5436 18.7054 33.1196 18.7059 32.7095 18.7945C32.2995 18.8832 31.9124 19.058 31.5736 19.3076C31.2347 19.5572 30.9516 19.876 30.7427 20.2432C30.5337 20.6105 30.4036 21.0181 30.3607 21.4395Z" fill="#0025FF"/>
<path d="M39.2436 20.3921C37.6563 19.7737 36.0279 19.2685 34.3707 18.88C34.335 18.9546 34.3191 19.0373 34.3245 19.1199C34.33 19.2026 34.3565 19.2824 34.4017 19.3515C34.7961 20.0475 36.1621 20.6739 37.559 21.0045C37.8519 21.0814 38.1523 21.1257 38.4547 21.1368C38.7992 21.1368 39.0352 21.0272 39.1644 20.8131C39.2374 20.6859 39.2653 20.5374 39.2436 20.3921Z" fill="white"/>
<path d="M35.6437 15.9724L38.2395 16.5275C38.4117 17.8638 38.2395 18.6851 38.5357 19.7622C38.8561 20.3833 39.3109 21.0045 37.6521 20.613C35.9296 20.2076 34.8685 19.5273 34.7893 19.2471C35.8159 18.826 35.6437 17.2635 35.6437 15.9724Z" fill="#7F3E3B"/>
<path opacity="0.2" d="M35.6077 17.8882C35.5797 18.183 35.4954 18.4696 35.3596 18.7321C36.6791 19.2019 37.5231 18.6642 38.0192 17.9004C37.2194 17.789 36.4085 17.7849 35.6077 17.8882Z" fill="black"/>
<path d="M34.4965 12.3376C33.6163 12.8926 34.152 13.9036 33.2908 14.5004C33.6275 14.5699 33.9778 14.513 34.276 14.3403C34.276 14.3403 33.997 15.1303 33.6491 15.3739C34.5671 15.5287 35.5748 15.0868 35.654 14.6622C35.7333 14.2377 35.5162 11.692 34.4965 12.3376Z" fill="#263238"/>
<path d="M38.8785 14.1489C38.9302 15.875 39.0507 16.8825 38.2687 17.836C37.0957 19.2697 34.9219 18.6607 34.3587 16.9816C33.8522 15.4696 33.8522 12.9013 35.4559 12.0783C35.8113 11.8961 36.2066 11.8078 36.6049 11.8219C37.0032 11.8359 37.3915 11.9518 37.7334 12.1586C38.0753 12.3655 38.3597 12.6566 38.56 13.0046C38.7602 13.3527 38.8698 13.7464 38.8785 14.1489Z" fill="#7F3E3B"/>
<path d="M38.5548 15.7062C37.7314 15.3165 37.6298 14.0637 38.1259 13.5417C37.6212 12.8126 34.6051 13.2598 33.2529 11.8139C34.0091 11.7425 34.8152 11.8869 35.5042 11.6573C36.1932 11.4276 36.9718 11.1039 38.1259 11.3093C39.4488 11.5459 39.8312 12.3115 39.6055 12.7778C40.6132 12.9309 40.2773 15.5879 38.5548 15.7062Z" fill="#263238"/>
<path d="M35.1528 17.2148C35.1528 17.2148 35.6696 16.9956 37.2198 16.6754C37.1372 17.1034 36.8753 17.4932 36.0899 17.6498C35.3044 17.8064 35.1528 17.2148 35.1528 17.2148Z" fill="#263238"/>
<path d="M36.412 17.2131C36.1727 17.2566 35.9371 17.3188 35.7074 17.3993C35.6617 17.4178 35.6229 17.4506 35.5966 17.4927C35.5703 17.5349 35.5578 17.5844 35.561 17.6342C35.729 17.6848 35.9071 17.6902 36.0778 17.6498C36.3769 17.6067 36.6581 17.4794 36.8891 17.2827C36.8495 17.1957 36.6324 17.1696 36.412 17.2131Z" fill="white"/>
<path d="M35.22 17.1887C35.2837 17.2635 35.3922 17.4915 35.5645 17.4863C36.0193 17.3911 36.467 17.2644 36.9046 17.1069C37.0407 17.0582 37.1027 16.839 37.1543 16.6893C36.4995 16.8134 35.8534 16.9802 35.22 17.1887Z" fill="white"/>
<path d="M39.7103 15.574C39.6752 15.7857 39.5987 15.9882 39.4855 16.1698C39.3722 16.3514 39.2244 16.5084 39.0506 16.6319C38.5821 16.9608 38.1584 16.5849 38.1291 16.0421C38.1015 15.5531 38.3117 14.7927 38.8594 14.6814C39.4072 14.57 39.7913 15.052 39.7103 15.574Z" fill="#7F3E3B"/>
<path d="M36.3533 15.1094C36.3671 15.2504 36.3034 15.3687 36.2121 15.3774C36.1208 15.3861 36.0398 15.2765 36.026 15.1373C36.0123 14.9981 36.076 14.878 36.1604 14.878C36.2448 14.878 36.3413 14.9702 36.3533 15.1094Z" fill="#263238"/>
<path d="M34.7151 15.36C34.7289 15.5009 34.6652 15.6192 34.5739 15.6279C34.4826 15.6366 34.4016 15.5287 34.3879 15.3878C34.3741 15.2469 34.4378 15.1285 34.5291 15.1216C34.6204 15.1146 34.7031 15.226 34.7151 15.36Z" fill="#263238"/>
<path d="M35.2853 15.4505C35.2853 15.4505 35.0442 16.2822 34.7324 16.7015C34.9977 16.9121 35.4059 16.7711 35.4059 16.7711L35.2853 15.4505Z" fill="#630F0F"/>
<path d="M36.4307 14.0167C36.435 14.0031 36.435 13.9885 36.4307 13.9749C36.4287 13.9643 36.4245 13.9541 36.4186 13.9451C36.4126 13.936 36.4049 13.9283 36.3959 13.9223C36.3869 13.9163 36.3768 13.9122 36.3662 13.9102C36.3557 13.9081 36.3448 13.9083 36.3343 13.9106C36.2062 13.9332 36.0854 13.9864 35.9817 14.0657C35.8781 14.145 35.7946 14.2481 35.7383 14.3664C35.7303 14.3868 35.7305 14.4094 35.7389 14.4296C35.7472 14.4498 35.7631 14.4658 35.7831 14.4743C35.8034 14.4818 35.8259 14.4812 35.8458 14.4724C35.8657 14.4637 35.8814 14.4475 35.8899 14.4273C35.937 14.3361 36.0045 14.2572 36.087 14.1968C36.1695 14.1364 36.2648 14.0962 36.3653 14.0793C36.3812 14.0769 36.396 14.0695 36.4077 14.0583C36.4194 14.0471 36.4274 14.0326 36.4307 14.0167Z" fill="#263238"/>
<path d="M33.9091 14.3316C33.9191 14.3404 33.9311 14.3466 33.944 14.3497C33.9569 14.3527 33.9704 14.3525 33.9832 14.349C34.0813 14.3191 34.1851 14.3134 34.2858 14.3325C34.3865 14.3516 34.4812 14.3948 34.5619 14.4586C34.5774 14.4738 34.5981 14.4824 34.6196 14.4824C34.6412 14.4824 34.6619 14.4738 34.6774 14.4586C34.6924 14.4431 34.7008 14.4221 34.7008 14.4004C34.7008 14.3786 34.6924 14.3577 34.6774 14.3421C34.5765 14.2602 34.4577 14.2042 34.3308 14.1787C34.2039 14.1533 34.0729 14.1592 33.9487 14.1959C33.9384 14.1987 33.9288 14.2036 33.9203 14.2102C33.9119 14.2168 33.9048 14.225 33.8995 14.2344C33.8942 14.2438 33.8908 14.2541 33.8895 14.2649C33.8882 14.2756 33.889 14.2864 33.8919 14.2968C33.8944 14.3098 33.9004 14.3218 33.9091 14.3316Z" fill="#263238"/>
<path d="M26.8847 21.6048C25.6118 22.3008 27.4721 25.2397 29.0017 24.7629C30.049 24.0269 30.4865 21.49 26.8847 21.6048Z" fill="#263238"/>
<path d="M32.8017 22.36L32.3935 22.628L31.9922 22.882C31.7234 23.0444 31.453 23.2027 31.1809 23.357C30.6314 23.6615 30.075 23.9504 29.5031 24.227C28.9313 24.5037 28.3439 24.749 27.741 24.977C27.586 25.0326 27.443 25.0883 27.2794 25.1423L26.7902 25.3041L26.2735 25.4433C26.1012 25.4833 25.9513 25.5146 25.7877 25.5477C24.5581 25.776 23.3164 25.9317 22.0688 26.014C20.8441 26.1045 19.6281 26.1515 18.3947 26.1271C18.2004 26.1233 18.014 26.0485 17.87 25.9166C17.726 25.7847 17.6341 25.6045 17.6115 25.4095C17.5888 25.2145 17.6368 25.0178 17.7466 24.8557C17.8564 24.6937 18.0205 24.5773 18.2087 24.528H18.219C19.38 24.2253 20.5548 23.9486 21.7123 23.6702C22.291 23.5258 22.8681 23.3936 23.4348 23.2422C24.0015 23.0908 24.5665 22.9481 25.1004 22.7811L25.4897 22.6558L25.8342 22.534L26.1787 22.36C26.2959 22.3061 26.4285 22.2365 26.5508 22.1756C27.0572 21.9285 27.5584 21.6536 28.0631 21.3752C28.5678 21.0968 29.0691 20.8044 29.5686 20.5052L31.0517 19.6265L31.0965 19.6004C31.4585 19.3821 31.8907 19.316 32.3005 19.4162C32.7102 19.5163 33.0647 19.7747 33.2879 20.136C33.5112 20.4972 33.5853 20.9324 33.4944 21.3483C33.4035 21.7641 33.1548 22.1273 32.8017 22.36Z" fill="#7F3E3B"/>
<path d="M19.1437 24.5837L17.3506 24.3175L17.6503 26.4908C17.6503 26.4908 19.3022 26.5325 19.4658 25.6503L19.1437 24.5837Z" fill="#7F3E3B"/>
<path d="M15.835 25.4398L16.0658 26.1845C16.1111 26.3278 16.2051 26.4502 16.3312 26.5302C16.4573 26.6101 16.6074 26.6424 16.7548 26.6213L17.6522 26.4908L17.3525 24.3175L16.257 24.6411C16.1767 24.6646 16.1019 24.704 16.037 24.7572C15.9721 24.8103 15.9184 24.876 15.8791 24.9505C15.8397 25.0249 15.8156 25.1066 15.808 25.1906C15.8004 25.2747 15.8096 25.3594 15.835 25.4398Z" fill="#7F3E3B"/>
<path d="M33.6921 18.7495C32.5311 18.4937 31.2806 18.9061 30.7328 19.1949C30.1851 19.4838 28.4471 20.8758 26.8848 21.6048C29.6063 22.2834 29.2033 24.2148 29.0017 24.7629C32.3709 23.8112 32.7499 22.9307 33.4044 22.2278C34.059 21.5248 34.6102 18.9496 33.6921 18.7495Z" fill="#0025FF"/>
<path opacity="0.2" d="M33.6921 18.7495C32.5311 18.4937 31.2806 18.9061 30.7328 19.1949C30.1851 19.4838 28.4471 20.8758 26.8848 21.6048C29.6063 22.2834 29.2033 24.2148 29.0017 24.7629C32.3709 23.8112 32.7499 22.9307 33.4044 22.2278C34.059 21.5248 34.6102 18.9496 33.6921 18.7495Z" fill="black"/>
<path d="M41.0128 25.7826C40.9284 26.4333 40.496 26.9118 40.0275 26.8509C39.559 26.79 39.2627 26.2124 39.3471 25.5616C39.4315 24.9108 39.8725 24.4323 40.3341 24.495C40.7957 24.5576 41.0972 25.1318 41.0128 25.7826Z" fill="white"/>
<path d="M36.7874 13.0667C35.1528 13.0493 34.1761 13.4825 33.3872 13.3207C34.3225 12.8631 34.6274 12.3254 35.3595 12.2245C36.0915 12.1236 36.7874 13.0667 36.7874 13.0667Z" fill="#263238"/>
<path d="M38.4358 12.9918C37.9191 13.3033 36.6651 13.1658 36.0674 13.3555C36.9648 13.5121 38.0655 13.7957 38.5598 13.5399C39.0542 13.2841 38.4358 12.9918 38.4358 12.9918Z" fill="#263238"/>
<path d="M38.7029 13.185C38.9106 13.1433 39.1113 13.0718 39.2989 12.9727C39.4632 12.8699 39.5831 12.7084 39.6348 12.5203C39.6612 12.425 39.6687 12.3254 39.6568 12.2271C39.645 12.1289 39.6141 12.034 39.5659 11.9478C39.459 11.7633 39.3049 11.6113 39.1198 11.5076C38.7235 11.2927 38.2701 11.2099 37.8244 11.271C37.5937 11.3189 37.3558 11.3189 37.1251 11.271C36.9032 11.1956 36.6978 11.0774 36.5205 10.923C36.7048 11.0627 36.9142 11.165 37.1372 11.224C37.3637 11.2522 37.5937 11.2327 37.8124 11.1666C38.2845 11.0676 38.7756 11.1231 39.2145 11.3249C39.4424 11.4353 39.6369 11.6054 39.7778 11.8173C39.9266 12.0448 39.9799 12.3227 39.9259 12.5899C39.8706 12.8617 39.7171 13.103 39.4953 13.2668C39.2821 13.4041 39.0499 13.5085 38.8063 13.5765C38.7556 13.5938 38.7001 13.59 38.6521 13.566C38.6042 13.5421 38.5676 13.4998 38.5505 13.4486C38.5333 13.3974 38.5371 13.3414 38.5608 13.2929C38.5845 13.2444 38.6264 13.2075 38.6771 13.1902H38.6926L38.7029 13.185Z" fill="#263238"/>
<path d="M35.8848 12.9118C35.8275 12.7961 35.7451 12.6949 35.6436 12.616C35.5274 12.5397 35.3965 12.4893 35.2595 12.4681C34.9561 12.4311 34.6484 12.4657 34.3604 12.569C34.2086 12.6158 34.0615 12.677 33.9211 12.7517C33.7851 12.8283 33.6438 12.9257 33.4922 12.9901C33.3411 13.0641 33.1761 13.105 33.0082 13.1101C32.8445 13.1093 32.6814 13.0889 32.5225 13.0492C32.6822 13.0727 32.8442 13.0762 33.0048 13.0597C33.1615 13.0391 33.3119 12.9845 33.4457 12.8996C33.5835 12.8196 33.7041 12.7256 33.8419 12.6212C33.9805 12.526 34.1276 12.4439 34.2811 12.3759C34.595 12.2269 34.9387 12.1537 35.2854 12.1618C35.4724 12.1699 35.6554 12.2199 35.821 12.308C35.9897 12.4071 36.1331 12.5448 36.2396 12.7099C36.2543 12.7328 36.2644 12.7583 36.2694 12.7851C36.2743 12.8119 36.2739 12.8394 36.2683 12.8661C36.2627 12.8928 36.252 12.918 36.2367 12.9405C36.2215 12.963 36.2019 12.9822 36.1793 12.997C36.1567 13.0119 36.1314 13.0221 36.1049 13.0271C36.0784 13.0321 36.0511 13.0317 36.0247 13.026C35.9983 13.0204 35.9733 13.0095 35.9511 12.9941C35.9288 12.9787 35.9098 12.959 35.8951 12.9361C35.8942 12.9304 35.8942 12.9245 35.8951 12.9187L35.8848 12.9118Z" fill="#263238"/>
<path d="M34.0591 11.2449C34.0591 11.2449 34.6223 11.8295 35.7351 11.8713L36.2277 11.4224C35.2597 11.706 34.0591 11.2449 34.0591 11.2449Z" fill="#263238"/>
<path d="M54.364 56.8364C57.2922 52.248 59.373 47.3742 59.6572 45.8222L54.2348 46.6521C54.2348 46.6521 52.545 52.502 51.7785 55.6758C50.981 58.9818 53.296 67.5078 53.296 67.5078L54.5913 67.6C54.1693 62.5314 55.7971 58.8478 54.364 56.8364Z" fill="#CE7A63"/>
<path d="M54.7634 67.948C54.7066 67.0484 54.648 63.1943 54.9701 61.2734C53.9712 60.8841 52.8812 60.7994 51.8351 61.0298C51.7869 61.3116 52.5655 65.418 53.0409 67.908L54.7634 67.948Z" fill="#263238"/>
<path d="M50.5209 68.4108C51.6113 68.0837 52.2434 67.9306 52.6361 67.3494C52.6361 67.3494 52.3485 67.3495 52.6241 67.031C52.8997 66.7126 53.8867 66.5264 53.9625 67.0467C53.9625 67.0467 54.5722 66.8431 54.8754 67.2207L55.0252 68.7867C55.0274 68.8165 55.0234 68.8465 55.0135 68.8747C55.0037 68.903 54.9882 68.9288 54.9679 68.9507C54.9477 68.9726 54.9233 68.99 54.8961 69.0019C54.8689 69.0138 54.8396 69.0199 54.8099 69.0198C54.1347 69.0198 53.7506 68.9085 53.0978 68.898C52.3347 68.8859 51.8128 69.046 50.9171 69.032C50.3762 69.0146 50.2935 68.4804 50.5209 68.4108Z" fill="#0025FF"/>
<path d="M54.5413 69.1538H54.7687L54.9341 68.8406H54.376L54.5413 69.1538Z" fill="#0025FF"/>
<path d="M53.9158 69.1347H54.1432L54.3086 68.8215H53.7505L53.9158 69.1347Z" fill="#0025FF"/>
<path d="M53.2891 69.0842H53.5165L53.6819 68.771H53.1238L53.2891 69.0842Z" fill="#0025FF"/>
<path d="M52.6639 69.1347H52.8913L53.0566 68.8215H52.4985L52.6639 69.1347Z" fill="#0025FF"/>
<path d="M52.0369 69.1538H52.2643L52.4297 68.8406H51.8716L52.0369 69.1538Z" fill="#0025FF"/>
<path d="M51.4115 69.1538H51.6388L51.8042 68.8406H51.2461L51.4115 69.1538Z" fill="#0025FF"/>
<path d="M50.7847 69.1538H51.0121L51.1775 68.8406H50.6194L50.7847 69.1538Z" fill="#0025FF"/>
<path d="M62.1993 56.5841C60.861 51.7973 60.8558 48.2965 60.0255 46.7914L55.9294 47.3134C55.9294 47.3134 57.9844 53.9375 59.0644 57.0173C60.7232 60.6244 64.4179 65.2197 64.4179 65.2197L65.5841 64.4541C63.6859 60.8941 63.5808 58.9783 62.1993 56.5841Z" fill="#CE7A63"/>
<path d="M66.2197 65.2266C65.8029 64.4802 64.1769 61.2125 63.667 59.4377C62.6579 59.5221 61.6952 59.9025 60.8972 60.5321C60.9713 60.7931 63.3087 63.9756 64.7367 65.9053L66.2197 65.2266Z" fill="#263238"/>
<path d="M63.2918 67.4852C63.6552 66.9806 64.0669 66.2672 64.1651 65.5973C64.1651 65.5973 63.7035 65.4946 63.8102 65.1135C63.917 64.7325 64.8971 64.3723 65.1745 64.7847C65.1745 64.7847 65.4897 64.0556 65.9014 64.2488L66.6231 65.4459C66.7437 65.6199 66.7953 65.94 66.4216 66.1662C66.0915 66.356 65.7884 66.5901 65.5207 66.8622C65.0177 67.3842 65.0935 67.8001 64.2099 68.0437C63.7207 68.1881 62.7991 68.169 63.2918 67.4852Z" fill="#0025FF"/>
<path d="M66.566 66.1715L66.709 66.0062L66.5901 65.6912L66.2422 66.0949L66.566 66.1715Z" fill="#0025FF"/>
<path d="M66.0822 66.476L66.2751 66.3803L66.2872 66.0444L65.8118 66.2793L66.0822 66.476Z" fill="#0025FF"/>
<path d="M65.6859 66.824L65.8633 66.7004L65.8237 66.3646L65.3896 66.6709L65.6859 66.824Z" fill="#0025FF"/>
<path d="M65.3586 67.2607L65.4826 67.0832L65.3344 66.7822L65.0278 67.219L65.3586 67.2607Z" fill="#0025FF"/>
<path d="M65.0018 67.6835L65.1465 67.52L65.0311 67.205L64.678 67.6035L65.0018 67.6835Z" fill="#0025FF"/>
<path d="M64.5438 68.0106L64.7402 67.9219L64.7643 67.5861L64.2803 67.8036L64.5438 68.0106Z" fill="#0025FF"/>
<path d="M64.0444 68.169L64.2546 68.122L64.3441 67.7984L63.8274 67.9149L64.0444 68.169Z" fill="#0025FF"/>
<path d="M63.476 68.1898L63.6913 68.1951L63.855 67.9027L63.3262 67.8888L63.476 68.1898Z" fill="#0025FF"/>
<path d="M54.55 46.2693C54.55 46.2693 54.1176 46.5182 54.0625 46.72C53.6887 47.0175 52.8568 49.5962 52.8085 50.5985C52.7603 51.6007 52.1316 52.0653 52.402 53.1545C53.4028 53.9375 55.835 54.3917 55.835 54.3917C56.6101 53.854 56.9804 52.5803 57.4541 51.8147C57.9571 51.0039 58.2706 49.243 58.4962 48.3069C58.7339 47.3203 59.0646 47.0297 59.0646 47.0297L54.55 46.2693Z" fill="#0025FF"/>
<path opacity="0.2" d="M57.7897 49.33C56.2257 50.548 56 52.676 56.3962 53.8087C56.8217 53.1928 57.111 52.375 57.4538 51.8217C57.8138 51.2388 58.0774 50.1687 58.2806 49.2639L57.7897 49.33Z" fill="black"/>
<path d="M53.8766 39.412C53.6578 39.5651 53.4339 39.7061 53.21 39.8453C52.9861 39.9845 52.7587 40.1219 52.521 40.2524C52.2833 40.3829 52.0576 40.5152 51.8217 40.6404C51.5857 40.7657 51.3514 40.8893 51.0861 41.018L50.9845 41.0667C50.966 41.0749 50.9471 41.0819 50.9277 41.0876C50.2116 41.2765 49.475 41.3741 48.7349 41.3782C48.3749 41.3782 48.0201 41.3695 47.6653 41.3399C47.3078 41.3102 46.9524 41.2597 46.6008 41.1885C46.4637 41.1858 46.3334 41.1281 46.2384 41.0283C46.1434 40.9284 46.0916 40.7945 46.0943 40.6561C46.0971 40.5177 46.1542 40.386 46.253 40.29C46.3518 40.1941 46.4844 40.1418 46.6214 40.1445H46.6507C46.9608 40.0941 47.2949 40.0436 47.6136 39.9862C47.9322 39.9288 48.2544 39.8696 48.5678 39.8C48.8813 39.7304 49.1862 39.6521 49.4842 39.5703C49.7822 39.4886 50.0664 39.3824 50.3369 39.278L50.1784 39.3476L50.7968 38.9144C51.0081 38.7647 51.2228 38.6168 51.441 38.4707C51.6563 38.3228 51.8768 38.1801 52.0955 38.0374C52.3143 37.8947 52.5382 37.7555 52.7639 37.625C52.9984 37.476 53.282 37.4271 53.5523 37.4893C53.8225 37.5515 54.0572 37.7195 54.2047 37.9565C54.3523 38.1935 54.4006 38.4799 54.3391 38.7529C54.2775 39.0259 54.1112 39.2629 53.8766 39.412Z" fill="#CF7A64"/>
<path d="M53.8093 36.628C52.8155 36.976 51.546 38.2236 51.1636 38.495C50.6572 38.8535 50.7554 39.7478 51.0189 40.1341C51.2273 40.4386 51.5942 40.7622 52.1161 40.6422C52.638 40.5221 54.7929 39.3441 54.7929 39.3441C54.7929 39.3441 55.022 36.1391 53.8093 36.628Z" fill="#0025FF"/>
<path d="M46.9761 40.1654L45.8496 40.115L46.1717 41.4426C46.1717 41.4426 47.1966 41.3625 47.2431 40.804L46.9761 40.1654Z" fill="#CE7A63"/>
<path d="M44.9796 40.9084L45.1691 41.3538C45.2062 41.4398 45.2721 41.5098 45.3553 41.5515C45.4385 41.5932 45.5336 41.6039 45.6238 41.5818L46.1716 41.4426L45.8495 40.108L45.1898 40.3794C45.1407 40.3991 45.0962 40.4287 45.0588 40.4663C45.0214 40.504 44.992 40.5489 44.9723 40.5984C44.9527 40.6479 44.9432 40.7009 44.9444 40.7541C44.9457 40.8074 44.9577 40.8599 44.9796 40.9084Z" fill="#CE7A63"/>
<path d="M60.3116 46.2189C60.3116 46.2189 60.8111 47.5221 60.7905 47.7327C61.0299 48.1468 61.3951 49.6467 61.352 50.6507C61.3089 51.6546 61.8481 52.2045 61.4037 53.2067C59.9947 52.8048 58.0224 53.9567 58.0224 53.9567C57.2955 53.3546 57.2335 52.1331 56.8167 51.3362C56.3998 50.5393 55.8056 48.9663 55.635 47.9641C55.4645 46.9619 55.3835 46.3824 55.3835 46.3824L60.3116 46.2189Z" fill="#0025FF"/>
<path opacity="0.8" d="M60.3805 52.3524C59.4349 52.3733 58.3136 52.8518 57.5574 53.3546C57.6701 53.5853 57.8277 53.7907 58.0207 53.9584C58.0207 53.9584 59.9964 52.8031 61.4037 53.2067C61.504 52.9878 61.5625 52.7516 61.576 52.5107C61.1902 52.3854 60.7852 52.3318 60.3805 52.3524Z" fill="white"/>
<path d="M59.986 37.9661C59.8413 41.7784 60.5562 45.9701 60.4046 46.4677C55.1217 46.1406 54.4809 47.2664 53.7833 47.1637C53.1597 44.117 52.9307 40.971 52.7016 38.8326C52.5844 37.7451 52.8893 36.8507 53.9383 36.5706C55.2477 36.2407 56.5831 36.027 57.9294 35.932C58.2003 35.9141 58.472 35.9542 58.7267 36.0495C58.9813 36.1448 59.2132 36.2932 59.4073 36.4851C59.6013 36.6771 59.7532 36.9081 59.8529 37.1633C59.9526 37.4185 59.998 37.692 59.986 37.9661Z" fill="#263238"/>
<path d="M57.1252 39.1197C57.1751 39.6626 56.6394 40.202 56.6394 40.202C56.6394 40.202 56.0245 39.8627 55.9745 39.3215C55.9246 38.7804 56.1795 38.6951 56.4913 38.6395C56.8031 38.5838 57.0752 38.5786 57.1252 39.1197Z" fill="white"/>
<path opacity="0.2" d="M59.986 37.9643C59.9963 37.7026 59.9545 37.4415 59.8631 37.1964C59.7716 36.9513 59.6325 36.7273 59.4538 36.5375C58.6666 38.2323 59.1782 39.6695 60.0084 40.7605C59.9671 39.8453 59.9516 38.89 59.986 37.9643Z" fill="black"/>
<path d="M54.3984 36.4644C55.4704 36.2181 56.5582 36.0483 57.6539 35.9564C57.6697 36.0076 57.6721 36.062 57.6609 36.1145C57.6498 36.1669 57.6254 36.2155 57.5902 36.2556C57.2749 36.6628 56.3431 36.9377 55.4181 37.0178C55.2235 37.0408 55.027 37.0408 54.8324 37.0178C54.744 37.0148 54.658 36.9879 54.5835 36.9399C54.5089 36.8918 54.4485 36.8243 54.4087 36.7446C54.3719 36.6555 54.3683 36.556 54.3984 36.4644Z" fill="white"/>
<path d="M57.0907 33.7866L55.196 34.406C55.2511 35.276 55.6456 35.845 54.8394 36.2905C54.6431 36.3983 54.3003 36.8507 55.3975 36.755C56.5361 36.6559 57.2785 36.32 57.3543 36.1478C57.1377 35.3809 57.0487 34.583 57.0907 33.7866Z" fill="#CE7A63"/>
<path opacity="0.2" d="M55.2801 35.0133C55.3507 35.4204 55.4075 35.7475 55.1802 36.0259C55.9656 35.9146 56.5961 35.3004 56.6564 34.8079C56.425 34.7474 56.184 34.7344 55.9476 34.7697C55.7112 34.805 55.4842 34.8878 55.2801 35.0133Z" fill="black"/>
<path d="M53.9814 30.9469C53.6076 31.589 54.3345 31.9648 54.3345 31.9648C54.3345 31.9648 53.8298 33.3707 54.1863 34.2512C54.8616 33.6891 55.0183 31.6412 55.0183 31.6412L53.9814 30.9469Z" fill="#263238"/>
<path d="M57.3473 32.8609C57.2215 33.971 57.206 34.627 56.6187 35.1647C55.7368 35.972 54.4018 35.3787 54.1951 34.2512C54.0091 33.2367 54.2451 31.5924 55.3475 31.2166C55.5915 31.1331 55.8525 31.1135 56.106 31.1597C56.3596 31.2058 56.5974 31.3162 56.7972 31.4805C56.997 31.6448 57.1523 31.8576 57.2485 32.099C57.3447 32.3405 57.3787 32.6026 57.3473 32.8609Z" fill="#CE7A63"/>
<path d="M56.8306 32.626C56.6963 33.2246 56.1726 33.9536 56.1726 33.9536C55.7423 33.8881 55.3073 33.8584 54.8722 33.8649C54.2538 33.8858 53.9575 33.7431 53.9902 34.1346C54.023 34.5261 54.2124 34.8758 54.0488 35.5266C53.8852 36.1773 55.8333 35.8485 56.6239 35.3682C56.697 35.3232 56.7562 35.2585 56.7949 35.1813C56.8335 35.1042 56.8501 35.0177 56.8427 34.9315C56.7686 33.978 56.8427 33.6874 57.0511 33.3237C57.0714 33.1981 57.062 33.0694 57.0237 32.9482C56.9854 32.8269 56.9192 32.7165 56.8306 32.626Z" fill="#263238"/>
<path d="M54.8892 33.1689C54.7671 33.4389 54.6089 33.6906 54.4189 33.9171C54.4777 33.9655 54.5463 34.0002 54.6198 34.0189C54.6933 34.0375 54.77 34.0396 54.8444 34.025L54.8892 33.1689Z" fill="#BA4D3C"/>
<path d="M57.0905 33.7866C56.4893 33.2246 56.9561 32.5982 56.839 32.1144C56.7218 31.6307 54.8478 32.4363 54.0434 31.2653C53.239 30.0943 54.8736 29.0816 55.9898 30.0699C57.3678 31.2879 58.2945 30.6581 58.105 31.7838C59.0214 32.1144 57.8811 34.2947 57.0905 33.7866Z" fill="#263238"/>
<path d="M57.9036 31.8482C57.9036 31.8482 58.4427 31.5716 58.3376 31.0861C58.7149 31.5681 58.3807 31.9439 57.9036 31.8482Z" fill="#263238"/>
<path d="M57.7985 33.844C57.6609 34.0868 57.4335 34.2645 57.1663 34.3382C56.8098 34.4321 56.7788 33.9902 56.8632 33.6422C56.939 33.3359 57.1784 33.014 57.5349 33.0697C57.8915 33.1254 57.9638 33.5412 57.7985 33.844Z" fill="#CE7A63"/>
<path d="M55.6042 33.0506C55.6042 33.141 55.5473 33.2124 55.4888 33.2089C55.4302 33.2054 55.3871 33.1289 55.3906 33.0349C55.394 32.9409 55.4474 32.8748 55.506 32.8783C55.5645 32.8818 55.6076 32.9601 55.6042 33.0506Z" fill="#263238"/>
<path d="M54.5326 33.0575C54.5326 33.148 54.4758 33.2194 54.4172 33.2159C54.3587 33.2124 54.3156 33.1358 54.319 33.0419C54.3225 32.9479 54.3759 32.8801 54.4344 32.8835C54.493 32.887 54.5361 32.974 54.5326 33.0575Z" fill="#263238"/>
<path d="M55.8314 32.3946C55.8334 32.386 55.8334 32.3771 55.8314 32.3685C55.8314 32.3615 55.83 32.3545 55.8273 32.3481C55.8246 32.3416 55.8206 32.3358 55.8157 32.3309C55.8107 32.3261 55.8048 32.3223 55.7983 32.3197C55.7918 32.3172 55.7849 32.316 55.778 32.3163C55.6938 32.3152 55.6105 32.3344 55.535 32.3722C55.4596 32.41 55.3941 32.4654 55.3439 32.5338C55.3367 32.5456 55.3342 32.5598 55.3371 32.5735C55.34 32.5871 55.348 32.5991 55.3594 32.6069C55.3714 32.6143 55.3858 32.6168 55.3995 32.6139C55.4133 32.611 55.4255 32.6029 55.4335 32.5912C55.4727 32.5362 55.5246 32.4917 55.5846 32.4614C55.6446 32.4311 55.7109 32.4159 55.778 32.4172C55.7881 32.4195 55.7987 32.4186 55.8083 32.4145C55.8178 32.4104 55.8259 32.4035 55.8314 32.3946Z" fill="#263238"/>
<path d="M54.0883 32.452C54.0961 32.4558 54.1046 32.4578 54.1133 32.4578C54.1219 32.4578 54.1305 32.4558 54.1383 32.452C54.2001 32.4284 54.2667 32.4202 54.3323 32.428C54.398 32.4359 54.4608 32.4597 54.5155 32.4972C54.5265 32.5058 54.5404 32.5097 54.5543 32.5081C54.5681 32.5065 54.5808 32.4995 54.5895 32.4885C54.5939 32.483 54.5971 32.4766 54.5989 32.4698C54.6008 32.463 54.6012 32.4559 54.6002 32.4489C54.5993 32.4419 54.5969 32.4352 54.5933 32.4291C54.5897 32.4231 54.5849 32.4178 54.5792 32.4137C54.511 32.365 54.4321 32.3337 54.3493 32.3224C54.2665 32.3112 54.1823 32.3205 54.1038 32.3493C54.095 32.3529 54.0872 32.3587 54.0813 32.3661C54.0753 32.3736 54.0714 32.3825 54.0698 32.3919C54.0683 32.4014 54.0692 32.4111 54.0724 32.4201C54.0756 32.4291 54.0811 32.4371 54.0883 32.4433V32.452Z" fill="#263238"/>
<path d="M60.1119 36.7637C60.4564 37.0108 60.751 37.2544 61.0576 37.5154C61.3642 37.7764 61.6604 38.0374 61.9498 38.3175C62.5553 38.8828 63.1088 39.5025 63.6034 40.1689L63.6482 40.2298C63.7509 40.3711 63.8064 40.5417 63.8067 40.717C63.8013 41.1666 63.7616 41.6151 63.6878 42.0585C63.6258 42.4831 63.538 42.8937 63.4467 43.3009C63.3554 43.7081 63.2469 44.11 63.1297 44.5085C63.0126 44.9069 62.8886 45.2967 62.7404 45.6917C62.7033 45.8172 62.6207 45.9241 62.5091 45.991C62.3975 46.0579 62.2651 46.0799 62.1382 46.0528C62.0113 46.0256 61.8991 45.9512 61.824 45.8443C61.7489 45.7374 61.7163 45.6059 61.7328 45.4759V45.4672C61.7552 45.0687 61.7862 44.6633 61.8155 44.2631C61.8447 43.8629 61.8723 43.4645 61.8964 43.0677C61.9205 42.671 61.9395 42.2778 61.9515 41.895C61.9639 41.5306 61.9559 41.1658 61.9274 40.8023L62.1307 41.3504C61.905 41.0998 61.6484 40.851 61.3883 40.6004C61.1282 40.3499 60.8474 40.1097 60.5701 39.8661C60.2928 39.6225 60.0034 39.3859 59.7088 39.1475L58.8476 38.4515L58.8355 38.4411C58.727 38.3571 58.6358 38.2524 58.5673 38.1328C58.4988 38.0132 58.4543 37.8812 58.4363 37.7443C58.4183 37.6074 58.4272 37.4682 58.4624 37.3347C58.4977 37.2013 58.5586 37.0761 58.6418 36.9664C58.7249 36.8568 58.8286 36.7647 58.9469 36.6955C59.0653 36.6263 59.196 36.5813 59.3315 36.5631C59.4671 36.545 59.6049 36.5539 59.737 36.5896C59.8691 36.6252 59.993 36.6867 60.1016 36.7707L60.1119 36.7637Z" fill="#CF7A64"/>
<path d="M62.0118 44.9957L61.3452 45.9701L62.6784 46.4172C62.6784 46.4172 63.1762 45.462 62.7163 45.114L62.0118 44.9957Z" fill="#CE7A63"/>
<path d="M61.5534 47.1811L62.0478 47.2577C62.1428 47.2725 62.2399 47.2528 62.3218 47.2021C62.4038 47.1515 62.4654 47.0732 62.4956 46.981L62.6782 46.4172L61.345 45.9701L61.2158 46.7043C61.2067 46.7581 61.2082 46.8131 61.2203 46.8662C61.2324 46.9193 61.2548 46.9695 61.2862 47.0139C61.3176 47.0582 61.3573 47.0958 61.4032 47.1245C61.4491 47.1532 61.5002 47.1725 61.5534 47.1811Z" fill="#CE7A63"/>
<path d="M58.2413 35.9407C59.0042 35.8525 59.7727 36.05 60.4013 36.4957C61.1213 37.0334 61.4761 37.404 62.0566 38.3662C61.8691 39.1828 61.3909 39.9012 60.713 40.3846C59.5504 39.445 58.5703 38.7386 58.2481 38.2079C57.926 37.6772 57.6435 36.0068 58.2413 35.9407Z" fill="#0025FF"/>
<path opacity="0.8" d="M52.376 52.241C52.3139 52.5434 52.3228 52.8562 52.4019 53.1545C53.4026 53.9375 55.8348 54.3917 55.8348 54.3917C56.041 54.2424 56.2199 54.0582 56.3636 53.847C55.5075 53.6174 53.2717 52.8326 52.376 52.241Z" fill="white"/>
<path d="M64.0186 60.466C63.1542 60.7123 62.3255 61.0721 61.5537 61.5361C61.6433 61.6596 61.738 61.7954 61.8379 61.9363C62.5778 61.4969 63.371 61.1565 64.1977 60.9236C64.134 60.7653 64.0737 60.6122 64.0186 60.466Z" fill="#0025FF"/>
<path d="M64.3818 61.3708C63.5998 61.6077 62.8481 61.9371 62.1426 62.3522C62.2339 62.4809 62.3303 62.6149 62.4302 62.7506C63.1097 62.359 63.8316 62.0478 64.5816 61.8232C64.511 61.6718 64.4456 61.5222 64.3818 61.3708Z" fill="#0025FF"/>
<path d="M51.9575 61.9902C51.9816 62.1381 52.0092 62.3017 52.0385 62.4757C52.9662 62.4135 53.898 62.4873 54.8048 62.6949C54.8169 62.5209 54.8307 62.3609 54.8444 62.2008C53.8975 61.9881 52.9248 61.9172 51.9575 61.9902Z" fill="#0025FF"/>
<path d="M52.1265 62.9838C52.154 63.1404 52.1833 63.3057 52.2143 63.4745C53.0657 63.428 53.9194 63.4953 54.7533 63.6746C54.7533 63.5006 54.7653 63.3422 54.7757 63.1787C53.9049 62.9963 53.0142 62.9308 52.1265 62.9838Z" fill="#0025FF"/>
<path d="M24.4338 68.7432C26.7004 66.6036 27.0382 63.2481 25.1884 61.2484C23.3386 59.2487 20.0015 59.3622 17.7349 61.5018C15.4683 63.6414 15.1304 66.9969 16.9803 68.9966C18.8301 70.9963 22.1671 70.8828 24.4338 68.7432Z" fill="white"/>
<path d="M20.3735 70.5128C19.7043 70.5268 19.0401 70.3941 18.4266 70.1237C17.8131 69.8534 17.265 69.4518 16.82 68.9468C15.9346 67.9236 15.5557 66.5612 15.7503 65.1101C16.1482 62.1521 18.8508 59.7317 21.7963 59.7317C22.4654 59.7179 23.1296 59.8507 23.743 60.1211C24.3565 60.3914 24.9047 60.7928 25.3498 61.2977C26.2352 62.3208 26.6141 63.6833 26.4195 65.1344C26.0216 68.0994 23.3086 70.5128 20.3735 70.5128ZM21.7963 59.8988C18.9438 59.8988 16.3067 62.2443 15.9208 65.1275C15.8183 65.7826 15.8576 66.4524 16.036 67.0907C16.2144 67.7291 16.5277 68.3207 16.9543 68.825C17.3833 69.3113 17.9116 69.6978 18.5028 69.958C19.094 70.2181 19.734 70.3457 20.3787 70.3318C23.2311 70.3318 25.8666 67.9863 26.2541 65.1031C26.3565 64.448 26.3172 63.7782 26.1388 63.1399C25.9603 62.5016 25.6471 61.9099 25.2206 61.4056C24.7908 60.9207 24.2622 60.5356 23.6711 60.2767C23.08 60.0178 22.4404 59.8912 21.7963 59.9057V59.8988Z" fill="#263238"/>
<path d="M21.3176 63.8868C21.3155 63.9028 21.3077 63.9175 21.2956 63.9281C21.2836 63.9386 21.2681 63.9444 21.2521 63.9443C21.2433 63.9432 21.2347 63.9403 21.227 63.9359C21.2192 63.9315 21.2124 63.9255 21.207 63.9184C21.2015 63.9112 21.1975 63.9031 21.1952 63.8944C21.1929 63.8857 21.1924 63.8766 21.1936 63.8677L21.2211 63.6606L19.633 64.722L19.8225 64.7882C19.831 64.7907 19.8389 64.795 19.8457 64.8007C19.8525 64.8064 19.8581 64.8135 19.8621 64.8215C19.8661 64.8294 19.8685 64.8382 19.8691 64.8471C19.8697 64.856 19.8685 64.865 19.8655 64.8734C19.8607 64.8868 19.8521 64.8984 19.8408 64.9067C19.8294 64.9151 19.8158 64.9199 19.8018 64.9204H19.7794L19.5159 64.8299L19.8604 66.6186L20.0378 66.382C20.0495 66.3688 20.066 66.3607 20.0835 66.3596C20.1011 66.3584 20.1184 66.3643 20.1317 66.376C20.1451 66.3876 20.1533 66.404 20.1548 66.4218C20.1562 66.4395 20.1507 66.4571 20.1394 66.4707L19.9258 66.73H21.8206L21.669 66.4707C21.6645 66.4631 21.6615 66.4546 21.6602 66.4458C21.6589 66.437 21.6594 66.428 21.6615 66.4193C21.6637 66.4107 21.6675 66.4025 21.6728 66.3954C21.6781 66.3882 21.6847 66.3822 21.6922 66.3776C21.6998 66.3731 21.7082 66.3701 21.717 66.3688C21.7257 66.3675 21.7346 66.3679 21.7431 66.3701C21.7517 66.3723 21.7597 66.3762 21.7668 66.3815C21.7739 66.3868 21.7799 66.3935 21.7844 66.4011L21.9153 66.6239L22.7249 64.8351L22.4631 64.9169H22.4441C22.4297 64.917 22.4156 64.9123 22.404 64.9035C22.3925 64.8947 22.3842 64.8823 22.3804 64.8682C22.375 64.8511 22.3764 64.8326 22.3845 64.8166C22.3926 64.8006 22.4066 64.7885 22.4234 64.7829L22.6577 64.7099L21.3469 63.6467L21.3176 63.8868Z" fill="#263238"/>
<path d="M21.3501 63.6467L22.6609 64.7133L22.8625 64.6507L21.3777 63.4414L21.3501 63.6467Z" fill="#263238"/>
<path d="M22.0253 66.8013L22.9382 64.7986C22.9406 64.7883 22.9406 64.7776 22.9382 64.7673L22.7229 64.8351L21.9116 66.6169L22.0253 66.8013Z" fill="#263238"/>
<path d="M19.7773 66.904H19.7911H21.927L21.8237 66.73H19.9289L19.7773 66.904Z" fill="#263238"/>
<path d="M19.3228 64.7621C19.3228 64.7621 19.3228 64.7725 19.3228 64.7777L19.6983 66.7839L19.8447 66.6099L19.5002 64.8212L19.3228 64.7621Z" fill="#263238"/>
<path d="M21.2451 63.4275L19.4141 64.6507L19.6242 64.722L21.2124 63.6606L21.2451 63.4275Z" fill="#263238"/>
<path d="M21.4675 61.764L21.5003 61.5239C21.5028 61.5062 21.5122 61.4902 21.5264 61.4794C21.5406 61.4687 21.5585 61.464 21.576 61.4665C21.5847 61.4676 21.593 61.4704 21.6006 61.4747C21.6081 61.4791 21.6147 61.4849 21.62 61.4919C21.6253 61.4988 21.6292 61.5068 21.6314 61.5153C21.6336 61.5238 21.6341 61.5326 21.6329 61.5413L21.6053 61.7501L23.3158 60.6069L23.2055 60.0223C22.7479 59.8867 22.2734 59.8181 21.7965 59.8187C21.3046 59.8201 20.8151 59.888 20.341 60.0206L20.0671 60.6226L21.4675 61.764Z" fill="#263238"/>
<path d="M20.0153 60.6122C20.0252 60.6272 20.0287 60.6455 20.0251 60.6631C20.0216 60.6807 20.0112 60.6962 19.9964 60.7061L19.9378 60.7444L21.4398 61.9624L21.4674 61.7588L20.067 60.6174L20.3409 60.0153C20.2668 60.0345 20.1928 60.0571 20.1204 60.0797L19.8793 60.6017C19.8785 60.6052 19.8785 60.6087 19.8793 60.6122L19.9241 60.5826C19.932 60.5784 19.9406 60.5758 19.9495 60.575C19.9584 60.5743 19.9673 60.5753 19.9758 60.578C19.9843 60.5808 19.9922 60.5852 19.999 60.5911C20.0058 60.5969 20.0113 60.6041 20.0153 60.6122Z" fill="#263238"/>
<path d="M21.6052 61.7501L21.5742 61.9815L23.4242 60.7461L23.3691 60.7009C23.3611 60.6957 23.3542 60.6889 23.349 60.6809C23.3438 60.6729 23.3404 60.6639 23.3389 60.6544C23.3374 60.645 23.3379 60.6353 23.3403 60.6261C23.3428 60.6168 23.3472 60.6082 23.3532 60.6008C23.3592 60.5933 23.3666 60.5873 23.3751 60.583C23.3836 60.5787 23.3929 60.5763 23.4024 60.5759C23.4118 60.5755 23.4213 60.5771 23.4301 60.5807C23.4389 60.5842 23.4469 60.5896 23.4535 60.5965L23.4965 60.6313L23.3949 60.0832C23.3312 60.0606 23.2692 60.0414 23.2054 60.0223L23.3157 60.6069L21.6052 61.7501Z" fill="#263238"/>
<path d="M21.2125 63.6606L21.1849 63.8677C21.1837 63.8766 21.1843 63.8857 21.1866 63.8944C21.1889 63.9031 21.1929 63.9113 21.1983 63.9184C21.2038 63.9255 21.2106 63.9315 21.2184 63.9359C21.2261 63.9403 21.2347 63.9432 21.2435 63.9443C21.2595 63.9444 21.2749 63.9386 21.287 63.9281C21.2991 63.9175 21.3069 63.9028 21.309 63.8868L21.3417 63.6467L21.3693 63.4414L21.5656 61.9815L21.5966 61.7501L21.6242 61.5413C21.6254 61.5326 21.6249 61.5238 21.6227 61.5153C21.6204 61.5068 21.6166 61.4988 21.6113 61.4919C21.606 61.4849 21.5994 61.4791 21.5918 61.4747C21.5843 61.4704 21.576 61.4676 21.5673 61.4665C21.5498 61.464 21.5319 61.4687 21.5177 61.4794C21.5035 61.4902 21.4941 61.5062 21.4915 61.5239L21.4588 61.764L21.4313 61.9676L21.2452 63.424L21.2125 63.6606Z" fill="#263238"/>
<path d="M17.8518 64.2575L17.6623 64.1913C17.6538 64.1888 17.6459 64.1845 17.6391 64.1788C17.6323 64.1731 17.6267 64.166 17.6227 64.158C17.6187 64.1501 17.6163 64.1413 17.6157 64.1324C17.6151 64.1235 17.6163 64.1145 17.6192 64.1061C17.6219 64.0974 17.6264 64.0894 17.6322 64.0825C17.638 64.0757 17.6452 64.07 17.6532 64.066C17.6612 64.0619 17.67 64.0595 17.6789 64.0589C17.6879 64.0584 17.6969 64.0596 17.7054 64.0626L17.9689 64.1531L17.6123 62.2565H17.0542C16.4082 63.0799 15.9876 64.0603 15.8347 65.0996L16.1792 65.3763L17.8518 64.2575Z" fill="#263238"/>
<path d="M16.1602 65.418C16.1777 65.4149 16.1958 65.4188 16.2106 65.4289C16.2253 65.4389 16.2357 65.4544 16.2394 65.472L16.2515 65.5381L18.0618 64.3288L17.8517 64.2575L16.1791 65.3763L15.8346 65.0996C15.8354 65.1071 15.8354 65.1147 15.8346 65.1222C15.8346 65.1849 15.8208 65.2458 15.8157 65.3067L16.1171 65.552L16.1068 65.4981C16.105 65.4893 16.105 65.4802 16.1068 65.4714C16.1085 65.4626 16.112 65.4542 16.1169 65.4468C16.1219 65.4394 16.1283 65.433 16.1357 65.4281C16.1431 65.4231 16.1514 65.4197 16.1602 65.418Z" fill="#263238"/>
<path d="M17.9688 64.1531L18.1532 64.2174C18.1532 64.2174 18.1532 64.207 18.1532 64.2018L17.7759 62.1869L17.7208 62.2234C17.7098 62.2315 17.6965 62.2358 17.6829 62.2356C17.6688 62.2351 17.6552 62.2302 17.644 62.2214C17.6328 62.2127 17.6247 62.2007 17.6207 62.187C17.6167 62.1733 17.617 62.1587 17.6217 62.1453C17.6264 62.1318 17.6351 62.1202 17.6467 62.112L17.6915 62.0807H17.1954C17.1472 62.1399 17.099 62.1973 17.0542 62.2547H17.6123L17.9688 64.1531Z" fill="#263238"/>
<path d="M19.507 64.8247L19.7706 64.9152H19.793C19.807 64.9147 19.8206 64.9099 19.8319 64.9015C19.8433 64.8932 19.8519 64.8816 19.8567 64.8682C19.8596 64.8598 19.8608 64.8508 19.8602 64.8419C19.8596 64.833 19.8573 64.8242 19.8532 64.8163C19.8492 64.8083 19.8436 64.8012 19.8368 64.7955C19.83 64.7898 19.8221 64.7855 19.8136 64.7829L19.6242 64.7168L19.414 64.6455L18.1531 64.2122L17.9688 64.1478L17.7053 64.0574C17.6968 64.0544 17.6878 64.0531 17.6789 64.0537C17.6699 64.0543 17.6612 64.0567 17.6531 64.0608C17.6451 64.0648 17.638 64.0704 17.6321 64.0773C17.6263 64.0842 17.6219 64.0922 17.6192 64.1009C17.6162 64.1093 17.615 64.1183 17.6156 64.1272C17.6162 64.1361 17.6186 64.1448 17.6226 64.1528C17.6267 64.1608 17.6322 64.1678 17.639 64.1736C17.6459 64.1793 17.6537 64.1836 17.6622 64.1861L17.8517 64.2523L18.0619 64.3236L19.3227 64.7568L19.507 64.8247Z" fill="#263238"/>
<path d="M24.4714 64.1444L24.7333 64.0626C24.7417 64.0599 24.7507 64.0589 24.7595 64.0598C24.7684 64.0606 24.777 64.0632 24.7848 64.0674C24.7927 64.0716 24.7996 64.0773 24.8052 64.0843C24.8109 64.0912 24.8151 64.0992 24.8177 64.1078C24.8203 64.1163 24.8212 64.1252 24.8204 64.134C24.8195 64.1428 24.817 64.1514 24.8128 64.1592C24.8086 64.167 24.8029 64.1738 24.7961 64.1793C24.7892 64.1849 24.7813 64.189 24.7729 64.1913L24.5403 64.2662L25.9046 65.3763L26.3386 65.0857C26.4735 64.118 26.3156 63.1318 25.8856 62.2565H25.3327L24.4714 64.1444Z" fill="#263238"/>
<path d="M25.3292 62.206C25.3231 62.2141 25.3153 62.2206 25.3063 62.2251C25.2974 62.2297 25.2875 62.232 25.2775 62.2321C25.2618 62.232 25.2466 62.2265 25.2344 62.2164L25.1776 62.1712L24.2629 64.1774C24.2613 64.1878 24.2613 64.1984 24.2629 64.2088L24.4782 64.1409L25.3395 62.253H25.8924C25.8614 62.1921 25.8304 62.1347 25.7977 62.079H25.2809L25.324 62.1138C25.3304 62.1194 25.3357 62.1263 25.3394 62.1341C25.3432 62.1418 25.3454 62.1502 25.3459 62.1588C25.3464 62.1674 25.3451 62.176 25.3423 62.1841C25.3394 62.1922 25.3349 62.1997 25.3292 62.206Z" fill="#263238"/>
<path d="M26.3421 65.1222C26.3412 65.1101 26.3412 65.0979 26.3421 65.0857L25.908 65.3763L24.5438 64.2662L24.344 64.3288L25.8116 65.5242L25.8408 65.4563C25.8487 65.4402 25.8624 65.4278 25.8791 65.4216C25.8957 65.4154 25.9141 65.416 25.9304 65.4233C25.9385 65.427 25.9457 65.4323 25.9517 65.4389C25.9577 65.4455 25.9624 65.4532 25.9654 65.4616C25.9685 65.47 25.9698 65.479 25.9694 65.4879C25.9691 65.4968 25.9669 65.5056 25.9631 65.5137L25.9425 65.5607H25.9511L26.3059 65.3223C26.3145 65.2545 26.3249 65.1884 26.3421 65.1222Z" fill="#263238"/>
<path d="M24.8175 64.1078C24.8149 64.0992 24.8107 64.0912 24.8051 64.0843C24.7994 64.0773 24.7925 64.0716 24.7846 64.0674C24.7768 64.0632 24.7682 64.0606 24.7593 64.0598C24.7505 64.0589 24.7416 64.0599 24.7331 64.0626L24.4713 64.1444L24.2559 64.2122L22.8624 64.6507L22.6626 64.7133L22.4284 64.7864C22.4115 64.792 22.3975 64.8041 22.3894 64.8201C22.3813 64.8361 22.3799 64.8546 22.3853 64.8717C22.3891 64.8858 22.3974 64.8982 22.409 64.907C22.4205 64.9158 22.4346 64.9205 22.449 64.9204H22.468L22.7298 64.8386L22.9451 64.7708L24.3403 64.3323L24.5401 64.2696L24.7727 64.1948C24.7815 64.1925 24.7898 64.1883 24.7969 64.1825C24.8041 64.1768 24.81 64.1696 24.8142 64.1614C24.8184 64.1532 24.8209 64.1442 24.8214 64.1349C24.822 64.1257 24.8207 64.1165 24.8175 64.1078Z" fill="#263238"/>
<path d="M22.7453 68.0315L22.8969 68.296C22.9015 68.3036 22.9045 68.3121 22.9058 68.3209C22.9071 68.3297 22.9065 68.3387 22.9043 68.3473C22.902 68.3559 22.8981 68.364 22.8927 68.371C22.8873 68.378 22.8805 68.3839 22.8728 68.3882C22.8631 68.3948 22.8517 68.3985 22.8401 68.3987C22.8283 68.3988 22.8167 68.3958 22.8064 68.39C22.7961 68.3842 22.7875 68.3758 22.7815 68.3656L22.6523 68.1429L21.8169 69.9716L22.0529 70.163C23.0965 69.8249 24.0346 69.2173 24.7744 68.4004L24.7055 68.0367L22.7453 68.0315Z" fill="#263238"/>
<path d="M24.778 68.0106C24.769 68.013 24.7595 68.013 24.7504 68.0106C24.7346 68.0031 24.7223 67.9896 24.7162 67.973C24.7101 67.9564 24.7106 67.9381 24.7177 67.9219L24.7453 67.861H22.6421L22.7454 68.035H24.7056L24.7745 68.3987C24.8245 68.3447 24.8727 68.289 24.921 68.2334L24.8641 67.9289L24.8417 67.9793C24.8348 67.9897 24.8252 67.9981 24.814 68.0036C24.8028 68.0091 24.7904 68.0116 24.778 68.0106Z" fill="#263238"/>
<path d="M22.6524 68.1377L22.5525 67.948L21.6533 69.9194H21.7188C21.7366 69.9194 21.7537 69.9266 21.7663 69.9393C21.7789 69.952 21.786 69.9693 21.786 69.9873C21.7862 69.9963 21.7846 70.0052 21.7813 70.0135C21.778 70.0219 21.7731 70.0294 21.7668 70.0358C21.7605 70.0421 21.753 70.0471 21.7448 70.0505C21.7365 70.0538 21.7277 70.0554 21.7188 70.0551H21.6637L21.8583 70.2135C21.9255 70.1943 21.9944 70.1752 22.0616 70.1526L21.8256 69.9612L22.6524 68.1377Z" fill="#263238"/>
<path d="M21.9187 66.6169L21.7878 66.3942C21.7832 66.3865 21.7773 66.3798 21.7702 66.3745C21.7631 66.3692 21.755 66.3653 21.7465 66.3631C21.7379 66.361 21.729 66.3605 21.7203 66.3618C21.7116 66.3631 21.7032 66.3661 21.6956 66.3707C21.688 66.3753 21.6814 66.3813 21.6761 66.3884C21.6709 66.3956 21.667 66.4037 21.6649 66.4124C21.6627 66.421 21.6623 66.43 21.6636 66.4388C21.6648 66.4476 21.6678 66.4561 21.6723 66.4638L21.8239 66.723L21.9273 66.897L22.5525 67.948L22.6611 68.1324L22.7902 68.3552C22.7963 68.3654 22.8049 68.3738 22.8152 68.3796C22.8254 68.3854 22.837 68.3884 22.8488 68.3882C22.8605 68.388 22.8719 68.3844 22.8815 68.3778C22.893 68.368 22.9008 68.3545 22.9036 68.3397C22.9065 68.3248 22.9041 68.3094 22.897 68.296L22.7455 68.0367L22.6421 67.8627L22.0255 66.8083L21.9187 66.6169Z" fill="#263238"/>
<path d="M18.7164 68.1411L18.5201 68.3691C18.5141 68.3767 18.5065 68.3828 18.4978 68.387C18.4892 68.3912 18.4797 68.3934 18.4701 68.3934C18.4536 68.3934 18.4376 68.3872 18.4253 68.376C18.4128 68.3633 18.4058 68.3461 18.4058 68.3282C18.4058 68.3103 18.4128 68.2931 18.4253 68.2803L18.6389 68.0315H16.6959L16.5237 68.4021C17.0557 69.2221 17.8439 69.8389 18.7629 70.1543L19.0661 69.9507L18.7164 68.1411Z" fill="#263238"/>
<path d="M19.0852 69.9925C19.0852 69.9745 19.0922 69.9572 19.1048 69.9445C19.1174 69.9318 19.1345 69.9246 19.1523 69.9246H19.2281L18.8612 67.9706L18.7166 68.1446L19.0611 69.9542L18.7579 70.1578L18.9698 70.2274L19.2057 70.0691H19.1541C19.1442 70.0697 19.1344 70.0681 19.1253 70.0644C19.1161 70.0607 19.108 70.0549 19.1013 70.0476C19.0947 70.0402 19.0898 70.0314 19.087 70.0219C19.0842 70.0124 19.0836 70.0023 19.0852 69.9925Z" fill="#263238"/>
<path d="M18.6322 68.0315L18.782 67.8575H18.7682H16.6857L16.6995 67.9341C16.7025 67.9516 16.6986 67.9696 16.6887 67.9843C16.6787 67.9989 16.6634 68.009 16.6461 68.0124H16.6341C16.6183 68.0126 16.6031 68.0071 16.5911 67.9968C16.5791 67.9866 16.5711 67.9724 16.5686 67.9567L16.5583 67.9028L16.4136 68.2177C16.4497 68.2786 16.4859 68.3395 16.5238 68.3917L16.6961 68.0211L18.6322 68.0315Z" fill="#263238"/>
<path d="M19.9257 66.73L20.1392 66.4794C20.1505 66.4658 20.156 66.4482 20.1546 66.4305C20.1532 66.4127 20.1449 66.3963 20.1316 66.3847C20.1182 66.373 20.1009 66.3671 20.0834 66.3683C20.0658 66.3694 20.0494 66.3775 20.0376 66.3907L19.843 66.6204L19.6966 66.7944L18.7819 67.868L18.6321 68.042L18.4185 68.2803C18.406 68.2931 18.3989 68.3103 18.3989 68.3282C18.3989 68.3461 18.406 68.3633 18.4185 68.376C18.4308 68.3872 18.4467 68.3934 18.4633 68.3934C18.4729 68.3934 18.4823 68.3913 18.491 68.387C18.4996 68.3828 18.5072 68.3767 18.5132 68.3691L18.7096 68.1411L18.8543 67.9671L19.7706 66.8936L19.9257 66.73Z" fill="#263238"/>
<path d="M25.9268 65.4233C25.9106 65.416 25.8922 65.4155 25.8755 65.4216C25.8588 65.4278 25.8451 65.4402 25.8373 65.4563L25.808 65.5242L24.7452 67.854L24.7176 67.9149C24.7106 67.9311 24.71 67.9495 24.7161 67.966C24.7223 67.9826 24.7345 67.9961 24.7504 68.0037C24.7594 68.006 24.7689 68.006 24.7779 68.0037C24.7909 68.0034 24.8036 67.9995 24.8145 67.9925C24.8254 67.9854 24.8342 67.9755 24.8399 67.9637L24.8623 67.9132L25.9389 65.5538L25.9596 65.5068C25.9651 65.4912 25.9649 65.4742 25.9588 65.4588C25.9528 65.4434 25.9414 65.4308 25.9268 65.4233Z" fill="#263238"/>
<path d="M23.3585 60.6069C23.353 60.6138 23.3489 60.6216 23.3464 60.6301C23.344 60.6385 23.3432 60.6474 23.3442 60.6561C23.3451 60.6649 23.3478 60.6733 23.352 60.681C23.3563 60.6887 23.362 60.6955 23.3689 60.7009L23.424 60.7461L25.1775 62.1747L25.2344 62.2199C25.2465 62.2299 25.2617 62.2355 25.2774 62.2356C25.2874 62.2355 25.2973 62.2331 25.3063 62.2286C25.3152 62.2241 25.323 62.2175 25.3291 62.2095C25.3348 62.2028 25.3392 62.1949 25.3418 62.1864C25.3444 62.178 25.3452 62.169 25.3443 62.1602C25.3433 62.1514 25.3405 62.1429 25.3361 62.1352C25.3317 62.1275 25.3258 62.1208 25.3188 62.1155L25.2757 62.0807L23.4963 60.64L23.4533 60.6052C23.4405 60.5928 23.4233 60.586 23.4056 60.5863C23.3878 60.5866 23.3709 60.5941 23.3585 60.6069Z" fill="#263238"/>
<path d="M21.7775 69.9925C21.7775 69.9745 21.7704 69.9572 21.7578 69.9445C21.7452 69.9318 21.7281 69.9246 21.7103 69.9246H19.1524C19.1346 69.9246 19.1175 69.9318 19.1049 69.9445C19.0923 69.9572 19.0852 69.9745 19.0852 69.9925C19.085 70.0015 19.0866 70.0104 19.0899 70.0187C19.0932 70.0271 19.0981 70.0347 19.1044 70.041C19.1107 70.0474 19.1182 70.0524 19.1264 70.0557C19.1347 70.059 19.1435 70.0606 19.1524 70.0604H21.7103C21.7192 70.0606 21.728 70.059 21.7363 70.0557C21.7446 70.0524 21.7521 70.0474 21.7583 70.041C21.7646 70.0347 21.7696 70.0271 21.7729 70.0187C21.7762 70.0104 21.7777 70.0015 21.7775 69.9925Z" fill="#263238"/>
<path d="M16.6341 68.0106H16.6462C16.6635 68.0072 16.6787 67.9972 16.6887 67.9825C16.6987 67.9679 16.7026 67.9498 16.6996 67.9323L16.6858 67.8558L16.2517 65.5398L16.2397 65.4737C16.2359 65.4561 16.2256 65.4407 16.2108 65.4306C16.196 65.4206 16.178 65.4167 16.1604 65.4198C16.1517 65.4214 16.1434 65.4248 16.136 65.4298C16.1285 65.4347 16.1221 65.4411 16.1172 65.4485C16.1122 65.456 16.1088 65.4643 16.107 65.4731C16.1053 65.4819 16.1053 65.491 16.107 65.4998L16.1174 65.5538L16.5583 67.9028L16.5687 67.9567C16.5715 67.972 16.5796 67.9859 16.5916 67.9958C16.6036 68.0056 16.6187 68.0109 16.6341 68.0106Z" fill="#263238"/>
<path d="M17.6298 62.206C17.6359 62.2151 17.6441 62.2225 17.6537 62.2277C17.6633 62.2328 17.674 62.2355 17.6849 62.2356C17.6985 62.2358 17.7118 62.2316 17.7228 62.2234L17.7779 62.1869L19.9379 60.7444L19.9965 60.7061C20.0106 60.6959 20.0202 60.6805 20.0233 60.6633C20.0264 60.6461 20.0228 60.6283 20.0132 60.6137C20.0036 60.599 19.9888 60.5887 19.9719 60.5849C19.955 60.581 19.9373 60.584 19.9224 60.593L19.8776 60.6226L17.6935 62.0807L17.6487 62.112C17.6339 62.122 17.6236 62.1375 17.62 62.1551C17.6165 62.1727 17.62 62.191 17.6298 62.206Z" fill="#263238"/>
</g>
</g>
</g>
<defs>
<clipPath id="clip0_1703_2804">
<rect width="82.125" height="79.2602" rx="4.5" fill="white"/>
</clipPath>
<clipPath id="clip1_1703_2804">
<rect width="86.125" height="87" fill="white" transform="translate(-1.5625 -2)"/>
</clipPath>
</defs>
</svg>
