<svg width="83" height="80" viewBox="0 0 83 80" fill="none" xmlns="http://www.w3.org/2000/svg">
<g clip-path="url(#clip0_1692_1618)">
<g clip-path="url(#clip1_1692_1618)">
<path d="M87.0569 61.1404H-7.25V61.1812H87.0569V61.1404Z" fill="#EBEBEB"/>
<path d="M77.6074 62.7063H71.6528V62.7472H77.6074V62.7063Z" fill="#EBEBEB"/>
<path d="M55.9998 62.2605H49.6982V62.3014H55.9998V62.2605Z" fill="#EBEBEB"/>
<path d="M79.3279 64.2344H67.5527V64.2753H79.3279V64.2344Z" fill="#EBEBEB"/>
<path d="M6.27182 63.9581H2.64478V63.9989H6.27182V63.9581Z" fill="#EBEBEB"/>
<path d="M13.6654 63.9581H7.95227V63.9989H13.6654V63.9581Z" fill="#EBEBEB"/>
<path d="M38.7982 63.2639H28.5074V63.3047H38.7982V63.2639Z" fill="#EBEBEB"/>
<path d="M37.4515 53.8041H1.03201C0.746701 53.8037 0.47325 53.7046 0.271684 53.5285C0.0701177 53.3524 -0.0430913 53.1137 -0.0430908 52.8649V8.21772C-0.0406072 7.97033 0.0736977 7.73379 0.274996 7.55947C0.476294 7.38515 0.748327 7.28714 1.03201 7.28671H37.4515C37.7371 7.28671 38.011 7.38567 38.213 7.56181C38.415 7.73795 38.5284 7.97684 38.5284 8.22594V52.8649C38.5284 53.114 38.415 53.3529 38.213 53.529C38.011 53.7052 37.7371 53.8041 37.4515 53.8041ZM1.03201 7.31961C0.759207 7.32005 0.497749 7.41486 0.305026 7.58324C0.112303 7.75162 0.00406218 7.97981 0.00406263 8.21772V52.8649C0.00406218 53.1028 0.112303 53.331 0.305026 53.4994C0.497749 53.6678 0.759207 53.7626 1.03201 53.763H37.4515C37.7244 53.7626 37.9861 53.6678 38.1791 53.4995C38.3721 53.3312 38.4808 53.103 38.4813 52.8649V8.21772C38.4808 7.97966 38.3721 7.75147 38.1791 7.58314C37.9861 7.41481 37.7244 7.32005 37.4515 7.31961H1.03201Z" fill="#EBEBEB"/>
<path d="M78.2509 53.8041H41.8295C41.5441 53.8037 41.2704 53.7046 41.0686 53.5286C40.8667 53.3525 40.7531 53.1139 40.7526 52.8649V8.21772C40.7555 7.97018 40.8703 7.73364 41.0719 7.55937C41.2735 7.38509 41.5457 7.28713 41.8295 7.28671H78.2509C78.5342 7.28757 78.8058 7.38578 79.0067 7.56005C79.2076 7.73432 79.3216 7.97062 79.3241 8.21772V52.8649C79.3241 53.1134 79.2111 53.3518 79.01 53.5279C78.8088 53.7039 78.5359 53.8033 78.2509 53.8041ZM41.8295 7.31961C41.5566 7.32005 41.2949 7.41481 41.1019 7.58314C40.9089 7.75147 40.8002 7.97966 40.7997 8.21772V52.8649C40.8002 53.103 40.9089 53.3312 41.1019 53.4995C41.2949 53.6678 41.5566 53.7626 41.8295 53.763H78.2509C78.5238 53.7626 78.7855 53.6678 78.9785 53.4995C79.1715 53.3312 79.2802 53.103 79.2807 52.8649V8.21772C79.2802 7.97966 79.1715 7.75147 78.9785 7.58314C78.7855 7.41481 78.5238 7.32005 78.2509 7.31961H41.8295Z" fill="#EBEBEB"/>
<path d="M16.0383 26.0385C11.7908 25.4013 7.5438 24.5921 3.29748 23.6106C2.63463 23.4553 2.06594 23.0831 1.70972 22.5715C1.3535 22.0599 1.23717 21.4482 1.38493 20.8636L3.50118 12.4435C3.57829 12.1352 3.72645 11.8439 3.93665 11.5872C4.14684 11.3304 4.4147 11.1136 4.72394 10.9499C5.03318 10.7862 5.37735 10.6791 5.73554 10.635C6.09373 10.5908 6.45846 10.6107 6.80758 10.6933C10.5685 11.5848 14.3358 12.3217 18.1093 12.904C18.778 13.0089 19.3757 13.3322 19.7805 13.8081C20.1853 14.284 20.3667 14.8766 20.2878 15.4651C19.903 18.3557 19.5258 21.2025 19.1561 24.0054C19.1148 24.3213 18.9998 24.6265 18.8183 24.9022C18.6367 25.178 18.3924 25.4184 18.1005 25.6088C17.8085 25.7992 17.4749 25.9356 17.1203 26.0095C16.7657 26.0833 16.3975 26.0932 16.0383 26.0385Z" fill="#E0E0E0"/>
<path d="M76.5098 23.604C72.266 24.5909 68.019 25.4002 63.7689 26.0318C63.4103 26.0866 63.0427 26.077 62.6886 26.0035C62.3344 25.93 62.0012 25.7942 61.7093 25.6045C61.4174 25.4148 61.173 25.1751 60.991 24.9001C60.8091 24.6252 60.6934 24.3207 60.6511 24.0053C60.2739 21.2025 59.8967 18.3557 59.5194 15.4651C59.4405 14.8768 59.6217 14.2844 60.0261 13.8086C60.4305 13.3327 61.0277 13.0092 61.6961 12.904C65.4683 12.3217 69.2356 11.5848 72.9978 10.6933C73.347 10.6104 73.712 10.5904 74.0704 10.6343C74.4288 10.6783 74.7732 10.7854 75.0826 10.9492C75.3921 11.1129 75.6601 11.3298 75.8705 11.5866C76.0808 11.8435 76.229 12.135 76.3061 12.4434L78.4242 20.857C78.5719 21.4418 78.4553 22.0537 78.0987 22.5654C77.7421 23.077 77.173 23.4491 76.5098 23.604Z" fill="#E0E0E0"/>
<path d="M80.8591 46.6851H-1.05212C1.4753 37.8027 4.17122 28.3199 7.03564 18.2367C7.10338 18.002 7.22442 17.7816 7.3916 17.5884C7.55878 17.3952 7.7687 17.2333 8.00893 17.1121C8.24917 16.9909 8.51483 16.913 8.7902 16.883C9.06557 16.853 9.34505 16.8714 9.6121 16.9373C29.4116 21.8621 50.3954 21.8621 70.1949 16.9373C70.4619 16.8714 70.7414 16.853 71.0168 16.883C71.2921 16.913 71.5578 16.9909 71.798 17.1121C72.0383 17.2333 72.2482 17.3952 72.4154 17.5884C72.5825 17.7816 72.7036 18.002 72.7713 18.2367C75.6445 28.3352 78.3405 37.818 80.8591 46.6851Z" fill="#F0F0F0"/>
<path d="M20.912 31.9748C16.3381 31.3637 11.805 30.5401 7.33178 29.5075C7.09846 29.4532 6.89844 29.322 6.77389 29.1415C6.64933 28.9611 6.60996 28.7456 6.66409 28.5403C7.44118 25.5938 8.23461 22.5886 9.04439 19.5247C9.07246 19.4179 9.12503 19.3172 9.19895 19.2286C9.27286 19.1401 9.36658 19.0655 9.47446 19.0094C9.58233 18.9533 9.70212 18.9168 9.8266 18.9022C9.95107 18.8876 10.0777 18.8951 10.1987 18.9243C14.2387 19.8858 18.3358 20.6545 22.4718 21.2271C22.7102 21.2597 22.9249 21.3717 23.0705 21.5395C23.2162 21.7074 23.2815 21.9179 23.2527 22.1269C22.8201 25.2357 22.3957 28.2821 21.9795 31.2659C21.9653 31.3745 21.926 31.4794 21.864 31.5745C21.8021 31.6695 21.7188 31.7526 21.619 31.8188C21.5193 31.885 21.4053 31.933 21.2838 31.9598C21.1623 31.9866 21.0358 31.9917 20.912 31.9748Z" fill="#E0E0E0"/>
<path d="M38.0683 33.2183C33.5546 33.1603 29.0479 32.8912 24.5673 32.4124C24.3249 32.386 24.1042 32.2775 23.9528 32.1104C23.8014 31.9433 23.7315 31.7309 23.7581 31.5192C24.1353 28.5332 24.517 25.4863 24.903 22.3785C24.9163 22.2711 24.954 22.1671 25.014 22.0726C25.074 21.9781 25.1551 21.895 25.2524 21.8282C25.3498 21.7614 25.4614 21.7122 25.5809 21.6836C25.7003 21.6549 25.8251 21.6474 25.9479 21.6614C29.9981 22.108 34.0732 22.3612 38.155 22.4197C38.4018 22.4227 38.6371 22.511 38.8093 22.6652C38.9816 22.8194 39.0766 23.0269 39.0736 23.2421C39.0534 26.3641 39.0327 29.4241 39.0113 32.4222C39.0069 32.6367 38.9051 32.8409 38.7283 32.9902C38.5516 33.1394 38.3142 33.2214 38.0683 33.2183Z" fill="#E0E0E0"/>
<path d="M56.149 32.3121C51.0592 32.889 45.9339 33.195 40.8015 33.2283C40.7776 29.7115 40.7531 26.1103 40.7279 22.4246C45.4363 22.393 50.1377 22.1024 54.8042 21.5545C55.2619 25.2259 55.7101 28.8117 56.149 32.3121Z" fill="#E0E0E0"/>
<path d="M72.4807 29.5157C68.0076 30.5483 63.4744 31.3719 58.9005 31.9831C58.7774 31.9993 58.6518 31.9937 58.5312 31.9668C58.4106 31.9398 58.2974 31.892 58.1984 31.8262C58.0993 31.7604 58.0165 31.6779 57.9547 31.5836C57.8929 31.4894 57.8534 31.3852 57.8386 31.2774C57.4224 28.2914 56.9981 25.2451 56.5655 22.1384C56.5367 21.9295 56.602 21.7189 56.7476 21.5511C56.8933 21.3832 57.1079 21.2713 57.3464 21.2387C61.4823 20.6661 65.5794 19.8973 69.6195 18.9358C69.7405 18.9066 69.8671 18.8991 69.9916 18.9137C70.1161 18.9284 70.2358 18.9648 70.3437 19.0209C70.4516 19.077 70.5453 19.1516 70.6192 19.2402C70.6931 19.3287 70.7457 19.4294 70.7738 19.5362C71.5836 22.6012 72.377 25.6064 73.1541 28.5518C73.2069 28.7573 73.1662 28.9726 73.0406 29.1524C72.915 29.3322 72.7143 29.4625 72.4807 29.5157Z" fill="#E0E0E0"/>
<path d="M19.3448 43.2917C14.3114 42.6508 9.31964 41.7822 4.38962 40.6895C4.1543 40.6373 3.95173 40.5069 3.8252 40.3261C3.69867 40.1454 3.65822 39.9287 3.7125 39.7223L5.88533 31.4978C5.9147 31.3925 5.96768 31.2932 6.04121 31.2058C6.11474 31.1183 6.20737 31.0444 6.31378 30.9883C6.42018 30.9322 6.53826 30.895 6.66122 30.8788C6.78417 30.8627 6.90958 30.8679 7.03022 30.8942C11.558 31.9294 16.146 32.753 20.7745 33.3615C21.0131 33.3952 21.2277 33.5076 21.3741 33.6753C21.5204 33.843 21.5873 34.0534 21.561 34.2629L20.4011 42.5893C20.3858 42.6964 20.3462 42.7997 20.2845 42.8932C20.2229 42.9867 20.1405 43.0686 20.0421 43.134C19.9438 43.1994 19.8314 43.2471 19.7117 43.2741C19.592 43.3012 19.4672 43.3072 19.3448 43.2917Z" fill="#E0E0E0"/>
<path d="M37.9909 44.5812C33.0318 44.5234 28.0795 44.239 23.1545 43.7292C22.911 43.7036 22.6889 43.5953 22.5363 43.4278C22.3838 43.2603 22.3131 43.047 22.3397 42.8344L23.3828 34.5096C23.3963 34.4027 23.434 34.2993 23.4938 34.2053C23.5535 34.1112 23.634 34.0285 23.7307 33.9618C23.8273 33.8951 23.9382 33.8458 24.0569 33.8167C24.1756 33.7876 24.2997 33.7794 24.422 33.7924C28.9516 34.2746 33.5074 34.5453 38.0701 34.6034C38.1925 34.6046 38.3133 34.6269 38.4258 34.669C38.5383 34.711 38.6402 34.7719 38.7257 34.8483C38.8111 34.9247 38.8785 35.015 38.924 35.1141C38.9694 35.2132 38.992 35.3191 38.9905 35.4258C38.9704 38.2649 38.9509 41.0502 38.9321 43.7818C38.9309 43.8883 38.9055 43.9935 38.8575 44.0914C38.8094 44.1893 38.7397 44.278 38.6522 44.3523C38.5647 44.4266 38.4612 44.4851 38.3478 44.5244C38.2343 44.5636 38.113 44.583 37.9909 44.5812Z" fill="#E0E0E0"/>
<path d="M56.6527 43.7292C51.7277 44.239 46.7754 44.5234 41.8163 44.5813C41.6934 44.5832 41.5713 44.5638 41.4571 44.5242C41.3429 44.4846 41.2389 44.4256 41.1511 44.3506C41.0634 44.2756 40.9936 44.1861 40.9459 44.0873C40.8982 43.9885 40.8735 43.8825 40.8732 43.7753C40.8544 41.0437 40.8349 38.2583 40.8148 35.4192C40.8133 35.3125 40.8359 35.2066 40.8813 35.1075C40.9268 35.0084 40.9942 34.9181 41.0796 34.8418C41.1651 34.7654 41.267 34.7044 41.3795 34.6624C41.492 34.6204 41.6128 34.5981 41.7352 34.5968C46.2979 34.5387 50.8537 34.268 55.3833 33.7859C55.5058 33.7728 55.63 33.7811 55.7488 33.8103C55.8676 33.8395 55.9786 33.8889 56.0752 33.9558C56.1719 34.0227 56.2524 34.1056 56.312 34.1999C56.3717 34.2941 56.4092 34.3977 56.4226 34.5047C56.7772 37.3317 57.1248 40.1066 57.4656 42.8295C57.4943 43.0427 57.4249 43.2573 57.2725 43.4259C57.1201 43.5946 56.8972 43.7037 56.6527 43.7292Z" fill="#E0E0E0"/>
<path d="M75.4217 40.6895C70.4904 41.7823 65.4974 42.6509 60.4627 43.2917C60.34 43.3072 60.215 43.3011 60.0951 43.2738C59.9751 43.2465 59.8626 43.1986 59.7642 43.1328C59.6658 43.0671 59.5835 42.9849 59.522 42.8909C59.4606 42.797 59.4213 42.6934 59.4065 42.586L58.2503 34.2629C58.2211 34.0531 58.287 33.8417 58.4339 33.6736C58.5808 33.5056 58.7971 33.3942 59.0368 33.3631C63.6652 32.7538 68.2531 31.9302 72.7811 30.8958C72.9017 30.8695 73.0272 30.8643 73.1501 30.8805C73.2731 30.8966 73.3911 30.9338 73.4975 30.9899C73.604 31.0461 73.6966 31.12 73.7701 31.2074C73.8436 31.2949 73.8966 31.3941 73.926 31.4995L76.0988 39.7239C76.1526 39.9301 76.1118 40.1464 75.9854 40.3268C75.8589 40.5071 75.6566 40.6373 75.4217 40.6895Z" fill="#E0E0E0"/>
<path d="M19.9951 45.4712C19.9385 45.878 19.8819 46.2827 19.8253 46.6851H1.87305L2.95946 42.563C2.98756 42.4582 3.03925 42.3593 3.11154 42.2721C3.18383 42.1848 3.27528 42.111 3.38057 42.0548C3.48585 41.9986 3.60289 41.9613 3.72487 41.9449C3.84685 41.9285 3.97136 41.9334 4.09115 41.9593C9.07201 43.0571 14.1148 43.9289 19.1991 44.5714C19.4405 44.6005 19.6592 44.7111 19.808 44.8794C19.9569 45.0476 20.024 45.2602 19.9951 45.4712Z" fill="#E0E0E0"/>
<path d="M38.9115 46.6768H21.8589C21.8979 46.3577 21.9381 46.037 21.9796 45.7146C21.9932 45.6081 22.0308 45.505 22.0903 45.4113C22.1498 45.3176 22.23 45.2351 22.3263 45.1686C22.4226 45.102 22.533 45.0528 22.6512 45.0237C22.7695 44.9946 22.8931 44.9862 23.0151 44.9991C27.9867 45.5102 32.9854 45.7952 37.991 45.8528C38.1135 45.854 38.2346 45.8764 38.3472 45.9185C38.4598 45.9607 38.5618 46.0217 38.6473 46.0983C38.7328 46.1748 38.8001 46.2653 38.8454 46.3646C38.8908 46.4639 38.9132 46.57 38.9115 46.6768Z" fill="#E0E0E0"/>
<path d="M57.948 46.6851H40.8955C40.894 46.5783 40.9166 46.4724 40.962 46.3733C41.0075 46.2742 41.0749 46.1839 41.1603 46.1076C41.2458 46.0312 41.3477 45.9703 41.4602 45.9282C41.5727 45.8862 41.6935 45.8639 41.8159 45.8626C46.8215 45.805 51.8202 45.5201 56.7918 45.0089C56.9138 44.9961 57.0374 45.0045 57.1557 45.0336C57.2739 45.0627 57.3843 45.1119 57.4806 45.1784C57.5769 45.2449 57.6571 45.3275 57.7166 45.4212C57.7761 45.5149 57.8137 45.618 57.8273 45.7244C57.8688 46.0457 57.9091 46.3659 57.948 46.6851Z" fill="#E0E0E0"/>
<path d="M77.9341 46.6851H59.9818C59.9253 46.2827 59.8687 45.878 59.8121 45.4712C59.783 45.2607 59.8497 45.0486 59.9978 44.8804C60.1458 44.7122 60.3636 44.6013 60.6043 44.5714C65.6886 43.9289 70.7314 43.0571 75.7122 41.9593C75.832 41.9334 75.9565 41.9285 76.0785 41.9449C76.2005 41.9613 76.3175 41.9986 76.4228 42.0548C76.5281 42.111 76.6195 42.1848 76.6918 42.2721C76.7641 42.3593 76.8158 42.4582 76.8439 42.563L77.9341 46.6851Z" fill="#E0E0E0"/>
<path d="M82.5303 46.6851H-2.72315C-2.974 46.6839 -3.22229 46.7291 -3.45162 46.8178C-3.68094 46.9064 -3.88608 47.0365 -4.05348 47.1995C-4.22088 47.3624 -4.34672 47.5544 -4.4227 47.7629C-4.49868 47.9714 -4.52306 48.1916 -4.49424 48.4089L-3.01173 59.7685C-2.96261 60.1464 -2.75567 60.4953 -2.4304 60.7486C-2.10512 61.002 -1.68429 61.142 -1.24819 61.142H81.0553C81.4914 61.142 81.9123 61.002 82.2375 60.7486C82.5628 60.4953 82.7697 60.1464 82.8189 59.7685L84.3014 48.4089C84.3302 48.1916 84.3058 47.9714 84.2298 47.7629C84.1539 47.5544 84.028 47.3624 83.8606 47.1995C83.6932 47.0365 83.4881 46.9064 83.2587 46.8178C83.0294 46.7291 82.7811 46.6839 82.5303 46.6851Z" fill="#EBEBEB"/>
<path d="M30.1166 53.1067H27.5232V61.1404H30.1166V53.1067Z" fill="#E0E0E0"/>
<path d="M3.56135 57.4558C3.01248 56.9788 2.76163 57.1153 2.50323 57.2568C2.24482 57.3982 1.56016 57.0923 1.34891 57.7634C1.13766 58.4345 1.27158 59.3277 1.14898 59.785C0.930186 60.6074 0.971682 61.3098 1.51489 61.7062C1.83931 61.9447 2.66921 61.239 2.56358 60.6732C2.44287 60.035 4.70812 58.9872 3.56135 57.4558Z" fill="#263238"/>
<path d="M11.9359 56.158C10.774 54.9934 7.85239 55.2862 5.88515 56.4278C4.84882 56.6707 3.86107 57.0501 2.95598 57.5529C2.65231 58.571 3.61235 58.6845 3.61235 58.6845C3.61235 58.6845 8.59742 58.5694 11.4247 58.6747C13.9635 58.9362 11.9359 56.158 11.9359 56.158Z" fill="#7F3E3B"/>
<path d="M19.2595 50.1657C19.0257 53.0722 16.2908 55.7846 13.8331 57.6993C13.4559 58.4822 12.3751 58.9132 11.798 58.7141C11.2906 58.5398 11.3491 58.1022 11.168 57.5397C11.0677 57.1275 10.7869 56.7657 10.3853 56.5314C10.2867 56.4725 10.2091 56.3905 10.1615 56.2949C10.1139 56.1994 10.0982 56.094 10.1161 55.991C10.134 55.8879 10.1849 55.7914 10.2628 55.7124C10.3408 55.6334 10.4427 55.5752 10.5569 55.5444H10.572C10.572 55.5444 12.1431 50.4256 13.488 49.7758C14.8328 49.1261 19.2595 50.1657 19.2595 50.1657Z" fill="#C53F3F"/>
<path opacity="0.3" d="M19.2595 50.1657C19.0257 53.0722 16.2908 55.7846 13.8331 57.6993C13.4559 58.4822 12.3751 58.9132 11.798 58.7141C11.2906 58.5398 11.3491 58.1022 11.168 57.5397C11.0677 57.1275 10.7869 56.7657 10.3853 56.5314C10.2867 56.4725 10.2091 56.3905 10.1615 56.2949C10.1139 56.1994 10.0982 56.094 10.1161 55.991C10.134 55.8879 10.1849 55.7914 10.2628 55.7124C10.3408 55.6334 10.4427 55.5752 10.5569 55.5444H10.572C10.572 55.5444 12.1431 50.4256 13.488 49.7758C14.8328 49.1261 19.2595 50.1657 19.2595 50.1657Z" fill="black"/>
<g opacity="0.5">
<path d="M10.5855 56.7173H10.5704C10.5558 56.7138 10.5433 56.7055 10.5356 56.6942C10.5278 56.6828 10.5254 56.6693 10.5289 56.6564C10.6157 56.3702 10.9061 55.9162 11.3041 55.8685C11.3248 55.6152 11.6549 55.1086 12.0982 54.4227C12.9394 53.1281 14.0918 51.3533 14.0069 50.0127C14.0064 50.0062 14.0074 49.9997 14.0098 49.9936C14.0121 49.9874 14.0159 49.9817 14.0208 49.9768C14.0257 49.9719 14.0317 49.9679 14.0384 49.9651C14.045 49.9622 14.0523 49.9605 14.0597 49.9601C14.0743 49.9605 14.0882 49.9656 14.0986 49.9744C14.1091 49.9832 14.1154 49.9951 14.1163 50.0078C14.2031 51.3763 13.0412 53.166 12.1944 54.472C11.7624 55.13 11.3909 55.709 11.4135 55.908C11.4144 55.9219 11.409 55.9354 11.3984 55.9458C11.3935 55.9509 11.3875 55.955 11.3807 55.9578C11.3738 55.9606 11.3664 55.9622 11.3588 55.9623C10.9721 55.9738 10.7043 56.4557 10.6364 56.6827C10.6327 56.6922 10.626 56.7006 10.6169 56.7067C10.6078 56.7128 10.5969 56.7165 10.5855 56.7173Z" fill="#C53F3F"/>
<path d="M11.308 58.1434C11.2973 58.1433 11.2869 58.1406 11.2779 58.1356C11.2689 58.1306 11.2617 58.1234 11.2572 58.115C11.2527 58.1066 11.2509 58.0972 11.2523 58.0879C11.2536 58.0787 11.2579 58.07 11.2646 58.0628C11.7286 57.5808 13.0583 57.2716 13.6072 57.4262C13.6811 57.4385 13.7485 57.4712 13.7994 57.5195C13.8504 57.5678 13.8822 57.6291 13.8901 57.6943C13.8908 57.7008 13.8899 57.7073 13.8876 57.7135C13.8854 57.7197 13.8817 57.7254 13.8769 57.7304C13.8721 57.7354 13.8662 57.7395 13.8596 57.7424C13.8529 57.7454 13.8457 57.7472 13.8383 57.7478C13.8308 57.7483 13.8234 57.7476 13.8163 57.7456C13.8091 57.7436 13.8026 57.7404 13.7969 57.7362C13.7912 57.732 13.7865 57.7269 13.7831 57.7211C13.7797 57.7153 13.7776 57.709 13.777 57.7025C13.777 57.617 13.7034 57.5578 13.5733 57.52C13.064 57.3769 11.7833 57.6844 11.3514 58.1269C11.346 58.1323 11.3394 58.1366 11.3318 58.1394C11.3243 58.1423 11.3162 58.1436 11.308 58.1434Z" fill="#C53F3F"/>
<path d="M14.318 57.3325C14.3052 57.3325 14.2927 57.329 14.2822 57.3226C14.2822 57.3144 13.2335 56.5939 13.241 55.4507C13.2486 54.3075 14.6896 52.6067 15.6194 52.0458C15.7387 51.9682 15.8784 51.918 16.0258 51.8999C16.1731 51.8818 16.3233 51.8963 16.4625 51.9422C17.0284 52.1264 17.5942 52.8288 17.8658 53.7318C17.8694 53.7444 17.8672 53.7578 17.8599 53.7691C17.8525 53.7804 17.8405 53.7888 17.8262 53.7927C17.8189 53.7944 17.8113 53.7948 17.8038 53.7939C17.7963 53.793 17.7891 53.7908 17.7825 53.7874C17.776 53.7841 17.7704 53.7796 17.7659 53.7743C17.7614 53.769 17.7582 53.7629 17.7564 53.7565C17.4867 52.8847 16.9642 52.2086 16.4229 52.0359C16.3009 51.9951 16.1689 51.9822 16.0395 51.9983C15.9101 52.0144 15.7876 52.0591 15.6836 52.128C14.8706 52.6215 13.3636 54.3174 13.3542 55.4507C13.3542 56.5462 14.3425 57.2371 14.3519 57.2436C14.3641 57.2518 14.3721 57.2638 14.3742 57.277C14.3763 57.2902 14.3724 57.3036 14.3633 57.3144C14.3576 57.32 14.3507 57.3246 14.3429 57.3277C14.3351 57.3308 14.3266 57.3324 14.318 57.3325Z" fill="#C53F3F"/>
<path d="M17.1097 54.6809C17.0974 54.6812 17.0855 54.6777 17.0758 54.6711C17.0662 54.6645 17.0595 54.6552 17.0569 54.6447C16.6797 53.518 15.2575 52.3995 15.2424 52.3896C15.2319 52.3801 15.2261 52.3674 15.2261 52.3542C15.2261 52.341 15.2319 52.3284 15.2424 52.3189C15.253 52.3098 15.2672 52.3047 15.282 52.3047C15.2968 52.3047 15.3111 52.3098 15.3216 52.3189C15.382 52.3649 16.7909 53.4703 17.1682 54.6217C17.1705 54.6278 17.1713 54.6343 17.1707 54.6408C17.17 54.6472 17.1678 54.6535 17.1643 54.6592C17.1608 54.6649 17.1559 54.6699 17.1501 54.6739C17.1443 54.6779 17.1376 54.6809 17.1304 54.6826L17.1097 54.6809Z" fill="#C53F3F"/>
<path d="M16.2625 55.5955C16.2498 55.5954 16.2376 55.5917 16.2277 55.5848C16.2177 55.578 16.2107 55.5684 16.2078 55.5577C15.9494 54.5823 14.4329 53.2071 14.4178 53.194C14.4126 53.1892 14.4086 53.1836 14.4058 53.1775C14.4031 53.1714 14.4018 53.1648 14.402 53.1583C14.4022 53.1517 14.4038 53.1452 14.4069 53.1392C14.4099 53.1332 14.4143 53.1278 14.4197 53.1232C14.4252 53.1187 14.4316 53.1151 14.4386 53.1128C14.4457 53.1104 14.4531 53.1093 14.4607 53.1094C14.4682 53.1096 14.4756 53.111 14.4825 53.1137C14.4894 53.1163 14.4956 53.1201 14.5008 53.1249C14.5631 53.1825 16.0531 54.5329 16.3191 55.5346C16.3207 55.541 16.3209 55.5476 16.3196 55.5541C16.3184 55.5605 16.3156 55.5667 16.3116 55.5722C16.3075 55.5777 16.3023 55.5824 16.2961 55.5862C16.29 55.5899 16.283 55.5925 16.2757 55.5939L16.2625 55.5955Z" fill="#C53F3F"/>
<path d="M15.4084 56.4064C15.3951 56.4065 15.3822 56.4024 15.3721 56.3948C15.3621 56.3873 15.3555 56.3768 15.3537 56.3653C15.1292 55.2221 13.709 54.2269 13.6939 54.2105C13.6834 54.2021 13.677 54.1905 13.6758 54.1781C13.6747 54.1658 13.679 54.1535 13.6878 54.1437C13.6966 54.1339 13.7093 54.1274 13.7234 54.1255C13.7374 54.1235 13.7518 54.1263 13.7637 54.1332C13.824 54.1759 15.2348 55.1678 15.4612 56.3488C15.4625 56.3553 15.4624 56.362 15.4607 56.3684C15.4591 56.3749 15.4559 56.381 15.4516 56.3863C15.4472 56.3917 15.4416 56.3962 15.4351 56.3997C15.4287 56.4031 15.4215 56.4054 15.414 56.4064H15.4084Z" fill="#C53F3F"/>
</g>
<path d="M5.83422 58.6467C4.54599 58.6632 3.61235 58.6846 3.61235 58.6846C3.61235 58.6846 2.65231 58.5711 2.95598 57.5529L3.12384 57.4558L3.29171 57.367L3.43883 57.293C3.67082 57.1762 3.91036 57.0709 4.15556 56.9739L4.32909 56.9081H4.34229L4.5177 56.8456L4.68368 56.788C4.9119 56.7107 5.14767 56.6383 5.39098 56.5676C5.38721 56.5643 5.10052 57.7569 5.83422 58.6467Z" fill="#C53F3F"/>
<path opacity="0.7" d="M5.83422 58.6467C4.54599 58.6632 3.61235 58.6846 3.61235 58.6846C3.61235 58.6846 2.65231 58.5711 2.95598 57.5529L3.12384 57.4558L3.29171 57.367L3.43883 57.293C3.67082 57.1762 3.91036 57.0709 4.15556 56.9739L4.32909 56.9081H4.34229L4.5177 56.8456L4.68368 56.788C4.9119 56.7107 5.14767 56.6383 5.39098 56.5676C5.38721 56.5643 5.10052 57.7569 5.83422 58.6467Z" fill="white"/>
<path d="M2.79957 58.321C2.97783 58.5676 3.25589 58.7467 3.57854 58.8227C3.57854 58.8227 4.12364 58.9247 4.32168 58.7717C4.51972 58.6187 3.82563 57.9805 3.30882 57.8489C2.79202 57.7173 2.79957 58.321 2.79957 58.321Z" fill="#263238"/>
<path d="M2.91078 60.0876C2.90042 60.0874 2.89029 60.0849 2.88137 60.0803C2.87245 60.0757 2.86504 60.0691 2.85986 60.0613C2.70852 59.8203 2.50022 59.61 2.24875 59.4445C2.23936 59.4383 2.23239 59.4298 2.2288 59.4201C2.22521 59.4103 2.22517 59.3999 2.22869 59.3901C2.23221 59.3804 2.23911 59.3718 2.24845 59.3656C2.25779 59.3595 2.2691 59.356 2.28081 59.3556C2.55687 59.3769 2.82509 59.4469 3.06922 59.5612C2.90283 59.3041 2.69013 59.0719 2.43925 58.8737C2.43099 58.8665 2.42519 58.8575 2.42252 58.8476C2.41986 58.8377 2.42042 58.8274 2.42416 58.8178C2.42908 58.8084 2.43711 58.8006 2.4472 58.7953C2.4573 58.79 2.46899 58.7875 2.48074 58.7881C2.83848 58.8199 3.17473 58.9521 3.4389 59.1648C3.31253 58.7717 2.65238 58.4427 2.64484 58.4427C2.63824 58.4396 2.63241 58.4354 2.62769 58.4303C2.62297 58.4252 2.61945 58.4194 2.61735 58.4131C2.61524 58.4069 2.61459 58.4003 2.61542 58.3938C2.61625 58.3873 2.61856 58.381 2.6222 58.3753C2.63004 58.3642 2.64239 58.3562 2.65676 58.3529C2.67113 58.3495 2.68642 58.3511 2.69954 58.3572C2.73537 58.3736 3.58413 58.798 3.57659 59.303C3.57676 59.3132 3.57319 59.3231 3.56641 59.3314C3.55962 59.3397 3.54997 59.3459 3.53887 59.3491C3.52812 59.3522 3.51659 59.3526 3.50558 59.3503C3.49457 59.3479 3.48454 59.343 3.47662 59.3359C3.25308 59.1249 2.96306 58.9761 2.64295 58.9082C2.90256 59.1266 3.11191 59.3862 3.25972 59.6731C3.26394 59.6832 3.26438 59.6942 3.261 59.7045C3.25761 59.7149 3.25056 59.724 3.24086 59.7307C3.23124 59.7367 3.21969 59.7399 3.20785 59.7399C3.19601 59.7399 3.18446 59.7367 3.17484 59.7307C2.96153 59.6089 2.72432 59.5225 2.47508 59.4757C2.66914 59.6318 2.83341 59.814 2.96171 60.0152C2.96842 60.0271 2.96961 60.0407 2.96504 60.0533C2.96047 60.0658 2.95049 60.0764 2.93719 60.0827C2.92887 60.0859 2.91988 60.0876 2.91078 60.0876Z" fill="white"/>
<path d="M18.4016 63.4777C17.9433 64.0238 18.1338 64.2196 18.3356 64.4203C18.5374 64.6209 18.2903 65.2575 19.09 65.3397C19.8898 65.422 20.8083 64.9828 21.3421 65.0453C21.8759 65.1078 23.5772 64.5979 23.7318 63.7919C23.7865 63.5057 22.7416 63.3873 22.0664 63.7327C21.4194 64.0617 19.9614 62.2589 18.4016 63.4777Z" fill="#263238"/>
<path d="M20.3626 36.4312C20.3626 36.1103 19.9254 36.0038 19.8297 35.8971L17.1254 37.3635L18.4778 39.6087C18.797 39.5766 19.1066 39.4929 19.3907 39.362C20.0057 39.08 20.156 38.6119 20.3626 38.0333C20.5691 37.4547 20.6854 36.9678 20.3626 36.4312Z" fill="#263238"/>
<path d="M16.0856 56.709C15.2802 57.6252 15.9366 59.7833 17.0947 61.4216C17.4086 62.3163 17.8773 63.1639 18.4848 63.935C19.6636 64.1637 19.7579 63.3231 19.7579 63.3231C19.7579 63.3231 19.3448 58.8951 19.3675 56.4261C18.2978 56.6724 17.1899 56.768 16.0856 56.709Z" fill="#7F3E3B"/>
<path d="M18.4847 63.9334C18.4074 63.8413 18.3338 63.7459 18.264 63.6521C18.2282 63.6044 18.1942 63.5567 18.1603 63.509L18.0773 63.3889C18.0377 63.3314 18.0019 63.2721 17.9641 63.2146L17.8793 63.0764C17.8095 62.9629 17.7435 62.8478 17.6906 62.7293C17.6737 62.6997 17.6567 62.6685 17.6416 62.6389C17.6039 62.5648 17.5643 62.4908 17.5303 62.4151C17.4964 62.3395 17.4511 62.2507 17.4134 62.1668C17.3757 62.0829 17.3455 62.0204 17.3153 61.9447C17.3002 61.9135 17.287 61.8822 17.2738 61.851C17.3323 61.8625 18.6299 62.0993 19.5975 61.3279C19.6862 62.4793 19.7654 63.3231 19.7654 63.3231C19.7654 63.3231 19.6635 64.1637 18.4847 63.9334Z" fill="#C53F3F"/>
<path opacity="0.7" d="M18.4847 63.9334C18.4074 63.8413 18.3338 63.7459 18.264 63.6521C18.2282 63.6044 18.1942 63.5567 18.1603 63.509L18.0773 63.3889C18.0377 63.3314 18.0019 63.2721 17.9641 63.2146L17.8793 63.0764C17.8095 62.9629 17.7435 62.8478 17.6906 62.7293C17.6737 62.6997 17.6567 62.6685 17.6416 62.6389C17.6039 62.5648 17.5643 62.4908 17.5303 62.4151C17.4964 62.3395 17.4511 62.2507 17.4134 62.1668C17.3757 62.0829 17.3455 62.0204 17.3153 61.9447C17.3002 61.9135 17.287 61.8822 17.2738 61.851C17.3323 61.8625 18.6299 62.0993 19.5975 61.3279C19.6862 62.4793 19.7654 63.3231 19.7654 63.3231C19.7654 63.3231 19.6635 64.1637 18.4847 63.9334Z" fill="white"/>
<path d="M16.3271 51.1575C17.2211 52.2432 18.9809 54.7631 19.3675 56.0396C19.7542 57.316 18.1114 57.9608 16.8552 57.7091C15.599 57.4575 15.0068 56.3044 15.0068 56.3044C15.0068 56.3044 6.39279 53.5459 12.2832 48.9156C15.8499 48.3744 16.3271 51.1575 16.3271 51.1575Z" fill="#C53F3F"/>
<path d="M21.1252 40.4658C19.7615 39.9723 16.9285 39.4476 15.3894 39.3752C15.1614 39.3664 14.9337 39.3984 14.7203 39.4691C14.5069 39.5398 14.3122 39.6478 14.1484 39.7864C13.9845 39.925 13.8548 40.0913 13.7672 40.2751C13.6797 40.459 13.6361 40.6565 13.6391 40.8556C13.6542 44.3099 12.1774 48.4221 12.2754 48.9155C12.2754 48.9155 16.0477 51.7678 19.2541 50.1624C20.8366 46.2146 22.3927 43.1601 22.123 41.5892C22.0809 41.3431 21.9671 41.1105 21.7924 40.9138C21.6177 40.7171 21.3879 40.5628 21.1252 40.4658Z" fill="#263238"/>
<path d="M23.3793 43.0335C23.4774 43.2259 23.5566 43.3871 23.6283 43.5631C23.7 43.7391 23.7698 43.9118 23.8339 44.0878C23.9584 44.4415 24.0621 44.8001 24.1508 45.1636C24.1923 45.3478 24.23 45.532 24.2639 45.7179C24.3031 45.9056 24.3195 46.0964 24.313 46.287C24.313 46.4811 24.2828 46.6752 24.262 46.871C24.2413 47.0667 24.2224 47.2641 24.2224 47.4582V47.5158C24.2236 47.7462 24.1245 47.9684 23.9452 48.1375C23.6305 48.3991 23.2868 48.6328 22.9191 48.835C22.7596 48.9218 22.5869 48.9888 22.4061 49.034C22.2359 49.0704 22.0623 49.0935 21.8874 49.1031C21.5601 49.1246 21.231 49.1136 20.9066 49.0702C20.5828 49.0282 20.2662 48.9519 19.9635 48.8432C19.8452 48.8006 19.743 48.7297 19.6688 48.6388C19.5945 48.5479 19.5511 48.4405 19.5436 48.329C19.5362 48.2176 19.5649 48.1065 19.6265 48.0087C19.688 47.9108 19.78 47.83 19.8919 47.7757L20.0107 47.7181C20.2314 47.6112 20.4879 47.5223 20.7104 47.4302C20.933 47.3381 21.1556 47.2526 21.3461 47.1638C21.4441 47.121 21.5347 47.0716 21.6158 47.0355C21.6945 47.0038 21.7767 46.979 21.861 46.9614C22.0175 46.9335 22.1439 46.8841 22.142 46.8118L21.8648 47.4927C21.8181 47.1828 21.7261 46.8793 21.5913 46.5897C21.4724 46.2887 21.4441 45.9745 21.3574 45.6603C21.2706 45.3462 21.2065 45.0303 21.1273 44.7112L21.0122 44.2342C20.9745 44.078 20.9349 43.9052 20.9066 43.7704L20.8915 43.693C20.8371 43.4191 20.8993 43.1373 21.0665 42.9006C21.2337 42.6639 21.4943 42.4886 21.7993 42.4078C22.1043 42.3269 22.4327 42.3461 22.7226 42.4616C23.0126 42.5771 23.2441 42.7811 23.3737 43.0351L23.3793 43.0335Z" fill="#7F3E3B"/>
<path d="M20.3009 47.8563L20.4273 48.5044C20.2745 49.1804 19.3107 48.858 19.3107 48.858H18.7751C18.6808 48.8543 18.5911 48.8215 18.522 48.7655C18.4529 48.7094 18.4089 48.6338 18.3978 48.5521L18.3073 48.0997C18.282 48.008 18.2988 47.9112 18.3541 47.8301C18.4094 47.749 18.4989 47.6899 18.6034 47.6655L19.0618 47.5915C19.1952 47.5702 19.3326 47.5781 19.4616 47.6145L20.3009 47.8563Z" fill="#7F3E3B"/>
<path d="M20.3217 42.1584C20.284 43.2127 20.9479 44.7639 20.9479 44.7639C21.7684 44.7425 23.3226 44.3938 23.9337 43.8608C23.9337 43.8608 23.3867 41.9363 22.5172 41.2635C21.5723 40.5316 20.3613 41.0415 20.3217 42.1584Z" fill="#C53F3F"/>
<path d="M13.5129 41.8113C13.296 41.6781 13.1187 41.5596 12.9339 41.4247C12.749 41.2899 12.5736 41.1583 12.3963 41.0201C12.0474 40.7421 11.7135 40.446 11.391 40.1335C11.2307 39.969 11.0741 39.8045 10.9214 39.64C10.7611 39.4714 10.6208 39.2889 10.5026 39.0956C10.3819 38.8998 10.2801 38.6877 10.1745 38.4738C10.0688 38.26 9.96509 38.0396 9.85758 37.806L9.7746 37.5757C9.7478 37.5006 9.74326 37.4208 9.76139 37.3438C9.78591 37.2336 9.80289 37.1184 9.82175 37.0148C9.84061 36.9112 9.85758 36.8141 9.87079 36.7154C9.90474 36.5246 9.92549 36.3338 9.95566 36.1496C9.98186 35.9676 10.0247 35.7877 10.0839 35.6117C10.1462 35.439 10.231 35.2712 10.3084 35.1051C10.4649 34.7761 10.6422 34.4471 10.8327 34.1297C11.0261 33.8076 11.2429 33.4967 11.4815 33.1987C11.5642 33.097 11.6818 33.0208 11.8172 32.9811C11.9527 32.9414 12.0991 32.9403 12.2354 32.9777C12.3717 33.0152 12.4908 33.0895 12.5757 33.1898C12.6605 33.29 12.7067 33.4112 12.7075 33.5359V33.5523C12.7075 33.9076 12.6755 34.2596 12.6434 34.605C12.6113 34.9505 12.5642 35.291 12.5133 35.6265C12.485 35.791 12.4699 35.9555 12.4341 36.12C12.398 36.2803 12.3508 36.4385 12.2926 36.5937C12.2339 36.7427 12.1841 36.8942 12.1436 37.0477C12.1266 37.1184 12.1153 37.1892 12.1059 37.2615C12.0992 37.3234 12.0992 37.3856 12.1059 37.4474L12.0078 36.9852C12.1989 37.2557 12.4398 37.4969 12.7207 37.6991C13.0018 37.9343 13.2338 38.2205 13.5148 38.4788C13.7958 38.737 14.0674 39.0133 14.3523 39.2798L14.7804 39.6828C14.9219 39.8128 15.0746 39.9559 15.1972 40.0759L15.2425 40.1203C15.4562 40.3297 15.574 40.6003 15.5733 40.8806C15.5727 41.1609 15.4536 41.4311 15.239 41.6397C15.0243 41.8483 14.729 41.9806 14.4096 42.0113C14.0901 42.0421 13.7689 41.9691 13.5073 41.8064L13.5129 41.8113Z" fill="#7F3E3B"/>
<path d="M12.4979 33.7365L11.7435 33.6954C11.023 33.4125 11.602 32.6673 11.602 32.6673L11.7152 32.2117C11.7406 32.1322 11.7976 32.0632 11.8761 32.0171C11.9546 31.971 12.0493 31.9507 12.1433 31.96L12.6696 31.9863C12.7778 31.9855 12.8822 32.0217 12.9601 32.0872C13.0381 32.1527 13.0834 32.2423 13.0864 32.3367L13.0657 32.743C13.0572 32.8592 13.0171 32.972 12.9487 33.072L12.4979 33.7365Z" fill="#7F3E3B"/>
<path d="M13.9277 42.2324C12.7526 41.9824 11.5436 40.7109 11.5436 40.7109C11.7869 40.0282 12.53 38.51 13.2826 38.1399C13.2826 38.1399 14.9009 39.0248 15.3574 39.9608C15.8327 40.979 15.1725 42.4988 13.9277 42.2324Z" fill="#C53F3F"/>
<path d="M15.3835 39.3752C14.78 38.6679 14.1066 38.4705 13.8086 38.9278C13.1202 39.9855 13.7105 43.3904 14.5631 43.7835C15.4156 44.1766 16.0192 40.1171 15.3835 39.3752Z" fill="#263238"/>
<path d="M19.041 41.8294C19.0095 41.8298 18.9782 41.8254 18.9486 41.8162L18.809 41.7734C18.6675 41.729 18.5261 41.6797 18.3865 41.6221C17.8303 41.4004 17.3262 41.0902 16.9002 40.7075C16.7322 40.561 16.5881 40.3949 16.4721 40.2141C16.3721 40.0496 16.1854 39.7469 16.3928 39.5561C16.5456 39.4147 17.0907 39.4986 17.2058 39.5183C18.4601 39.6121 20.2236 40.1285 20.233 40.1335H20.2613V40.1582C20.284 40.224 20.2972 40.2815 20.3066 40.3226V40.3374C20.5065 41.1846 19.6238 41.5826 19.2918 41.734L19.1598 41.7932C19.1239 41.8129 19.0832 41.8253 19.041 41.8294ZM16.7399 39.5775C16.648 39.5676 16.555 39.585 16.4758 39.6269C16.3249 39.765 16.4758 40.0183 16.572 40.168C16.6831 40.3409 16.8208 40.4998 16.9813 40.6401C17.3982 41.0133 17.8906 41.3162 18.4337 41.5333C18.5713 41.5876 18.709 41.6369 18.8467 41.6797L18.9863 41.7224C19.0077 41.7294 19.0306 41.7322 19.0533 41.7308C19.0761 41.7294 19.0983 41.7237 19.1183 41.7142L19.2522 41.655C19.5634 41.5152 20.3839 41.1418 20.2085 40.3687V40.3523C20.1991 40.321 20.1878 40.2749 20.1727 40.2223C19.9407 40.1565 18.3507 39.7058 17.1963 39.6186C17.046 39.5925 16.8932 39.5787 16.7399 39.5775Z" fill="white"/>
<path d="M19.7087 40.4575C19.6813 40.2717 19.5741 40.1018 19.4088 39.9822C19.3777 39.7886 19.4243 39.5916 19.5408 39.4246L17.3378 38.2731C17.3378 38.9985 17.351 39.5726 16.9606 39.8456C17.0605 40.1483 17.8471 40.9 19.0089 41.257C19.5955 41.0069 19.7822 40.7767 19.7087 40.4575Z" fill="#7F3E3B"/>
<path opacity="0.2" d="M19.505 39.4854L17.7415 39.0331C18.1621 39.668 18.9561 40.0381 19.3994 39.9048C19.393 39.7595 19.4294 39.6151 19.505 39.4854Z" fill="black"/>
<path d="M16.8532 37.3602C17.0739 38.3636 17.2493 39.043 17.9849 39.395C19.4486 40.0957 20.171 39.4542 20.3011 38.408C20.4162 37.4672 20.0371 35.9818 18.8394 35.7154C18.5742 35.656 18.2961 35.6564 18.0311 35.7164C17.7661 35.7765 17.523 35.8942 17.3245 36.0586C17.126 36.223 16.9786 36.4287 16.8962 36.6564C16.8137 36.884 16.799 37.1262 16.8532 37.3602Z" fill="#7F3E3B"/>
<path d="M18.4809 38.4195C18.8825 38.3754 19.2881 38.366 19.6918 38.3916C19.6388 38.5279 19.5325 38.6437 19.3914 38.7186C19.2504 38.7934 19.0837 38.8227 18.9204 38.8011C18.8623 38.803 18.8044 38.7944 18.7502 38.7759C18.6961 38.7573 18.6469 38.7293 18.6057 38.6935C18.5644 38.6578 18.5321 38.615 18.5107 38.5678C18.4892 38.5207 18.4791 38.4702 18.4809 38.4195Z" fill="#263238"/>
<path d="M19.1564 38.6087C19.0179 38.6014 18.879 38.6053 18.7414 38.6202C18.6603 38.6383 18.6528 38.6695 18.6339 38.7189C18.7158 38.7719 18.8149 38.8007 18.9168 38.8011C19.0922 38.817 19.2686 38.7817 19.4185 38.7008C19.4129 38.6449 19.2865 38.6153 19.1564 38.6087Z" fill="white"/>
<path d="M18.5205 38.4129C18.545 38.4656 18.5677 38.5182 18.6563 38.538C18.921 38.5459 19.186 38.5343 19.4485 38.5034C19.4908 38.5013 19.5317 38.4899 19.5677 38.4704C19.6036 38.4508 19.6333 38.4237 19.6541 38.3916C19.2762 38.3721 18.8971 38.3792 18.5205 38.4129Z" fill="white"/>
<path d="M17.1361 38.2106C17.9038 37.8816 17.7133 36.8947 17.5228 36.5937C18.3187 36.6973 20.699 36.5937 20.0408 35.9357C19.3825 35.2778 18.0188 35.3978 17.3191 35.638C16.6193 35.8781 16.4213 36.1397 16.4797 36.2795C15.7932 36.3864 15.9497 37.6645 17.1361 38.2106Z" fill="#263238"/>
<path d="M16.4494 38.4179C16.5342 38.5212 16.6417 38.6088 16.7658 38.6754C16.8898 38.7421 17.0278 38.7865 17.1718 38.8061C17.5585 38.8587 17.7075 38.5462 17.5641 38.2501C17.434 37.982 17.0756 37.6333 16.7059 37.7188C16.6255 37.7383 16.552 37.775 16.4918 37.8255C16.4317 37.876 16.3869 37.9387 16.3615 38.008C16.336 38.0773 16.3308 38.1511 16.3461 38.2226C16.3615 38.2942 16.397 38.3613 16.4494 38.4179Z" fill="#7F3E3B"/>
<path d="M18.7223 37.4046C18.7355 37.4869 18.7958 37.5477 18.8562 37.5411C18.9165 37.5346 18.9599 37.4605 18.9467 37.3766C18.9335 37.2928 18.875 37.2335 18.8128 37.2401C18.7506 37.2467 18.7109 37.3224 18.7223 37.4046Z" fill="#263238"/>
<path d="M19.7217 37.3043C19.733 37.3865 19.7934 37.4474 19.8556 37.4408C19.9178 37.4342 19.9574 37.3602 19.9461 37.2763C19.9348 37.1924 19.8745 37.1316 19.8122 37.1398C19.75 37.148 19.7217 37.2237 19.7217 37.3043Z" fill="#263238"/>
<path d="M19.4277 37.4276L19.522 38.1234C19.5882 38.1365 19.6569 38.1355 19.7226 38.1207C19.7882 38.1058 19.8488 38.0774 19.8993 38.0379C19.7896 37.8094 19.6294 37.602 19.4277 37.4276Z" fill="#630F0F"/>
<path d="M18.4506 37.1349C18.4416 37.1319 18.4338 37.1268 18.428 37.1201C18.4234 37.115 18.4201 37.1092 18.4183 37.1029C18.4164 37.0967 18.4161 37.0902 18.4174 37.0838C18.4186 37.0774 18.4214 37.0714 18.4255 37.066C18.4296 37.0606 18.4349 37.0561 18.4412 37.0526C18.5118 37.0053 18.5942 36.9733 18.6817 36.959C18.7692 36.9447 18.8593 36.9486 18.9448 36.9704C18.9587 36.9749 18.9701 36.9839 18.9764 36.9956C18.9828 37.0073 18.9836 37.0207 18.9787 37.0329C18.9732 37.0452 18.9625 37.0551 18.9488 37.0606C18.9351 37.0661 18.9194 37.0668 18.9052 37.0625C18.8375 37.0452 18.766 37.0423 18.6968 37.054C18.6275 37.0658 18.5625 37.0918 18.5072 37.1299C18.4993 37.1354 18.4898 37.1388 18.4797 37.1396C18.4697 37.1405 18.4596 37.1389 18.4506 37.1349Z" fill="#263238"/>
<path d="M20.2348 37.1069C20.2259 37.109 20.2165 37.1091 20.2076 37.1071C20.1986 37.105 20.1905 37.101 20.1839 37.0954C20.1356 37.052 20.0763 37.0191 20.0108 36.9993C19.9453 36.9796 19.8753 36.9736 19.8066 36.9819C19.7921 36.9849 19.7769 36.9827 19.7642 36.976C19.7515 36.9692 19.7423 36.9583 19.7387 36.9457C19.7359 36.9329 19.7388 36.9196 19.7469 36.9085C19.7549 36.8975 19.7676 36.8896 19.7821 36.8865C19.8697 36.8748 19.9592 36.8812 20.0434 36.9052C20.1275 36.9292 20.2041 36.9701 20.2669 37.0247C20.2722 37.0291 20.2765 37.0345 20.2794 37.0404C20.2823 37.0463 20.2838 37.0527 20.2838 37.0592C20.2838 37.0657 20.2823 37.0721 20.2794 37.078C20.2765 37.0839 20.2722 37.0893 20.2669 37.0937C20.2582 37.1012 20.2469 37.1059 20.2348 37.1069Z" fill="#263238"/>
<path d="M21.1253 40.4658C22.5154 40.9592 23.0567 41.4527 22.9247 41.9676C22.5135 43.573 21.3102 44.5007 20.3369 44.5369C19.3637 44.5731 20.1464 40.1171 21.1253 40.4658Z" fill="#263238"/>
<path d="M19.3448 63.94C19.6347 63.7948 19.8514 63.56 19.9521 63.282C19.9521 63.282 20.0898 62.8116 19.922 62.624C19.7541 62.4365 18.9978 63.0254 18.8261 63.4712C18.6545 63.9169 19.3448 63.94 19.3448 63.94Z" fill="#263238"/>
<path d="M20.7914 64.3396C20.7794 64.3377 20.7684 64.3325 20.76 64.3248C20.7515 64.3172 20.746 64.3074 20.7443 64.2969C20.7282 64.0552 20.7673 63.8131 20.8593 63.5846C20.5932 63.7677 20.3622 63.9865 20.1746 64.2327C20.1681 64.241 20.1588 64.2473 20.148 64.2508C20.1372 64.2543 20.1255 64.2549 20.1143 64.2525C20.1031 64.2501 20.093 64.2446 20.0856 64.2369C20.0781 64.2293 20.0737 64.2197 20.0728 64.2097C20.054 63.8965 20.1526 63.5864 20.3538 63.3264C19.9313 63.4909 19.6578 64.1159 19.6541 64.1225C19.648 64.1337 19.6374 64.1426 19.6242 64.1472C19.611 64.1519 19.5963 64.1521 19.583 64.1478C19.5697 64.1434 19.5587 64.1348 19.5523 64.1237C19.5459 64.1127 19.5445 64.0999 19.5484 64.088C19.5635 64.0534 19.9144 63.2655 20.4915 63.1899C20.5027 63.1884 20.5142 63.1899 20.5243 63.1943C20.5345 63.1988 20.5428 63.2058 20.5481 63.2145C20.5546 63.2228 20.5581 63.2325 20.5581 63.2425C20.5581 63.2525 20.5546 63.2622 20.5481 63.2705C20.3433 63.4952 20.2187 63.7675 20.1897 64.0534C20.3975 63.796 20.6608 63.5765 20.9649 63.407C20.9744 63.4007 20.986 63.3973 20.9979 63.3973C21.0099 63.3973 21.0215 63.4007 21.031 63.407C21.0397 63.4142 21.0456 63.4236 21.048 63.4339C21.0504 63.4443 21.049 63.4549 21.0442 63.4646C20.9356 63.6661 20.8716 63.8838 20.8555 64.1061C21.0016 63.9164 21.1833 63.7495 21.3931 63.6126C21.3992 63.6088 21.406 63.6061 21.4133 63.6046C21.4206 63.6032 21.4281 63.603 21.4354 63.604C21.4428 63.6051 21.4498 63.6074 21.4562 63.6109C21.4625 63.6143 21.468 63.6188 21.4723 63.6241C21.4766 63.6294 21.4797 63.6354 21.4814 63.6417C21.4831 63.6481 21.4833 63.6546 21.4821 63.661C21.4809 63.6675 21.4782 63.6736 21.4743 63.6791C21.4703 63.6846 21.4652 63.6894 21.4591 63.6932C21.2093 63.8602 21.0029 64.0716 20.8537 64.3133C20.8481 64.3231 20.8389 64.331 20.8277 64.3357C20.8164 64.3405 20.8037 64.3419 20.7914 64.3396Z" fill="white"/>
<path d="M20.0482 43.2703L19.7596 42.8591L18.0885 42.6222L17.5509 42.9167L17.3189 43.5746L18.2846 43.7095L18.3507 43.5253L18.9165 43.6042L18.5562 44.6175L17.9904 44.5369L17.4246 45.0386L17.3284 45.3083L17.5038 45.9153L18.0696 45.9942L17.7094 47.0075L17.1435 46.9269L17.2077 46.741L16.2438 46.6045L16.0118 47.2624L16.3004 47.6737L17.9697 47.9105L18.5072 47.6161L19.2013 45.6636L19.0127 45.4087C19.1164 45.3494 19.2126 45.2985 19.3465 45.2261L20.0482 43.2703Z" fill="white"/>
<path d="M69.761 27.6258C69.7723 27.6406 69.7968 27.6833 69.8138 27.7146L69.876 27.8215L70.0005 28.0436L70.2533 28.491C70.4268 28.7903 70.5928 29.0914 70.772 29.3858C70.9511 29.6802 71.1209 29.9747 71.302 30.2625C71.483 30.5504 71.6622 30.83 71.8489 31.1031C72.0357 31.3761 72.2262 31.6393 72.4148 31.8926C72.6034 32.1459 72.792 32.3861 72.9523 32.6394C73.0952 32.8822 73.2526 33.1183 73.4239 33.3467C73.5668 33.537 73.7468 33.704 73.9558 33.8402L72.9919 33.6049C72.9542 33.702 73.1353 33.623 73.3447 33.4404C73.4672 33.3382 73.6004 33.2463 73.7426 33.1658C73.9048 33.0786 74.0953 33.0013 74.2821 32.8878C74.6593 32.6822 75.0667 32.4354 75.4835 32.1755L76.1248 31.7742C76.2342 31.7067 76.3417 31.636 76.4549 31.5702C76.5605 31.5014 76.6707 31.4383 76.785 31.381L77.0792 31.2495C77.2879 31.1558 77.5227 31.1158 77.7565 31.134C77.9902 31.1522 78.2132 31.2279 78.3995 31.3523C78.5859 31.4767 78.7279 31.6447 78.809 31.8368C78.8901 32.0288 78.9071 32.237 78.8578 32.4371C78.8182 32.6016 78.7899 32.7282 78.7466 32.8664C78.7032 33.0046 78.6598 33.1345 78.6126 33.2677C78.5145 33.5316 78.4005 33.7907 78.2712 34.0441C78.0038 34.5682 77.6705 35.0647 77.2772 35.5245C77.067 35.7738 76.8323 36.0066 76.5756 36.2203C76.2854 36.4466 75.9596 36.6355 75.608 36.7812C75.2071 36.9504 74.7899 37.0886 74.3613 37.1941C73.8522 37.3208 73.3283 37.397 72.7996 37.4211C72.5011 37.4185 72.2077 37.3543 71.9433 37.2336L71.8357 37.1842C71.3172 36.9466 70.8164 36.6807 70.3363 36.3881C69.8887 36.1254 69.4632 35.8352 69.0631 35.5196C68.6924 35.2201 68.3615 34.8851 68.0767 34.5211C67.7919 34.1724 67.5316 33.8188 67.2902 33.4635C67.0487 33.1082 66.8318 32.7463 66.6225 32.3861C66.4131 32.0258 66.2283 31.6574 66.0566 31.2906C65.885 30.9238 65.7171 30.5504 65.5738 30.1721C65.4983 29.9845 65.4304 29.7954 65.3644 29.6013C65.3323 29.5059 65.2984 29.4088 65.2682 29.3101L65.172 28.9894C65.0321 28.5199 65.0839 28.0226 65.3184 27.5828C65.553 27.1429 65.9558 26.788 66.4577 26.5789C66.9596 26.3698 67.5293 26.3195 68.069 26.4367C68.6088 26.5539 69.0849 26.8312 69.4158 27.2211L69.761 27.6258Z" fill="#FF8B7B"/>
<path d="M77.0718 31.4353L78.0148 32.4831C79.354 33.2381 80.016 31.636 80.016 31.636L80.6988 31.006C80.9308 30.7921 80.912 30.4204 80.6517 30.126L80.0009 29.3907C79.7029 29.0617 79.2031 28.9433 78.8919 29.1423L78.1921 29.5914C77.9873 29.7222 77.827 29.899 77.7282 30.1029L77.0718 31.4353Z" fill="#FF8B7B"/>
<path d="M77.3396 30.8925C77.1416 30.6458 76.2532 31.3169 76.1721 31.6014C76.091 31.886 77.2208 33.2151 78.4486 33.5177C78.4875 33.5271 78.5284 33.5274 78.5674 33.5188C78.6064 33.5101 78.6422 33.4928 78.6712 33.4684C79.1239 33.0934 79.2559 32.8006 79.2654 32.5292C78.8617 32.4042 77.7451 31.4041 77.3396 30.8925Z" fill="#C53F3F"/>
<path d="M64.5003 27.5584C64.2494 29.5092 66.5882 32.4535 66.5882 32.4535C68.1141 32.5193 71.0565 32.0752 72.2787 31.1672C72.2787 31.1672 71.545 28.1341 69.9569 26.856C68.2292 25.4611 64.7643 25.4924 64.5003 27.5584Z" fill="#6E2929"/>
<path d="M32.8607 58.0874C31.5404 57.5759 31.2103 57.9591 30.8727 58.3555C30.5351 58.752 29.1111 58.6154 29.2525 59.905C29.394 61.1946 30.3125 62.6668 30.4521 63.532C30.7048 65.1029 31.7253 66.047 33.6585 66.4023C34.4319 66.5454 34.2093 65.1736 33.5944 64.2541C32.889 63.2129 36.0219 60.0876 32.8607 58.0874Z" fill="#263238"/>
<path d="M46.4088 50.9684C43.5023 49.6196 38.6511 51.8253 36.1086 54.9523C34.3998 56.1037 33.0116 57.2156 31.8837 58.6056C32.1326 60.5531 33.8886 60.1896 33.8886 60.1896C33.8886 60.1896 42.4536 57.0939 47.4481 55.6349C52.054 54.6184 46.4088 50.9684 46.4088 50.9684Z" fill="#FF8B7B"/>
<path d="M62.5371 42.2423C61.0602 47.5059 55.0699 51.7267 49.8754 54.5625C48.9173 55.8965 46.7652 56.3899 45.7769 55.8669C44.913 55.4096 45.1733 54.6233 45.045 53.5393C44.9168 52.4554 44.5867 51.8221 43.1683 50.8697C43.306 49.8301 44.6772 49.7183 44.6772 49.7183C44.6772 49.7183 49.402 40.7619 52.103 39.9411C54.8039 39.1203 62.5371 42.2423 62.5371 42.2423Z" fill="#C53F3F"/>
<path opacity="0.3" d="M62.5371 42.2423C61.0602 47.5059 55.0699 51.7267 49.8754 54.5625C48.9173 55.8965 46.7652 56.3899 45.7769 55.8669C44.913 55.4096 45.1733 54.6233 45.045 53.5393C44.9168 52.4554 44.5867 51.8221 43.1683 50.8697C43.306 49.8301 44.6772 49.7183 44.6772 49.7183C44.6772 49.7183 49.402 40.7619 52.103 39.9411C54.8039 39.1203 62.5371 42.2423 62.5371 42.2423Z" fill="#6E2929"/>
<g opacity="0.5">
<path d="M44.2945 51.8747C44.2795 51.8743 44.2648 51.8715 44.2511 51.8665C44.2256 51.8564 44.2057 51.838 44.1958 51.8151C44.1859 51.7923 44.1868 51.767 44.1983 51.7447C44.4604 51.2414 45.1413 50.488 45.8958 50.5094C46.0259 50.0538 46.8125 49.2133 47.8743 48.0799C49.8812 45.9416 52.6331 42.9989 52.9669 40.5135C52.9702 40.4893 52.9844 40.4672 53.0063 40.4521C53.0282 40.437 53.0561 40.4301 53.0839 40.4329C53.0977 40.4341 53.1111 40.4377 53.1233 40.4435C53.1355 40.4494 53.1462 40.4573 53.1548 40.4668C53.1635 40.4763 53.1698 40.4872 53.1735 40.4989C53.1772 40.5106 53.1781 40.5228 53.1763 40.5348C52.8424 43.068 50.0698 46.0288 48.0441 48.1918C47.0162 49.2889 46.1278 50.238 46.0957 50.6098C46.0946 50.6225 46.0905 50.6349 46.0837 50.6462C46.0769 50.6576 46.0675 50.6675 46.0561 50.6756C46.0337 50.6909 46.0052 50.698 45.9769 50.6953C45.2658 50.6081 44.6019 51.4125 44.3925 51.8155C44.3852 51.8329 44.3718 51.848 44.3542 51.8586C44.3367 51.8692 44.3158 51.8748 44.2945 51.8747Z" fill="#C53F3F"/>
<path d="M45.1073 54.6891C45.0919 54.689 45.0766 54.686 45.0626 54.6803C45.0486 54.6746 45.0362 54.6664 45.0262 54.6562C45.0173 54.6469 45.0105 54.6361 45.0063 54.6246C45.0022 54.613 45.0007 54.6009 45.0019 54.5888C45.0031 54.5767 45.007 54.565 45.0135 54.5542C45.0199 54.5435 45.0287 54.534 45.0394 54.5262C46.0636 53.7696 48.6099 53.5672 49.5661 54.0015C49.9434 54.1758 50.0075 54.4078 49.9886 54.5706C49.9888 54.5835 49.9858 54.5962 49.98 54.608C49.9741 54.6199 49.9655 54.6305 49.9546 54.6392C49.9438 54.6479 49.931 54.6546 49.917 54.6587C49.903 54.6628 49.8882 54.6644 49.8735 54.6632C49.8588 54.6621 49.8446 54.6582 49.8317 54.652C49.8188 54.6457 49.8075 54.6372 49.7987 54.6269C49.7898 54.6167 49.7835 54.6049 49.7801 54.5923C49.7768 54.5798 49.7765 54.5668 49.7793 54.5542C49.7962 54.3897 49.6944 54.268 49.468 54.1643C48.5797 53.763 46.1277 53.962 45.1846 54.6594C45.1749 54.6689 45.163 54.6765 45.1497 54.6816C45.1363 54.6867 45.1219 54.6892 45.1073 54.6891Z" fill="#C53F3F"/>
<path d="M50.9317 54.0657C50.9172 54.0657 50.9028 54.0631 50.8895 54.058C50.8761 54.0529 50.8642 54.0454 50.8544 54.0361C50.8374 54.0212 49.1833 52.4241 49.5964 50.3268C50.0038 48.2559 53.2441 45.4925 55.1454 44.7112C55.3906 44.5998 55.6641 44.5445 55.9405 44.5502C56.2169 44.556 56.4871 44.6227 56.726 44.7441C57.7162 45.2375 58.4838 46.6686 58.6781 48.3974C58.6797 48.4095 58.6785 48.4217 58.6746 48.4334C58.6707 48.4451 58.6641 48.4561 58.6554 48.4655C58.6466 48.475 58.6358 48.4829 58.6235 48.4887C58.6112 48.4945 58.5977 48.4981 58.5838 48.4994C58.556 48.5008 58.5286 48.4929 58.5072 48.4773C58.4858 48.4617 58.4721 48.4396 58.4687 48.4155C58.2801 46.7443 57.5559 45.3658 56.6222 44.9036C56.4125 44.7975 56.1754 44.7394 55.9329 44.7348C55.6905 44.7302 55.4507 44.7792 55.2359 44.8773C53.5723 45.5616 50.2131 48.2806 49.8038 50.3581C49.4077 52.3665 50.994 53.8979 51.0091 53.9127C51.0288 53.9299 51.0398 53.9533 51.0398 53.9777C51.0398 54.002 51.0288 54.0254 51.0091 54.0426C50.9987 54.0509 50.9865 54.0572 50.9732 54.0612C50.9599 54.0652 50.9458 54.0667 50.9317 54.0657Z" fill="#C53F3F"/>
<path d="M56.979 49.942C56.9533 49.9421 56.9285 49.9339 56.9093 49.919C56.8902 49.9041 56.878 49.8836 56.8752 49.8614C56.5904 47.695 54.3572 45.2639 54.3346 45.2409C54.3175 45.2215 54.3097 45.1972 54.3128 45.1729C54.316 45.1486 54.3299 45.1264 54.3516 45.1109C54.3622 45.1033 54.3744 45.0975 54.3876 45.094C54.4008 45.0906 54.4146 45.0894 54.4283 45.0906C54.442 45.0918 54.4553 45.0954 54.4674 45.1012C54.4794 45.1069 54.4901 45.1147 54.4987 45.1241C54.593 45.2261 56.7922 47.621 57.0846 49.84C57.0873 49.8641 57.0792 49.8882 57.0619 49.9072C57.0447 49.9262 57.0197 49.9387 56.9922 49.942H56.979Z" fill="#C53F3F"/>
<path d="M55.1076 51.3944C55.0809 51.3941 55.0554 51.3851 55.0359 51.3693C55.0164 51.3535 55.0043 51.332 55.0019 51.3088C54.8661 49.4501 52.565 46.5271 52.55 46.4975C52.542 46.4876 52.5364 46.4764 52.5334 46.4646C52.5305 46.4528 52.5302 46.4405 52.5327 46.4286C52.5351 46.4167 52.5402 46.4053 52.5477 46.3951C52.5552 46.3849 52.565 46.3761 52.5764 46.3692C52.5995 46.3557 52.6278 46.3505 52.6553 46.3548C52.6827 46.3591 52.7072 46.3725 52.7235 46.3923C52.8197 46.514 55.0812 49.3876 55.2207 51.2973C55.2215 51.3094 55.2195 51.3215 55.2149 51.333C55.2103 51.3444 55.2031 51.3549 55.1938 51.3639C55.1846 51.373 55.1733 51.3803 55.1608 51.3855C55.1482 51.3907 55.1346 51.3937 55.1208 51.3944H55.1076Z" fill="#C53F3F"/>
<path d="M53.2576 52.656C53.2299 52.656 53.2033 52.6465 53.1835 52.6296C53.1638 52.6127 53.1524 52.5897 53.1519 52.5655C53.1406 50.4091 50.8886 48.1951 50.8584 48.172C50.8387 48.1548 50.8276 48.1314 50.8276 48.1071C50.8276 48.0827 50.8387 48.0594 50.8584 48.0421C50.8784 48.0253 50.9051 48.0159 50.9329 48.0159C50.9607 48.0159 50.9874 48.0253 51.0074 48.0421C51.1017 48.1359 53.3424 50.3318 53.3556 52.5573C53.3556 52.5817 53.3445 52.6052 53.3247 52.6224C53.3049 52.6397 53.278 52.6494 53.25 52.6494L53.2576 52.656Z" fill="#C53F3F"/>
</g>
<path d="M37.7175 58.8342C35.4919 59.6122 33.8886 60.1912 33.8886 60.1912C33.8886 60.1912 32.1326 60.5515 31.8837 58.6072C31.9535 58.52 32.0251 58.4329 32.0968 58.349L32.3194 58.0973C32.3854 58.0249 32.4514 57.9525 32.5193 57.8818C32.8324 57.5528 33.1681 57.2239 33.5189 56.913C33.6001 56.8406 33.6849 56.7666 33.7698 56.6959L33.7887 56.6794C33.8735 56.607 33.9584 56.5363 34.0452 56.4672C34.1319 56.3981 34.2055 56.3356 34.2885 56.2715C34.6261 56.0034 34.9788 55.7402 35.3485 55.477C35.3485 55.4819 35.7635 57.714 37.7175 58.8342Z" fill="#C53F3F"/>
<path opacity="0.7" d="M37.7175 58.8342C35.4919 59.6122 33.8886 60.1912 33.8886 60.1912C33.8886 60.1912 32.1326 60.5515 31.8837 58.6072C31.9535 58.52 32.0251 58.4329 32.0968 58.349L32.3194 58.0973C32.3854 58.0249 32.4514 57.9525 32.5193 57.8818C32.8324 57.5528 33.1681 57.2239 33.5189 56.913C33.6001 56.8406 33.6849 56.7666 33.7698 56.6959L33.7887 56.6794C33.8735 56.607 33.9584 56.5363 34.0452 56.4672C34.1319 56.3981 34.2055 56.3356 34.2885 56.2715C34.6261 56.0034 34.9788 55.7402 35.3485 55.477C35.3485 55.4819 35.7635 57.714 37.7175 58.8342Z" fill="white"/>
<path d="M32.1988 60.0301C32.696 60.3554 33.3157 60.5052 33.934 60.4495C33.934 60.4495 34.9582 60.3097 35.1864 59.9297C35.4147 59.5498 33.7209 58.8441 32.7231 58.9148C31.7254 58.9856 32.1988 60.0301 32.1988 60.0301Z" fill="#263238"/>
<path d="M33.6981 63.0287C33.6724 63.0288 33.6475 63.0206 33.6284 63.0057C33.1795 62.6775 32.6573 62.4344 32.0949 62.2918C32.0729 62.2869 32.0533 62.2759 32.0391 62.2605C32.0248 62.2451 32.0166 62.226 32.0157 62.2063C32.0148 62.1867 32.0211 62.1673 32.0336 62.1511C32.0462 62.1348 32.0643 62.1224 32.0855 62.1158C32.5819 61.9935 33.1014 61.9593 33.6133 62.0155C33.1272 61.6674 32.5802 61.3897 31.9931 61.193C31.9729 61.1858 31.9556 61.1735 31.9435 61.1577C31.9314 61.1418 31.925 61.1232 31.9252 61.1042C31.9264 61.0854 31.934 61.0673 31.9471 61.0523C31.9602 61.0374 31.9782 61.0262 31.9987 61.0203C32.6441 60.8665 33.3293 60.9 33.9509 61.1157C33.4265 60.5137 32.0308 60.3262 32.0157 60.3229C32.0019 60.3215 31.9886 60.3176 31.9766 60.3116C31.9645 60.3056 31.954 60.2974 31.9457 60.2877C31.9374 60.278 31.9315 60.2669 31.9283 60.2552C31.9251 60.2434 31.9247 60.2312 31.9271 60.2192C31.9289 60.2073 31.9335 60.1958 31.9405 60.1854C31.9475 60.1751 31.9568 60.166 31.9678 60.1588C31.9789 60.1516 31.9915 60.1464 32.0049 60.1435C32.0183 60.1406 32.0322 60.1401 32.0459 60.1419C32.1213 60.1518 33.9188 60.3936 34.2904 61.2769C34.2977 61.2942 34.2989 61.313 34.2939 61.3309C34.2889 61.3487 34.2778 61.3649 34.2621 61.3772C34.2459 61.3893 34.226 61.3969 34.2049 61.3993C34.1838 61.4016 34.1624 61.3985 34.1433 61.3904C33.5938 61.1535 32.9763 61.0636 32.3684 61.1321C32.9871 61.3601 33.5494 61.6902 34.0244 62.1043C34.0391 62.1191 34.048 62.1375 34.0501 62.157C34.0521 62.1764 34.0471 62.196 34.0358 62.2128C34.0239 62.2297 34.0062 62.2429 33.9851 62.2503C33.964 62.2577 33.9408 62.259 33.9188 62.254C33.4557 62.1665 32.9779 62.1548 32.5099 62.2194C32.9675 62.3776 33.3924 62.5999 33.7679 62.8774C33.7876 62.8946 33.7987 62.918 33.7987 62.9423C33.7987 62.9667 33.7876 62.9901 33.7679 63.0073C33.7487 63.022 33.7237 63.0296 33.6981 63.0287Z" fill="white"/>
<path d="M50.2775 60.8064C48.8346 60.8426 48.7252 61.3114 48.6158 61.7934C48.5064 62.2753 47.1559 62.6931 47.9236 63.8018C48.6913 64.9104 50.4152 65.8151 50.7981 66.6228C51.181 67.4304 52.7917 67.7742 55.3814 67.5719C56.1679 67.511 55.3814 66.2444 54.0271 65.7756C52.7427 65.3348 54.1101 61.415 50.2775 60.8064Z" fill="#263238"/>
<path d="M66.5439 16.6648C66.4419 16.4288 65.8937 16.0797 65.7447 15.8637L61.0527 18.143L62.954 22.5595C63.7446 22.5645 64.5247 22.4017 65.2271 22.0851C65.9295 21.7686 65.8249 20.7015 66.2775 20.1361C66.7301 19.5708 66.7115 19.4851 66.8103 18.801C66.909 18.1169 67.0881 17.8444 66.8103 17.1988L66.5439 16.6648Z" fill="#263238"/>
<path d="M57.303 51.0111C54.0513 50.5555 53.0309 53.4456 52.2444 56.788C51.0542 58.3572 50.1564 59.8031 49.6038 61.4381C50.5619 63.208 52.0878 62.3707 52.0878 62.3707C52.0878 62.3707 59.008 56.4886 63.1858 53.6972C61.4281 52.498 59.4346 51.5877 57.303 51.0111Z" fill="#FF8B7B"/>
<path d="M55.1246 59.8508C53.3516 61.2983 52.0898 62.3707 52.0898 62.3707C52.0898 62.3707 50.5639 63.208 49.6057 61.4381C50.0982 60.046 50.8098 58.7202 51.7201 57.4986C51.7201 57.4986 52.4896 59.5942 55.1246 59.8508Z" fill="#C53F3F"/>
<path opacity="0.7" d="M55.1246 59.8508C53.3516 61.2983 52.0898 62.3707 52.0898 62.3707C52.0898 62.3707 50.5639 63.208 49.6057 61.4381C50.0982 60.046 50.8098 58.7202 51.7201 57.4986C51.7201 57.4986 52.4896 59.5942 55.1246 59.8508Z" fill="white"/>
<path d="M57.7636 42.5153C59.6497 44.3773 63.4371 48.7576 64.4254 51.0588C65.4137 53.36 62.5072 54.824 60.1288 54.5526C57.7504 54.2812 56.4131 52.2497 56.4131 52.2497C56.4131 52.2497 39.8867 48.5356 49.8116 39.015C56.3131 37.4375 57.7636 42.5153 57.7636 42.5153Z" fill="#6E2929"/>
<path d="M67.6542 24.5005C65.2022 23.3968 60.0455 22.0677 57.2049 21.7371C56.7845 21.6907 56.3576 21.7198 55.9504 21.8225C55.5433 21.9251 55.1645 22.0992 54.8373 22.3341C54.51 22.569 54.2412 22.8597 54.0474 23.1883C53.8535 23.517 53.7387 23.8768 53.7099 24.2455C53.1441 30.6606 49.7075 38.079 49.8037 39.0232C49.8037 39.0232 56.3298 44.8017 62.5408 42.2422C66.1452 35.138 69.5535 29.6671 69.3196 26.7194C69.2839 26.256 69.1119 25.8083 68.8202 25.4197C68.5285 25.031 68.1269 24.7145 67.6542 24.5005Z" fill="#263238"/>
<path d="M48.806 34.0984C48.7771 34.0987 48.7488 34.0912 48.7249 34.077L47.4933 33.3549C47.4613 33.3362 47.4391 33.3071 47.4317 33.2741C47.4242 33.2411 47.4322 33.2069 47.4537 33.1789C47.4752 33.151 47.5085 33.1317 47.5464 33.1252C47.5842 33.1187 47.6235 33.1256 47.6555 33.1444L48.8871 33.8681C48.9029 33.8773 48.9165 33.889 48.9271 33.9027C48.9376 33.9165 48.945 33.9319 48.9487 33.9481C48.9523 33.9643 48.9523 33.981 48.9485 33.9972C48.9448 34.0134 48.9374 34.0288 48.9267 34.0425C48.9134 34.0597 48.8955 34.0739 48.8744 34.0836C48.8534 34.0934 48.8299 34.0985 48.806 34.0984Z" fill="white"/>
<path d="M48.806 34.0984C48.7771 34.0987 48.7488 34.0912 48.7249 34.077C48.6933 34.058 48.6714 34.0289 48.664 33.9961C48.6566 33.9632 48.6643 33.9291 48.6853 33.901L49.5152 32.8269C49.525 32.8115 49.5383 32.7981 49.5544 32.7874C49.5704 32.7768 49.5889 32.7691 49.6085 32.765C49.6281 32.761 49.6485 32.7605 49.6683 32.7636C49.6882 32.7668 49.707 32.7735 49.7237 32.7833C49.7404 32.7932 49.7546 32.806 49.7653 32.8209C49.7761 32.8358 49.7831 32.8525 49.786 32.8699C49.7889 32.8873 49.7877 32.905 49.7823 32.922C49.7769 32.939 49.7675 32.9547 49.7548 32.9684L48.9268 34.0425C48.9134 34.0597 48.8955 34.0738 48.8744 34.0836C48.8534 34.0934 48.8299 34.0984 48.806 34.0984Z" fill="white"/>
<path d="M47.7761 34.2744C47.7472 34.2747 47.7189 34.2672 47.695 34.253C47.6791 34.2437 47.6655 34.2318 47.6549 34.218C47.6444 34.2041 47.637 34.1885 47.6333 34.1722C47.6297 34.1558 47.6297 34.139 47.6335 34.1227C47.6373 34.1064 47.6447 34.0908 47.6554 34.077L48.4834 33.0029C48.4941 32.9891 48.5077 32.9772 48.5236 32.968C48.5396 32.9588 48.5574 32.9524 48.5761 32.9492C48.5949 32.946 48.6141 32.946 48.6329 32.9493C48.6516 32.9526 48.6694 32.9591 48.6852 32.9684C48.7011 32.9777 48.7147 32.9896 48.7253 33.0034C48.7358 33.0173 48.7432 33.0329 48.7468 33.0492C48.7505 33.0656 48.7505 33.0824 48.7467 33.0987C48.7429 33.115 48.7355 33.1305 48.7248 33.1444L47.8968 34.2185C47.8834 34.2356 47.8654 34.2497 47.8444 34.2594C47.8234 34.2691 47.7999 34.2743 47.7761 34.2744Z" fill="white"/>
<path d="M49.8358 33.9224C49.8075 33.9224 49.7799 33.915 49.7566 33.901L48.5231 33.1789C48.4911 33.1601 48.4689 33.1311 48.4615 33.0981C48.454 33.0651 48.4619 33.0308 48.4835 33.0029C48.505 32.975 48.5383 32.9557 48.5762 32.9492C48.614 32.9427 48.6533 32.9496 48.6853 32.9684L49.9169 33.6921C49.9327 33.7012 49.9463 33.713 49.9569 33.7267C49.9674 33.7405 49.9748 33.7559 49.9785 33.7721C49.9821 33.7883 49.9821 33.805 49.9783 33.8212C49.9746 33.8374 49.9672 33.8528 49.9565 33.8665C49.9432 33.8837 49.9252 33.8978 49.9042 33.9076C49.8831 33.9173 49.8597 33.9224 49.8358 33.9224Z" fill="white"/>
<path d="M54.4909 26.823C54.4758 26.8345 54.4306 26.8609 54.3966 26.8822L54.2835 26.948L54.0477 27.0862L53.5724 27.3642C53.2555 27.5534 52.9349 27.7376 52.6293 27.9317C52.3238 28.1258 52.005 28.3116 51.7032 28.5057C51.4014 28.6998 51.1053 28.8923 50.8205 29.0913C50.5357 29.2904 50.2547 29.4861 49.9981 29.6851C49.7508 29.8839 49.4921 30.0717 49.2229 30.2477C48.9659 30.4004 48.7184 30.5652 48.4817 30.7411C48.2868 30.8905 48.1229 31.068 47.997 31.2659L48.1384 30.4023C48.0479 30.4993 48.1761 30.6852 48.3855 30.8727C48.4963 30.9759 48.5943 31.0889 48.6779 31.2099C48.7665 31.3448 48.8438 31.5027 48.9457 31.6573C49.1343 31.9715 49.3738 32.3054 49.6247 32.6541L50.0019 33.1904C50.0661 33.2841 50.134 33.373 50.1905 33.4684C50.2573 33.5566 50.3166 33.6489 50.3678 33.7447L50.5225 34.0885C50.6038 34.2704 50.6267 34.4682 50.5887 34.6605C50.5506 34.8529 50.453 35.0326 50.3065 35.1802C50.16 35.3278 49.97 35.4377 49.7571 35.4981C49.5443 35.5585 49.3165 35.567 49.0985 35.5228C48.9098 35.4866 48.7835 35.462 48.6326 35.4258C48.4817 35.3896 48.3421 35.3518 48.2007 35.309C47.9173 35.2252 47.6396 35.1275 47.3689 35.0162C46.8108 34.7866 46.2849 34.5018 45.8015 34.1674C45.5402 33.9918 45.2972 33.7964 45.0753 33.5835C44.8449 33.3473 44.6544 33.0837 44.5095 32.8005C44.1739 32.1403 43.921 31.4504 43.755 30.7428C43.7165 30.491 43.7482 30.2348 43.8475 29.996L43.8965 29.8776C44.0972 29.3978 44.3328 28.9297 44.6019 28.4761C44.8413 28.0543 45.1142 27.6476 45.4186 27.2589C45.7096 26.8982 46.0462 26.5671 46.422 26.272C46.7817 25.9814 47.1482 25.7072 47.5217 25.4495C47.8951 25.1918 48.2723 24.9517 48.6533 24.7291C49.0381 24.5098 49.4279 24.2965 49.8227 24.0892C50.2188 23.8918 50.6168 23.6977 51.028 23.5234C51.2298 23.4329 51.4373 23.349 51.6485 23.2668C51.7541 23.2257 51.8598 23.1829 51.9673 23.1451L52.32 23.0184C52.8348 22.8356 53.4065 22.8147 53.9371 22.9591C54.4678 23.1036 54.9242 23.4045 55.2283 23.8103C55.5324 24.2161 55.6653 24.7015 55.604 25.1833C55.5428 25.6652 55.2913 26.1134 54.8927 26.4513L54.4909 26.823Z" fill="#FF8B7B"/>
<path d="M49.9867 33.7316L48.8362 34.4274C48.0025 35.4834 49.7453 36.1824 49.7453 36.1824L50.4281 36.8141C50.5565 36.9186 50.7234 36.98 50.8989 36.9872C51.0744 36.9944 51.2471 36.9471 51.3862 36.8536L52.1954 36.3733C52.5632 36.1545 52.6896 35.7449 52.4745 35.4653L51.9898 34.8353C51.8488 34.6529 51.6584 34.5037 51.4353 34.401L49.9867 33.7316Z" fill="#FF8B7B"/>
<path d="M53.8609 22.2667C51.6126 22.3095 48.5797 24.7225 48.5797 24.7225C48.7099 26.0516 49.6058 28.5354 50.7997 29.4713C50.7997 29.4713 54.1476 28.4334 55.3906 26.8905C56.7467 25.216 56.2506 22.2223 53.8609 22.2667Z" fill="#6E2929"/>
<path d="M57.205 21.737C54.438 21.4196 52.6216 21.4969 52.5254 22.4706C52.301 24.7258 53.4176 28.9614 54.951 29.8019C56.4844 30.6424 59.1552 21.9607 57.205 21.737Z" fill="#263238"/>
<path d="M63.5993 26.7606C63.5266 26.761 63.4547 26.7482 63.3881 26.7227L63.1353 26.624C62.8826 26.5253 62.628 26.4135 62.3809 26.2951C61.3876 25.8111 60.5058 25.1708 59.7799 24.4067C59.4952 24.113 59.2573 23.7871 59.0726 23.4379C58.9142 23.1237 58.6199 22.5365 59.0367 22.2108C59.3442 21.969 60.3382 22.1944 60.5457 22.2453C62.8524 22.5825 66.0155 23.7702 66.0513 23.7817L66.1003 23.7998L66.1117 23.8475C66.1418 23.9675 66.1569 24.0712 66.1682 24.1452V24.1814C66.3927 25.7786 64.6895 26.4036 64.0501 26.6388L63.7936 26.731C63.7315 26.7512 63.6656 26.7612 63.5993 26.7606ZM59.5026 22.2799C59.389 22.2694 59.2745 22.2913 59.1763 22.3424C58.8727 22.5793 59.1179 23.0678 59.265 23.3589C59.4408 23.6938 59.6686 24.006 59.9421 24.2867C60.6516 25.0325 61.5129 25.6576 62.4827 26.1306C62.726 26.2506 62.975 26.3609 63.2221 26.4595L63.4729 26.5582C63.5527 26.5869 63.6422 26.5869 63.7219 26.5582L63.9784 26.4645C64.5782 26.2457 66.1739 25.6601 65.9702 24.2028V24.1682C65.9608 24.1057 65.9476 24.0235 65.9249 23.9281C65.51 23.7751 62.6374 22.7322 60.5136 22.423H60.5023C60.1769 22.3402 59.8413 22.2921 59.5026 22.2799Z" fill="white"/>
<path d="M65.0269 24.3014C64.9873 24.0267 64.8949 23.6171 64.5535 23.3836C64.5294 23.0205 64.65 22.6614 64.8949 22.367L61.0038 19.9523C60.8963 21.2995 60.8057 22.3637 60.0513 22.821C60.1852 23.3934 61.5168 24.8886 63.6085 25.7029C64.727 25.29 65.1118 24.9034 65.0269 24.3014Z" fill="#FF8B7B"/>
<path opacity="0.2" d="M64.8173 22.474L61.626 21.3982C62.2956 22.6286 63.7007 23.4165 64.5495 23.2273C64.5639 22.9605 64.6561 22.7012 64.8173 22.474Z" fill="black"/>
<path d="M60.3796 18.0673C60.5191 19.9655 60.6606 21.2535 61.9281 22.0512C64.4423 23.6385 65.9475 22.6006 66.4548 20.6975C66.9188 18.9868 66.6114 16.1691 64.4725 15.4338C63.9995 15.2721 63.4871 15.2177 62.9834 15.2756C62.4797 15.3335 62.001 15.5018 61.5921 15.7649C61.1833 16.0279 60.8576 16.3771 60.6456 16.7798C60.4335 17.1824 60.342 17.6254 60.3796 18.0673Z" fill="#FF8B7B"/>
<path d="M65.6681 21.2995C65.6681 21.2995 65.0627 21.3226 63.4312 21.0495C63.716 20.6399 64.1479 20.3406 64.9816 20.487C65.0892 20.4982 65.1931 20.5286 65.2868 20.5762C65.3805 20.6238 65.462 20.6876 65.5264 20.7637C65.5907 20.8399 65.6364 20.9267 65.6608 21.0188C65.6852 21.111 65.6877 21.2065 65.6681 21.2995Z" fill="#263238"/>
<path d="M64.4815 20.7748C64.7324 20.8242 64.9883 20.8517 65.2454 20.857C65.4 20.8455 65.4246 20.7896 65.4755 20.7024C65.3426 20.5841 65.1691 20.5068 64.9813 20.482C64.6678 20.4115 64.3364 20.4329 64.0383 20.5429C64.0269 20.6547 64.2476 20.7402 64.4815 20.7748Z" fill="white"/>
<path d="M65.5909 21.2995C65.5865 21.2435 65.5647 21.1895 65.5279 21.1434C65.491 21.0973 65.4404 21.0609 65.3815 21.038C64.8982 20.9575 64.4079 20.9135 63.916 20.9064C63.8377 20.8991 63.7586 20.9094 63.6862 20.9365C63.6139 20.9636 63.5508 21.0065 63.5029 21.061C64.1904 21.1896 64.8886 21.2694 65.5909 21.2995Z" fill="white"/>
<path d="M60.6738 19.6924C62.1828 19.2401 62.0866 17.3896 61.8168 16.7876C63.2579 17.1363 67.1829 17.5163 66.138 16.1938C65.0931 14.8713 63.0447 14.692 61.6924 14.993C60.34 15.294 59.8968 15.7365 59.9722 16.0046C58.6783 16.0589 57.7126 18.0953 60.6738 19.6924Z" fill="#263238"/>
<path d="M59.3512 19.9392C59.4813 20.1467 59.657 20.3298 59.8684 20.478C60.0797 20.6262 60.3225 20.7366 60.5828 20.8028C61.2826 20.9755 61.641 20.4294 61.4524 19.852C61.2845 19.3339 60.7168 18.6184 60.0113 18.7006C59.3059 18.7829 59.0381 19.4227 59.3512 19.9392Z" fill="#FF8B7B"/>
<path d="M63.8162 18.5263C63.8162 18.6809 63.9124 18.8059 64.0274 18.8042C64.1425 18.8026 64.2368 18.6776 64.2368 18.523C64.2368 18.3683 64.1425 18.2433 64.0255 18.245C63.9086 18.2466 63.8162 18.3716 63.8162 18.5263Z" fill="#263238"/>
<path d="M65.6965 18.5444C65.6965 18.699 65.7908 18.8223 65.9078 18.8207C66.0247 18.819 66.1171 18.694 66.1171 18.5394C66.1171 18.3848 66.0228 18.2598 65.9059 18.2614C65.789 18.2631 65.6965 18.3881 65.6965 18.5444Z" fill="#263238"/>
<path d="M65.1096 18.7121V20.0132C65.2292 20.0525 65.358 20.0658 65.4848 20.0521C65.6116 20.0383 65.7327 19.9979 65.8377 19.9342C65.6899 19.4889 65.4425 19.0736 65.1096 18.7121Z" fill="#FF5652"/>
<path d="M63.4988 17.9144C63.488 17.9022 63.4803 17.8882 63.4762 17.8732C63.4718 17.8495 63.4782 17.8252 63.4941 17.8055C63.5099 17.7859 63.534 17.7724 63.5611 17.768C63.7235 17.7378 63.8919 17.742 64.0521 17.7804C64.2123 17.8187 64.3595 17.8901 64.4815 17.9884C64.4914 17.9967 64.4993 18.0066 64.5047 18.0177C64.5101 18.0287 64.5129 18.0405 64.5129 18.0525C64.5129 18.0645 64.5101 18.0764 64.5047 18.0874C64.4993 18.0984 64.4914 18.1084 64.4815 18.1167C64.4618 18.1334 64.4354 18.1427 64.408 18.1427C64.3805 18.1427 64.3541 18.1334 64.3344 18.1167C64.2357 18.0412 64.1181 17.9869 63.991 17.9584C63.8639 17.9298 63.7308 17.9277 63.6026 17.9522C63.583 17.955 63.5628 17.953 63.5445 17.9463C63.5261 17.9396 63.5103 17.9285 63.4988 17.9144Z" fill="#263238"/>
<path d="M66.6866 18.0212C66.6742 18.0316 66.6592 18.0391 66.6427 18.0431C66.6263 18.0471 66.6089 18.0475 66.5922 18.0443C66.4654 18.0176 66.3331 18.0178 66.2064 18.045C66.0797 18.0722 65.9623 18.1256 65.8642 18.2005C65.8546 18.209 65.8431 18.2157 65.8305 18.2203C65.8178 18.2249 65.8043 18.2272 65.7906 18.2272C65.777 18.2272 65.7634 18.2249 65.7508 18.2203C65.7382 18.2157 65.7267 18.209 65.7171 18.2005C65.698 18.1834 65.6873 18.1603 65.6873 18.1364C65.6873 18.1124 65.698 18.0894 65.7171 18.0722C65.8399 17.9761 65.9877 17.9073 66.1476 17.8718C66.3076 17.8363 66.475 17.8351 66.6356 17.8683C66.649 17.8706 66.6617 17.8753 66.6731 17.8819C66.6844 17.8886 66.6941 17.8971 66.7016 17.907C66.7092 17.917 66.7144 17.9281 66.717 17.9398C66.7196 17.9515 66.7195 17.9635 66.7167 17.9752C66.7118 17.9927 66.7013 18.0086 66.6866 18.0212Z" fill="#263238"/>
<path d="M67.6543 24.5005C70.144 25.5976 71.0645 26.5846 70.7325 27.5189C69.6951 30.4418 67.3073 32.0045 65.4966 31.9469C63.6859 31.8893 65.8983 23.7257 67.6543 24.5005Z" fill="#263238"/>
<path d="M50.5752 62.5418C51.1509 62.7469 51.7941 62.7551 52.3765 62.5648C52.3765 62.5648 53.3196 62.203 53.4365 61.7852C53.5534 61.3673 51.705 61.0581 50.7582 61.3476C49.8113 61.6371 50.5752 62.5418 50.5752 62.5418Z" fill="#263238"/>
<path d="M53.4271 64.9598C53.4177 64.9614 53.4081 64.9614 53.3988 64.9598C52.8314 64.8323 52.2396 64.8099 51.6617 64.894C51.6394 64.8977 51.6164 64.895 51.596 64.8864C51.5757 64.8778 51.559 64.8638 51.5485 64.8463C51.5384 64.8287 51.5348 64.8088 51.5382 64.7894C51.5416 64.77 51.5518 64.7519 51.5673 64.7377C51.9527 64.4438 52.4016 64.22 52.8876 64.0798C52.2765 63.9464 51.6446 63.9003 51.0166 63.9433C50.9934 63.9462 50.9698 63.9424 50.9494 63.9323C50.929 63.9223 50.913 63.9066 50.9039 63.8878C50.8948 63.869 50.8932 63.848 50.8992 63.8283C50.9053 63.8085 50.9187 63.7911 50.9374 63.7788C51.443 63.3963 52.0783 63.1687 52.7462 63.1307C51.9748 62.7836 50.6224 63.1307 50.6073 63.1438C50.5805 63.151 50.5516 63.1487 50.5268 63.1372C50.5021 63.1258 50.4835 63.1063 50.4753 63.083C50.4709 63.0714 50.4693 63.0592 50.4705 63.0471C50.4716 63.035 50.4756 63.0232 50.4821 63.0125C50.4886 63.0017 50.4976 62.9922 50.5084 62.9846C50.5192 62.9769 50.5317 62.9712 50.5451 62.9678C50.6186 62.9481 52.3595 62.4892 53.131 63.1471C53.1464 63.1596 53.1571 63.1759 53.1615 63.1939C53.1659 63.2119 53.1638 63.2306 53.1555 63.2475C53.1475 63.2648 53.1336 63.2795 53.1158 63.2898C53.0979 63.3001 53.0769 63.3054 53.0555 63.305C52.4425 63.2982 51.8409 63.4492 51.3259 63.7393C51.9963 63.7125 52.6662 63.7991 53.2988 63.9942C53.3198 64.0013 53.3375 64.0141 53.3494 64.0307C53.3613 64.0473 53.3667 64.0668 53.3648 64.0864C53.3625 64.1062 53.3531 64.1248 53.3378 64.1396C53.3225 64.1544 53.3023 64.1645 53.28 64.1686C52.8194 64.2625 52.3826 64.4298 51.9917 64.6621C52.4818 64.6308 52.9744 64.6703 53.4497 64.7789C53.4746 64.7848 53.4961 64.7984 53.5102 64.8173C53.5243 64.8361 53.5301 64.8587 53.5263 64.881C53.5226 64.9032 53.5097 64.9235 53.4901 64.938C53.4704 64.9525 53.4453 64.9603 53.4195 64.9598H53.4271Z" fill="white"/>
<path d="M64.7138 28.7607L61.6582 28.1028L60.6076 28.5782L58.9912 32.1081C59.1798 32.4206 59.276 32.6016 59.4552 32.9091L62.5126 33.5671L63.5613 33.0917L65.1777 29.5602C64.9891 29.2476 64.8948 29.0733 64.7138 28.7607ZM62.1844 31.8613L61.1471 31.6393L61.9845 29.8085L63.0219 30.0306L62.1844 31.8613Z" fill="white"/>
<path d="M62.7258 33.0802L59.6702 32.4223L58.6215 32.8976L57.0051 36.4276L57.4691 37.227L60.5247 37.8849L61.5734 37.4112L63.1917 33.8796C63.0162 33.5688 62.9144 33.3928 62.7258 33.0802ZM60.1965 36.1825L59.1591 35.9588L59.9984 34.1297L61.0358 34.3517L60.1965 36.1825Z" fill="white"/>
<mask id="mask0_1692_1618" style="mask-type:luminance" maskUnits="userSpaceOnUse" x="12" y="24" width="7" height="7">
<path d="M15.3946 30.4055C17.013 30.4055 18.325 29.1826 18.325 27.674C18.325 26.1655 17.013 24.9426 15.3946 24.9426C13.7761 24.9426 12.4641 26.1655 12.4641 27.674C12.4641 29.1826 13.7761 30.4055 15.3946 30.4055Z" fill="white"/>
</mask>
<g mask="url(#mask0_1692_1618)">
<path d="M12.4432 27.6751C12.4432 28.215 12.6149 28.7428 12.9365 29.1918C13.2581 29.6408 13.7153 29.9909 14.2502 30.1979C14.7852 30.4049 15.374 30.4595 15.9422 30.3547C16.5104 30.25 17.0325 29.9906 17.4427 29.6095C17.8529 29.2283 18.1327 28.7423 18.2467 28.213C18.3608 27.6837 18.304 27.1348 18.0836 26.6355C17.8631 26.1363 17.4889 25.7091 17.0081 25.408C16.5274 25.1069 15.9617 24.9453 15.3824 24.9437C14.997 24.9429 14.6151 25.0129 14.2587 25.1498C13.9022 25.2867 13.5783 25.4877 13.3053 25.7414C13.0323 25.9951 12.8156 26.2965 12.6677 26.6283C12.5198 26.9601 12.4435 27.3158 12.4432 27.6751Z" fill="white"/>
<path d="M12.4431 27.6755C12.4433 27.1346 12.6159 26.6059 12.9388 26.1565C13.2618 25.707 13.7207 25.3571 14.2572 25.1511C14.7938 24.945 15.3839 24.8921 15.9528 24.999C16.5217 25.1059 17.0437 25.3679 17.4527 25.7517C17.8616 26.1354 18.1392 26.6238 18.25 27.1547C18.3609 27.6857 18.3001 28.2354 18.0754 28.7341C17.8508 29.2329 17.4723 29.6582 16.9879 29.9562C16.5036 30.2542 15.9353 30.4114 15.3549 30.408C14.5804 30.4045 13.839 30.1149 13.2932 29.6027C12.7473 29.0905 12.4417 28.3974 12.4431 27.6755ZM17.1844 26.8229C17.1552 26.4857 17.0865 26.1525 16.9796 25.8293C16.9742 25.8163 16.9641 25.8055 16.9511 25.7987C16.6706 25.6359 16.3738 25.4991 16.0648 25.3903C16.0494 25.3862 16.0331 25.3862 16.0177 25.3903L15.6682 25.4924C15.4328 25.5586 15.2083 25.6548 15.0011 25.7783C14.9932 25.781 14.9866 25.7864 14.9825 25.7933C14.9785 25.8003 14.9773 25.8084 14.9792 25.8161C15.0307 26.1316 15.0811 26.4471 15.1326 26.7616C15.134 26.7681 15.137 26.7743 15.1411 26.7797C15.1452 26.7852 15.1505 26.7898 15.1567 26.7933C15.5218 26.958 15.8848 27.1217 16.2456 27.2844C16.2589 27.2895 16.2739 27.2895 16.2872 27.2844L17.1636 26.8443C17.1702 26.8453 17.1767 26.8321 17.1844 26.8229ZM13.8202 27.6193L14.1882 27.6367C14.2017 27.6374 14.215 27.6334 14.2255 27.6255C14.5016 27.3593 14.7762 27.0924 15.0493 26.8249C15.0576 26.8162 15.0619 26.8049 15.0613 26.7933C15.0124 26.4822 14.9624 26.1707 14.9113 25.8589C14.9047 25.814 14.9047 25.814 14.8532 25.8079C14.5792 25.7696 14.3017 25.7573 14.025 25.7711C14.0064 25.7721 13.9886 25.779 13.9746 25.7905C13.7091 26.0198 13.4616 26.2665 13.2341 26.5288C13.2261 26.5388 13.2222 26.5511 13.2231 26.5635C13.2395 26.6769 13.2571 26.7892 13.2746 26.9015C13.3085 27.129 13.3557 27.3547 13.4159 27.5775C13.4159 27.5928 13.4236 27.603 13.4455 27.604C13.5704 27.6071 13.6953 27.6132 13.8202 27.6193ZM17.2085 26.9046L17.18 26.9189L16.3234 27.3498C16.313 27.3542 16.3042 27.3613 16.2978 27.3701C16.2914 27.3789 16.2877 27.3892 16.2872 27.3998C16.2587 27.604 16.228 27.8082 16.1985 28.0074C16.1744 28.1646 16.1514 28.3229 16.1295 28.4812C16.1285 28.4881 16.1291 28.4952 16.1314 28.5019C16.1337 28.5086 16.1375 28.5148 16.1426 28.52L16.7188 29.0019C16.7239 29.0052 16.7296 29.0074 16.7357 29.0085C16.7417 29.0095 16.7479 29.0094 16.7539 29.0081C17.0751 28.9091 17.3778 28.7641 17.6511 28.5782C17.6718 28.5647 17.6859 28.5441 17.6905 28.521C17.7423 28.2894 17.7789 28.0552 17.8001 27.8195C17.8026 27.7968 17.7989 27.774 17.7891 27.7531C17.7157 27.6153 17.6456 27.4764 17.57 27.3447C17.4671 27.1861 17.3459 27.0385 17.2085 26.9046ZM13.7939 27.6857L13.4258 27.6704C13.4192 27.6708 13.4128 27.6724 13.4069 27.6752C13.4011 27.678 13.3959 27.6819 13.3918 27.6867C13.3557 27.7388 13.3206 27.7888 13.2823 27.845C13.1798 28.0303 13.1039 28.2274 13.0566 28.4311C13.0552 28.441 13.0571 28.4509 13.0621 28.4597C13.1848 28.7005 13.3212 28.935 13.4707 29.1622C13.4795 29.1737 13.4917 29.1826 13.5057 29.1878C13.6416 29.2235 13.7774 29.2633 13.9166 29.2899C14.1191 29.3253 14.3252 29.3393 14.5311 29.3317C14.5519 29.3317 14.553 29.3185 14.5585 29.3062C14.6315 29.1217 14.702 28.9369 14.7699 28.7518C14.7743 28.7442 14.7765 28.7358 14.7765 28.7272C14.7765 28.7187 14.7743 28.7103 14.7699 28.7027L14.208 27.7235C14.2045 27.7163 14.1988 27.7102 14.1915 27.706C14.1843 27.7018 14.1759 27.6997 14.1674 27.7L13.7939 27.6857ZM15.4141 29.9607H15.4294C15.7126 29.9342 15.9931 29.8874 16.2686 29.8209C16.2812 29.8172 16.2922 29.8101 16.3003 29.8004C16.4716 29.586 16.5983 29.3435 16.6739 29.0857C16.6771 29.0775 16.6773 29.0686 16.6745 29.0603C16.6718 29.052 16.6662 29.0448 16.6586 29.0397C16.4731 28.8865 16.2905 28.733 16.1108 28.5792C16.1016 28.5707 16.0902 28.5646 16.0777 28.5616C16.0652 28.5585 16.0521 28.5586 16.0396 28.5618L14.8883 28.7538C14.8788 28.7545 14.8699 28.758 14.8626 28.7637C14.8554 28.7693 14.8502 28.7769 14.8477 28.7854C14.7798 28.9652 14.7119 29.1439 14.6418 29.3226C14.6369 29.3335 14.6353 29.3455 14.6372 29.3572C14.6392 29.3689 14.6445 29.3799 14.6527 29.3889C14.8454 29.6338 15.1023 29.8286 15.3988 29.9546C15.4036 29.9571 15.4088 29.9592 15.4141 29.9607ZM12.7203 26.7095L12.7597 26.6942L13.1201 26.5421C13.138 26.5338 13.154 26.5223 13.1672 26.5084C13.4113 26.2298 13.6756 25.9671 13.9582 25.7221C13.9691 25.7121 13.9773 25.6999 13.9823 25.6864L14.0776 25.4607L14.1554 25.2769C13.5002 25.5668 12.9877 26.0777 12.7214 26.7065L12.7203 26.7095ZM18.1211 27.0026L18.1112 27.0291C18.0382 27.2374 17.9673 27.4457 17.8987 27.6541C17.8868 27.6805 17.8787 27.7083 17.8746 27.7368C17.8525 28.0116 17.8093 28.2846 17.7453 28.5537C17.7374 28.5802 17.7337 28.6078 17.7343 28.6353C17.7486 28.7436 17.7661 28.8508 17.7825 28.959C17.7825 28.9917 17.7924 29.0254 17.799 29.0663C18.0197 28.7319 18.1574 28.3558 18.2021 27.9655C18.2415 27.6426 18.214 27.3158 18.1211 27.0026ZM14.9879 30.3049C15.3346 30.3492 15.687 30.3336 16.0276 30.2589C16.3652 30.1854 16.6848 30.053 16.9697 29.8688C16.7747 29.8617 16.5797 29.8586 16.3858 29.8556C16.3747 29.8563 16.3637 29.858 16.3529 29.8607C16.0712 29.9314 15.7841 29.9819 15.4941 30.0118C15.4499 30.0118 15.4067 30.0243 15.3703 30.0475C15.2542 30.1292 15.1347 30.2058 15.0164 30.2844L14.9879 30.3049ZM13.5211 29.6922C13.5211 29.6799 13.5211 29.6748 13.5211 29.6708C13.5014 29.5482 13.4827 29.4267 13.463 29.3052C13.4605 29.2751 13.4519 29.2456 13.4378 29.2184C13.2779 28.973 13.1316 28.7202 12.9996 28.4607C12.9932 28.4487 12.9846 28.4376 12.9744 28.4281L12.5844 28.1136L12.5647 28.1013C12.6227 28.4382 12.7503 28.7614 12.9405 29.053C13.0966 29.2927 13.2921 29.5081 13.52 29.6912L13.5211 29.6922ZM15.6945 25.038L15.7099 25.0533C15.8118 25.138 15.9125 25.2238 16.0144 25.3075C16.0245 25.3155 16.036 25.3218 16.0484 25.3259C16.3806 25.4402 16.6999 25.5849 17.0015 25.7578C17.0235 25.7694 17.0476 25.777 17.0727 25.7803C17.122 25.7864 17.1724 25.7905 17.2228 25.7946L17.3882 25.8089C16.9357 25.3778 16.3375 25.1055 15.6945 25.038Z" fill="#263238"/>
<path d="M17.1845 26.8225C17.1768 26.8317 17.1702 26.8449 17.1593 26.8501L16.2829 27.2902C16.2695 27.2953 16.2546 27.2953 16.2412 27.2902C15.8761 27.1281 15.5131 26.9644 15.1523 26.799C15.1462 26.7955 15.1409 26.7909 15.1368 26.7855C15.1326 26.78 15.1297 26.7739 15.1282 26.7673C15.0767 26.4528 15.0263 26.1373 14.9749 25.8218C14.973 25.8141 14.9742 25.806 14.9782 25.7991C14.9822 25.7921 14.9888 25.7868 14.9968 25.784C15.204 25.6605 15.4285 25.5643 15.6639 25.4981L16.0134 25.396C16.0288 25.3919 16.0451 25.3919 16.0605 25.396C16.3695 25.5049 16.6663 25.6417 16.9467 25.8044C16.9598 25.8112 16.9699 25.822 16.9752 25.8351C17.0832 26.1561 17.1534 26.4872 17.1845 26.8225Z" fill="white"/>
<path d="M13.8203 27.619C13.6954 27.6128 13.5705 27.6067 13.4457 27.6026C13.4238 27.6026 13.4205 27.5914 13.4161 27.5761C13.3558 27.3533 13.3087 27.1276 13.2748 26.9001C13.2572 26.7878 13.2397 26.6755 13.2233 26.5621C13.2224 26.5497 13.2262 26.5374 13.2342 26.5274C13.4618 26.2651 13.7093 26.0184 13.9748 25.7891C13.9888 25.7776 14.0065 25.7707 14.0252 25.7697C14.3019 25.7559 14.5793 25.7682 14.8534 25.8065C14.9049 25.8126 14.9049 25.8126 14.9114 25.8575C14.9618 26.1693 15.0118 26.4808 15.0615 26.7919C15.062 26.8035 15.0577 26.8148 15.0495 26.8235C14.7756 27.091 14.501 27.3579 14.2257 27.6241C14.2151 27.632 14.2019 27.636 14.1884 27.6353L13.8203 27.6179V27.619Z" fill="white"/>
<path d="M17.2087 26.9043C17.3459 27.0376 17.4671 27.1845 17.5702 27.3424C17.6501 27.4761 17.7203 27.615 17.7893 27.7508C17.799 27.7717 17.8028 27.7945 17.8002 27.8172C17.779 28.0529 17.7424 28.2871 17.6907 28.5187C17.6861 28.5418 17.6719 28.5623 17.6512 28.5759C17.378 28.7617 17.0752 28.9068 16.754 29.0057C16.7481 29.0071 16.7418 29.0072 16.7358 29.0062C16.7298 29.0051 16.724 29.0029 16.719 28.9996L16.1427 28.5177C16.1376 28.5125 16.1338 28.5063 16.1315 28.4996C16.1293 28.4929 16.1286 28.4858 16.1296 28.4789C16.1515 28.3206 16.1745 28.1623 16.1986 28.0051C16.2282 27.8008 16.2589 27.5966 16.2873 27.3975C16.2879 27.3869 16.2916 27.3766 16.2979 27.3678C16.3043 27.3589 16.3131 27.3519 16.3235 27.3475L17.1802 26.9165L17.2087 26.9043Z" fill="white"/>
<path d="M13.7941 27.6855L14.1688 27.7028C14.1773 27.7025 14.1857 27.7046 14.1929 27.7088C14.2001 27.713 14.2058 27.7191 14.2093 27.7263L14.7713 28.7056C14.7756 28.7131 14.7779 28.7215 14.7779 28.7301C14.7779 28.7386 14.7756 28.747 14.7713 28.7546C14.6983 28.9397 14.6278 29.1246 14.5599 29.309C14.5599 29.3213 14.5533 29.3346 14.5325 29.3346C14.3266 29.3421 14.1204 29.3281 13.9179 29.2927C13.7788 29.2631 13.6429 29.2233 13.5071 29.1906C13.493 29.1854 13.4808 29.1765 13.472 29.1651C13.3225 28.9378 13.1861 28.7033 13.0634 28.4625C13.0585 28.4538 13.0565 28.4438 13.0579 28.4339C13.1053 28.2302 13.1811 28.0331 13.2836 27.8478C13.3165 27.7937 13.3515 27.7457 13.3932 27.6896C13.3973 27.6848 13.4024 27.6808 13.4083 27.678C13.4141 27.6752 13.4205 27.6736 13.4271 27.6732L13.7952 27.6885L13.7941 27.6855Z" fill="white"/>
<path d="M15.4141 29.9604C15.4073 29.9591 15.4007 29.9571 15.3944 29.9543C15.098 29.8283 14.8411 29.6335 14.6484 29.3886C14.6402 29.3795 14.6348 29.3686 14.6329 29.3568C14.6309 29.3451 14.6325 29.3331 14.6374 29.3222C14.7075 29.1435 14.7755 28.9648 14.8434 28.7851C14.8458 28.7766 14.851 28.769 14.8583 28.7633C14.8655 28.7577 14.8745 28.7542 14.8839 28.7535L16.0397 28.5615C16.0521 28.5583 16.0653 28.5582 16.0778 28.5612C16.0903 28.5643 16.1017 28.5704 16.1109 28.5788C16.2942 28.7327 16.4768 28.8862 16.6586 29.0394C16.6662 29.0444 16.6718 29.0516 16.6746 29.0599C16.6773 29.0682 16.6771 29.0772 16.674 29.0853C16.5983 29.3432 16.4716 29.5856 16.3004 29.8001C16.2923 29.8098 16.2812 29.8169 16.2686 29.8205C15.9932 29.8871 15.7126 29.9339 15.4295 29.9604H15.4141Z" fill="white"/>
<path d="M12.7205 26.7092C12.9868 26.0805 13.4993 25.5695 14.1545 25.2796L14.0767 25.4634L13.9814 25.6891C13.9764 25.7026 13.9681 25.7148 13.9573 25.7248C13.6751 25.9698 13.4112 26.2325 13.1674 26.5111C13.1542 26.5251 13.1382 26.5365 13.1203 26.5448L12.7599 26.6969L12.7205 26.7092Z" fill="white"/>
<path d="M18.121 27.0023C18.2135 27.3145 18.241 27.6404 18.2021 27.9622C18.1574 28.3525 18.0196 28.7286 17.799 29.063C17.7924 29.0221 17.7869 28.9884 17.7825 28.9557C17.7661 28.8475 17.7486 28.7403 17.7343 28.632C17.7337 28.6045 17.7374 28.5769 17.7453 28.5504C17.8092 28.2813 17.8524 28.0083 17.8745 27.7335C17.8787 27.705 17.8868 27.6772 17.8986 27.6508C17.9717 27.4424 18.0425 27.2341 18.1112 27.0258L18.121 27.0023Z" fill="white"/>
<path d="M14.9882 30.3045L15.0166 30.2841C15.135 30.2054 15.2544 30.1289 15.3705 30.0472C15.4069 30.0239 15.4501 30.0114 15.4943 30.0114C15.7843 29.9815 16.0714 29.931 16.3531 29.8603C16.3639 29.8576 16.3749 29.8559 16.386 29.8552C16.5799 29.8552 16.7749 29.8613 16.9699 29.8685C16.685 30.0527 16.3654 30.185 16.0278 30.2585C15.6872 30.3332 15.3348 30.3488 14.9882 30.3045Z" fill="white"/>
<path d="M13.5202 29.6909C13.2911 29.5077 13.0944 29.2919 12.9374 29.0516C12.7478 28.7603 12.6205 28.4375 12.5627 28.101L12.5825 28.1132L12.9725 28.4267C12.9827 28.4363 12.9912 28.4473 12.9977 28.4594C13.1296 28.7188 13.2759 28.9717 13.4359 29.2171C13.45 29.2443 13.4585 29.2737 13.461 29.3039C13.4808 29.4254 13.4994 29.5469 13.5191 29.6694C13.5202 29.6735 13.5202 29.6786 13.5202 29.6909Z" fill="white"/>
<path d="M15.6947 25.0376C16.3376 25.1052 16.9358 25.3775 17.3883 25.8086L17.2229 25.7943C17.1725 25.7943 17.1221 25.7861 17.0728 25.78C17.0478 25.7767 17.0236 25.7691 17.0016 25.7575C16.7 25.5845 16.3808 25.4398 16.0485 25.3256C16.0361 25.3214 16.0246 25.3152 16.0146 25.3072C15.9127 25.2235 15.8119 25.1377 15.71 25.0529L15.6947 25.0376Z" fill="white"/>
</g>
</g>
</g>
<defs>
<clipPath id="clip0_1692_1618">
<rect width="82.125" height="79.2602" rx="4.5" fill="white"/>
</clipPath>
<clipPath id="clip1_1692_1618">
<rect width="94.3069" height="82.0523" fill="white" transform="translate(-7.25 -1.76016)"/>
</clipPath>
</defs>
</svg>
