<svg width="942" height="731" viewBox="0 0 942 731" fill="none" xmlns="http://www.w3.org/2000/svg">
<path d="M848.044 252.287L922.13 347.08C923.346 351.708 894.132 427.056 889.551 437.152C887.354 441.966 884.97 448.744 881.745 452.624C867.115 470.058 783.213 472.536 758.159 479.407L678.558 388.306L717.587 281.221C720.205 275.004 731.376 275.664 731.376 271.732C753.801 267.456 841.687 248.595 848.044 252.287Z" fill="url(#paint0_linear_1134_6634)"/>
<path d="M928.32 571.899C912.381 574.283 906.632 599.897 889.15 601.86L834.322 559.746L740.791 590.455L705.407 667.439C662.779 672.488 623.515 651.687 583.691 640.937C577.802 634.44 621.879 590.268 617.018 571.291C615.476 565.168 589.207 505.291 586.542 502.674C574.389 490.568 526.946 482.902 513.812 472.572C510.773 470.188 509.885 469.113 509.839 465.046C509.839 461.167 530.686 394.232 532.976 391.101C544.381 375.863 614.447 355.296 632.069 338.89L651.747 226.896C640.062 210.396 573.922 157.39 571.912 143.368C569.388 125.793 595.377 91.4841 606.922 77.742L680.4 72.3666C688.72 94.1017 699.237 153.277 715.504 167.066C727.142 176.929 802.397 194.644 817.822 191.185C833.761 187.632 868.771 141.732 873.024 141.732C882.934 147.715 912.942 192.494 923.646 176.648C934.116 161.13 907.193 139.582 896.208 130.187C681.849 -52.902 450.57 137.104 216.579 52.735C176.101 38.1515 137.866 12.5368 94.5357 4.02977C3.80942 -13.7789 36.856 29.6912 38.4453 90.0819C41.764 213.621 -26.5261 321.315 11.6154 442.75C35.5005 518.706 115.803 688.099 190.45 721.24C249.673 747.509 319.832 717.266 360.358 672.02C377.979 652.342 442.39 554.324 457.488 548.154C464.031 545.489 462.723 550.725 464.078 553.062C487.823 593.307 499.836 615.883 539.613 644.255C633.004 710.863 803.145 717.968 892.235 640.937C901.443 632.944 931.872 601.767 937.201 592.886C943.605 582.229 942.904 569.749 928.133 571.945L928.32 571.899ZM326.844 413.163C328.012 413.911 331.284 424.147 331.237 426.438C330.91 441.348 317.261 431.439 310.344 432.28C299.78 433.589 289.263 439.525 278.746 439.852C251.449 440.6 229.386 412.228 199.331 420.361C211.017 381.238 255.001 409.143 279.26 412.321C289.824 413.724 322.356 410.358 326.89 413.21L326.844 413.163ZM57.516 257.746C71.3984 239.75 117.252 207.171 139.408 203.945C179.466 198.103 214.102 226.849 226.629 263.448C229.199 271.02 238.782 309.302 237.893 313.696C237.379 316.22 232.004 320.847 228.498 319.679C183.719 263.588 119.683 248.117 51.72 269.384C49.9906 262.7 54.5245 261.672 57.516 257.746ZM299.546 615.135C212.466 642.012 161.938 606.955 127.489 528.709C120.945 513.892 87.1037 419.894 94.4422 412.649C128.938 411.2 151.701 442.984 182.691 454.342C221.861 468.739 299.126 471.403 340.726 466.495C356.899 464.579 436.126 436.674 443.932 443.592C421.496 494.774 354.515 598.121 299.546 615.088V615.135ZM441.549 300.842C398.265 297.43 357.553 317.388 319.692 335.197C326.47 279.294 377.652 228.392 437.202 239.376C463.237 244.19 497.125 291.073 506.053 315.799C483.71 315.051 463.751 302.571 441.502 300.842H441.549Z" fill="url(#paint1_linear_1134_6634)"/>
<defs>
<linearGradient id="paint0_linear_1134_6634" x1="678.558" y1="314.772" x2="922.167" y2="416.446" gradientUnits="userSpaceOnUse">
<stop stop-color="#FA4050"/>
<stop offset="1" stop-color="#F5E15F"/>
</linearGradient>
<linearGradient id="paint1_linear_1134_6634" x1="1.43991e-06" y1="201.874" x2="941.041" y2="529.126" gradientUnits="userSpaceOnUse">
<stop offset="0.0416521" stop-color="#59B0E3"/>
<stop offset="0.534673" stop-color="#FA4050"/>
<stop offset="0.895583" stop-color="#F5E15F"/>
</linearGradient>
</defs>
</svg>
