<svg width="120" height="93" viewBox="0 0 120 93" fill="none" xmlns="http://www.w3.org/2000/svg">
<g clip-path="url(#clip0_1690_638)">
<g clip-path="url(#clip1_1690_638)">
<g opacity="0.66">
<path d="M-30.0391 79.58C-25.6533 78.1942 -18.7675 76.4261 -10.2304 69.9565C-3.93986 65.1892 3.74344 63.9053 6.90042 63.9135C10.3775 63.9225 15.0084 64.9731 15.0084 64.9731C18.5266 70.4664 24.4265 82.4918 24.4265 82.4918L22.456 83.9988C19.7208 86.2721 -21.7426 95.682 -32.9046 92.0978C-32.9919 92.0697 -33.0695 92.0525 -33.1384 92.0442C-33.4159 93.3809 -34.0468 91.9347 -33.1384 92.0442C-33.0554 91.6447 -33.004 90.9964 -33.0347 89.9836C-33.1759 85.3261 -33.2324 84.3274 -33.0347 81.1957C-31.5162 79.9446 -29.8633 79.5865 -30.0391 79.58Z" fill="#2C29BC"/>
<path d="M107.437 67.3214C107.55 67.4317 109.235 68.2353 109.889 68.4711C110.542 68.7068 115.727 68.7484 115.438 68.1359C115.15 67.5233 114.921 67.4089 113.795 67.2628C112.67 67.1167 111.619 67.0795 111.902 66.8061C112.186 66.5326 115.516 66.1189 116.44 66.4351C117.363 66.7512 119.016 67.3765 119.466 66.8255C119.916 66.2745 119.23 65.8605 119.23 65.8605C119.23 65.8605 120.167 65.8228 119.836 65.315C119.505 64.8072 117.125 62.8097 116.004 62.5575C114.882 62.3052 108.527 63.3496 107.335 63.4236C106.976 63.446 104.744 63.9577 104.744 63.9577L103.193 67.6825L107.437 67.3214Z" fill="#FFB5AF"/>
<path d="M52.2936 69.9565L52.5408 58.4669C54.7515 58.6993 57.0354 58.834 59.318 58.9974L66.1974 59.417C70.8037 59.7168 75.3996 59.9946 80.0897 60.5792L80.9694 60.6964L81.8595 60.8358L82.7554 60.9754L83.6606 61.1588C83.9606 61.215 84.2771 61.2863 84.5322 61.3262C84.8059 61.3668 85.0824 61.3788 85.3587 61.3618C85.9128 61.2925 86.4691 61.2731 87.0234 61.3039C88.112 61.4735 89.2032 61.7081 90.3039 61.8637C90.8705 61.9603 91.41 62.0269 91.9662 62.1014C92.5224 62.1758 93.0725 62.2572 93.6288 62.3318C98.0801 62.8916 102.627 63.2393 107.132 63.5131L107.278 67.211C106.123 67.4784 104.97 67.7099 103.819 67.9053L102.093 68.1841C101.518 68.2674 100.943 68.3507 100.368 68.4197C98.0694 68.7242 95.7177 68.9399 93.3768 69.048C92.2315 69.1139 91.0308 69.1413 89.8547 69.1338C89.2847 69.1092 88.6778 69.1407 88.0851 69.1151L87.2016 69.0769C86.9052 69.0641 86.6317 69.0523 86.3125 69.0385C85.7217 68.934 85.141 68.7617 84.5776 68.5238C84.2902 68.4257 83.9983 68.3481 83.7032 68.2914C83.3918 68.2347 83.1353 68.2237 82.8791 68.2054L82.0885 68.1352L80.4585 68.0648L79.632 68.0292C77.4179 67.9912 75.1644 68.0598 72.9086 68.1787L60.9061 69.1025L59.2652 69.2624L52.2936 69.9565Z" fill="#FFB5AF"/>
<path opacity="0.2" d="M62.0945 59.1671C62.0945 59.1671 59.8924 69.2016 59.8887 69.202C59.8851 69.2024 58.6831 69.3706 58.6831 69.3706L59.5444 59.0123L62.0945 59.1671Z" fill="black"/>
<path d="M17.7731 81.9627C13.6902 83.7509 -24.1646 81.5319 -33.0349 74.6328C-33.0349 69.9753 -33.1634 70.1509 -33.0349 68.2288C-32.8888 66.0428 -33.0349 62.9891 -33.0349 60.6603C-31.3388 60.0781 -31.6362 60.1119 -30.3657 60.0804C-25.333 59.9557 -20.9678 62.1138 -10.0022 57.8873C-1.92204 54.773 4.36125 55.0306 7.67216 56.0029C11.3189 57.0738 15.8536 59.5968 15.8536 59.5968C17.8435 66.4721 20.3083 80.9727 20.3083 80.9727L17.7731 81.9627Z" fill="#FFB5AF"/>
<path opacity="0.2" d="M63.6395 59.261C63.7173 59.2657 65.0674 61.5311 68.976 61.5567C72.4567 61.5795 73.8204 59.9476 73.8204 59.9476L63.6395 59.261Z" fill="black"/>
<path d="M18.5792 60.421L21.1388 85.1661C21.1388 85.1661 29.7017 83.0077 40.549 80.0346C47.2659 78.1935 56.6887 77.7891 59.0027 67.9877L59.6172 61.0715C59.0803 57.4879 58.4849 56.6514 57.694 54.9376C56.8236 53.0515 53.9033 49.4891 51.7569 49.595C48.196 49.7707 42.3539 52.4685 32.6875 58.0972C28.5451 60.5093 22.1519 60.204 18.5792 60.421Z" fill="#2246A1"/>
<path d="M9.60366 56.3943C9.60366 56.3943 9.9217 74.6283 -1.19141 82.1269C4.43447 84.474 10.7542 85.8983 17.5121 86.7398L26.3378 83.7768C26.3378 83.7768 26.9305 60.6008 26.3378 60.5818C25.7451 60.5628 14.2231 56.6899 9.60366 56.3943Z" fill="#2246A1"/>
<path d="M9.95732 58.7192C13.7756 59.7132 17.6045 60.6751 21.4481 61.5746C23.6666 62.0938 25.8742 62.7895 28.1711 62.3773C30.5662 61.9474 32.8193 60.8353 34.8754 59.6166C36.1677 58.8507 37.4374 58.0156 38.6053 57.0808C38.7564 56.9599 38.5394 56.7536 38.3895 56.8736C37.4383 57.6349 36.4125 58.3208 35.3743 58.9668C33.377 60.2098 31.2183 61.3399 28.902 61.9194C27.7842 62.1991 26.5948 62.3522 25.4469 62.1589C24.3012 61.966 23.1651 61.6718 22.0349 61.4098C19.5215 60.8272 17.017 60.2091 14.5159 59.5798C13.022 59.204 11.529 58.8247 10.0385 58.4367C9.84861 58.3873 9.7676 58.6699 9.95732 58.7192Z" fill="white"/>
<path d="M9.90434 57.4928C13.7226 58.4867 17.5515 59.4487 21.3951 60.3482C23.6136 60.8673 25.8212 61.5631 28.1181 61.1508C30.5132 60.7209 32.7663 59.6088 34.8224 58.3902C36.1147 57.6242 37.3845 56.7891 38.5524 55.8544C38.7034 55.7335 38.4864 55.5271 38.3365 55.6472C37.3853 56.4085 36.3595 57.0943 35.3213 57.7404C33.324 58.9834 31.1653 60.1134 28.849 60.693C27.7312 60.9727 26.5418 61.1257 25.3939 60.9325C24.2481 60.7396 23.1121 60.4454 21.9819 60.1834C19.4685 59.6008 16.964 58.9827 14.4629 58.3534C12.969 57.9776 11.476 57.5982 9.9855 57.2102C9.79564 57.1608 9.71462 57.4434 9.90434 57.4928Z" fill="white"/>
<path opacity="0.6" d="M41.6765 63.5055C40.2822 62.8631 25.4427 66.7278 24.2941 68.1854C23.3582 69.3729 26.1395 77.0535 27.2323 79.9452C27.4688 80.5711 28.1573 80.9246 28.8311 80.7667C32.7654 79.8447 45.223 76.909 45.6924 76.5936C46.2502 76.2189 43.071 64.1479 41.6765 63.5055Z" fill="white"/>
<path d="M41.676 63.5052C41.2371 63.303 39.2405 63.6274 36.675 64.2119L40.5124 77.969L40.513 77.9689C43.357 77.2696 45.5128 76.7136 45.6918 76.5933C46.2496 76.2187 43.0704 64.1476 41.676 63.5052Z" fill="#263238"/>
<path d="M34.1878 68.9571L29.4073 70.3204L29.0787 69.2585L32.9713 68.1483L32.6871 67.2303L33.575 66.9773L34.1878 68.9571Z" fill="#263238"/>
<path d="M31.6177 74.2926L30.7165 74.5498L29.6429 71.0823L30.3601 70.8778L32.6493 72.151C33.1784 72.4421 33.4463 72.4445 33.6787 72.3784C34.0542 72.2712 34.1957 71.9603 34.0454 71.4746C33.9238 71.0816 33.6632 70.792 33.273 70.6607L33.5529 69.7393C34.2018 69.9396 34.749 70.4822 35.0046 71.3078C35.3213 72.3308 34.9857 73.1682 34.1186 73.4155C33.6542 73.5479 33.1919 73.544 32.3718 73.0789L31.0071 72.32L31.6177 74.2926Z" fill="#263238"/>
<path d="M33.3624 77.9601C32.5566 78.1901 31.6344 77.8036 31.2305 76.4991C31.0317 75.857 31.0111 75.1424 31.2009 74.6029L32.1756 74.7742C32.0098 75.1996 32.0033 75.7295 32.1513 76.2084C32.3157 76.7391 32.6423 77.0028 33.0317 76.8914C33.3934 76.7883 33.5397 76.4686 33.3531 75.8658L33.2028 75.3805L33.9335 75.1718L35.3389 75.7982L34.7343 73.8447L35.6222 73.5918L36.6166 76.804L35.8994 77.0085L34.3495 76.3229C34.4685 77.1882 34.0657 77.7597 33.3624 77.9601Z" fill="#263238"/>
<path opacity="0.6" d="M44.2759 64.0614C44.5197 64.2487 46.93 74.3281 47.5784 74.9687C48.2268 75.6094 49.2016 74.9223 49.2016 74.9223C49.2016 74.9223 46.2757 63.3667 45.8204 63.4996C45.3652 63.6325 44.2759 64.0614 44.2759 64.0614Z" fill="white"/>
<path d="M59.5649 61.2376C59.8575 59.4079 59.9074 59.0907 61.2211 58.2841C61.9585 57.8191 62.838 57.4645 63.7339 57.1643L63.3627 55.3536L63.8219 47.3545C61.5754 50.1727 59.5935 53.1255 55.9242 52.3052C55.9242 52.3052 54.2465 61.7534 59.5649 61.2376Z" fill="#FFB5AF"/>
<path opacity="0.2" d="M60.9389 58.4674C60.5669 56.6997 60.6124 54.3666 62.1652 53.2945C62.8224 52.8468 63.5007 52.4816 63.99 52.3053L62.9672 57.4387C62.267 57.6976 61.8575 57.9255 60.9389 58.4674Z" fill="black"/>
<path d="M67.9167 42.2958C63.8092 46.5745 61.9816 48.298 61.7224 52.5531C61.3322 58.9536 67.3541 63.0555 72.6252 60.0882C77.3695 57.4176 83.2894 50.8691 81.1976 45.0168C79.1367 39.251 72.0241 38.017 67.9167 42.2958Z" fill="#FFB5AF"/>
<path d="M71.803 49.0737C71.349 49.506 71.1919 50.0897 71.4521 50.3777C71.7121 50.6656 72.2909 50.5486 72.7448 50.1165C73.1988 49.6843 73.3559 49.1005 73.0957 48.8126C72.8357 48.5247 72.257 48.6416 71.803 49.0737Z" fill="#263238"/>
<path d="M75.8082 53.3021C75.3693 53.7218 75.2235 54.2948 75.4828 54.582C75.7421 54.869 76.3082 54.7616 76.7472 54.3418C77.1861 53.9222 77.3318 53.3491 77.0726 53.062C76.8134 52.7748 76.2473 52.8824 75.8082 53.3021Z" fill="#263238"/>
<path d="M72.6086 46.746C72.6538 46.8063 72.7227 46.8475 72.8036 46.8545C74.066 46.9625 74.5439 47.9026 74.5494 47.9135C74.6199 48.0531 74.7903 48.1084 74.9316 48.0318C75.0725 47.955 75.1298 47.7779 75.0597 47.6354C75.0349 47.586 74.4362 46.4051 72.8694 46.2715C72.7133 46.2583 72.5717 46.378 72.5533 46.5389C72.5449 46.6164 72.5662 46.6896 72.6086 46.746Z" fill="#263238"/>
<path d="M79.3982 52.7774C79.4541 52.8075 79.5217 52.8146 79.5886 52.7909C79.727 52.742 79.8107 52.5824 79.7759 52.4347C79.426 50.9531 78.3029 50.6044 78.2545 50.5905C78.1196 50.5505 77.9728 50.6399 77.9266 50.7906C77.8804 50.9408 77.9521 51.0949 78.0865 51.1355C78.1307 51.1485 78.997 51.4329 79.2749 52.6112C79.293 52.6873 79.3391 52.7456 79.3982 52.7774Z" fill="#263238"/>
<path d="M74.9406 51.9587C74.9406 51.9587 73.8975 54.0854 73.567 55.7505C73.5093 56.0415 73.1654 56.1908 72.8921 56.0532C72.1887 55.699 71.788 54.9181 71.788 54.9181L74.9406 51.9587Z" fill="#FF726E"/>
<path d="M72.9237 48.6683L74.0956 49.4441C74.0956 49.4441 72.8211 49.5696 72.9237 48.6683Z" fill="#263238"/>
<path d="M76.9663 52.9689L78.1383 53.7447C78.1383 53.7447 76.8636 53.8703 76.9663 52.9689Z" fill="#263238"/>
<path d="M66.5137 46.4668C66.5137 46.4668 72.3523 44.5243 73.2216 42.4317C74.0908 40.3391 68.6094 41.1629 68.438 41.204C68.2665 41.2451 66.0806 43.2609 66.0806 43.2609L66.5137 46.27" fill="#263238"/>
<path d="M66.5137 46.4668C66.5137 46.4668 72.3523 44.5243 73.2216 42.4317C74.0908 40.3391 68.6094 41.1629 68.438 41.204C68.2665 41.2451 66.0806 43.2609 66.0806 43.2609L66.5137 46.27" fill="#263238"/>
<path d="M63.1433 44.1079C62.7029 45.4124 62.9031 46.7376 63.4179 47.6655C64.192 49.0611 66.6512 47.9952 67.473 46.5766C68.2128 45.2995 67.8677 43.5677 66.5918 42.6626C65.3348 41.7711 63.6468 42.6164 63.1433 44.1079Z" fill="#FFB5AF"/>
<path d="M69.8281 53.3119C69.7887 53.2749 69.7384 53.2481 69.6808 53.2372C69.5255 53.2075 69.3771 53.3042 69.3498 53.4536C69.0754 54.9519 70.0325 55.8424 70.0702 55.8876C70.1856 55.9939 70.3663 55.992 70.474 55.8833C70.5814 55.7748 70.5757 55.6015 70.4622 55.4948C70.4208 55.4592 69.6925 54.7642 69.9127 53.5616C69.93 53.4674 69.8951 53.3749 69.8281 53.3119Z" fill="#263238"/>
<path opacity="0.2" d="M65.8251 46.8224C65.8021 46.8224 65.7794 46.8152 65.7603 46.8001C65.717 46.7658 65.711 46.7041 65.7468 46.6626C66.0764 46.2791 66.295 45.8138 66.3785 45.3165C66.4333 44.9916 66.4473 44.5192 66.2024 44.1135C65.9798 43.7457 65.5469 43.5211 65.1775 43.5757C65.1203 43.5835 65.0698 43.5475 65.0611 43.4944C65.0523 43.441 65.0901 43.391 65.1457 43.3826C65.6049 43.3143 66.1109 43.5732 66.3781 44.0154C66.6536 44.471 66.6397 44.9914 66.5796 45.3478C66.4898 45.8791 66.2564 46.3768 65.9034 46.7869C65.8836 46.8104 65.8545 46.8224 65.8251 46.8224Z" fill="black"/>
<path d="M80.9049 41.4165C74.8701 33.5013 60.7454 34.744 61.0973 50.5806C61.0973 50.5806 65.1618 45.8472 67.8178 44.5841C67.8178 44.5841 73.9381 43.0076 77.9124 44.8369C82.9812 47.1701 79.7894 52.4585 79.7894 52.4585C79.491 53.732 78.7436 54.657 78.0033 55.7155C78.0033 55.7155 87.2628 49.7554 80.9049 41.4165Z" fill="#2246A1"/>
<path d="M73.8206 50.9898C73.8206 50.9898 74.6897 50.9675 75.1351 51.4241C75.5806 51.8807 75.2452 52.8202 75.2492 52.8046C75.2533 52.7889 76.2776 51.7804 76.2776 51.7804L74.5878 49.7282C74.5878 49.7282 74.1813 50.6917 73.8206 50.9898Z" fill="#2246A1"/>
<path d="M74.7586 49.7998C74.7412 49.5748 74.6201 49.3705 74.4954 49.1791C73.7652 48.058 72.8093 47.073 71.696 46.2944C71.4722 46.1379 71.2267 45.9845 70.9502 45.9705C70.6737 45.9564 70.2481 46.2168 69.9989 46.5221C69.4872 47.3263 69.3204 48.3368 69.5987 49.2405C69.877 50.1443 70.6108 50.9186 71.5396 51.2241C72.4684 51.5295 73.5684 51.3371 74.2929 50.7011C74.5598 50.4667 74.7853 50.1461 74.7586 49.7998Z" fill="#263238"/>
<path d="M79.7396 54.0839C79.6791 53.8714 79.528 53.6989 79.3762 53.5393C78.4872 52.6047 77.8205 52.1733 76.6499 51.6408C76.4146 51.5338 76.16 51.4338 75.9049 51.4735C75.6498 51.5132 75.3131 51.8446 75.1462 52.1852C74.8389 53.0546 74.8586 54.0717 75.3208 54.8684C75.7863 55.6709 76.4509 56.0457 77.3591 56.1601C78.2674 56.2745 78.9587 55.7864 79.4936 55.0374C79.6906 54.7614 79.8327 54.4107 79.7396 54.0839Z" fill="#263238"/>
<path d="M69.9988 46.5216L65.1619 39.0129L66.0803 38.3035L70.9501 45.97L69.9988 46.5216Z" fill="#2246A1"/>
<path opacity="0.4" d="M69.9988 46.5216L65.1619 39.0129L66.0803 38.3035L70.9501 45.97L69.9988 46.5216Z" fill="white"/>
<g opacity="0.4">
<path d="M76.7845 41.1387C75.6472 41.1556 74.5061 41.1723 73.3757 41.0507C73.1092 41.022 72.8379 40.984 72.5989 40.8674C72.3599 40.7508 72.1551 40.5411 72.1167 40.2864C72.0783 40.0317 72.2505 39.7454 72.5152 39.7043C71.8636 39.6547 71.2121 39.605 70.5605 39.5554C70.2904 39.5348 70.0154 39.5132 69.7637 39.4167C69.512 39.3202 69.2824 39.1357 69.2051 38.8864C69.1279 38.637 69.2459 38.3272 69.4998 38.2365C69.4998 38.2365 68.1313 38.6694 69.1817 39.4741C70.2321 40.2787 71.788 40.0051 71.788 40.0051C71.788 40.0051 70.9903 41.3517 72.7848 41.5305C74.5794 41.7093 76.7845 41.1387 76.7845 41.1387Z" fill="white"/>
</g>
<g opacity="0.2">
<path d="M73.4909 48.7175C73.0295 48.0289 72.4833 47.3223 71.6792 47.0489C70.7715 46.934 70.3155 47.5544 70.1205 48.1908C69.9255 48.8272 70.1349 49.5477 70.5995 50.0387C71.0643 50.5296 71.7582 50.7956 72.4491 50.8112C72.7414 50.8178 73.0401 50.7809 73.3037 50.6594C73.5673 50.5379 73.793 50.3243 73.8806 50.0565C74.0301 49.5991 73.7611 49.1207 73.4909 48.7175Z" fill="white"/>
</g>
<g opacity="0.2">
<path d="M78.5358 53.2892C77.9523 52.7428 77.2863 52.1972 76.4785 52.1086C75.6101 52.189 75.3267 52.8615 75.2891 53.4949C75.2515 54.1283 75.6081 54.7565 76.15 55.1181C76.6919 55.4796 77.3958 55.584 78.0406 55.4559C78.3134 55.4016 78.5822 55.3055 78.7995 55.1378C79.0167 54.9701 79.1782 54.7243 79.199 54.4567C79.2347 53.9994 78.8774 53.6092 78.5358 53.2892Z" fill="white"/>
</g>
<path d="M60.7399 44.1873C61.113 42.6309 61.7005 41.1205 62.6494 39.7991C63.6557 38.3979 65.0321 37.3129 66.5906 36.517C66.7642 36.4284 66.6101 36.1753 66.4365 36.264C64.8627 37.0677 63.48 38.1625 62.4484 39.5651C61.4493 40.9236 60.8319 42.4973 60.4455 44.1094C60.4015 44.2929 60.6958 44.3713 60.7399 44.1873Z" fill="#2246A1"/>
<path d="M52.4519 50.195C52.4519 50.195 42.3861 28.5017 33.8451 30.5183C25.304 32.5348 13.6116 43.5696 13.6116 43.5696L16.1274 46.5705C16.1274 46.5705 30.0852 39.0123 32.7851 38.8463C35.4849 38.6803 40.9125 54.0308 40.9125 54.0308L52.4519 50.195Z" fill="#FFB5AF"/>
<path d="M36.866 55.715C36.866 55.715 37.7119 57.6036 44.913 56.4743C52.1141 55.345 54.7111 51.0415 54.6471 50.9973C54.5831 50.953 53.1178 48.3183 50.9222 47.1673C48.0279 45.65 36.866 55.715 36.866 55.715Z" fill="#FFB5AF"/>
<path d="M16.1272 46.571C16.0978 46.7229 15.168 48.2927 14.7629 48.8388C14.3578 49.3849 10.0816 52.1987 9.96438 51.536C9.84714 50.8733 9.97093 50.6552 10.8192 49.9309C11.6675 49.2065 12.5179 48.612 12.1237 48.5372C11.7295 48.4623 8.72639 49.9045 8.14416 50.662C7.56201 51.4193 6.55508 52.824 5.86107 52.6082C5.16713 52.3925 5.49511 51.6813 5.49511 51.6813C5.49511 51.6813 4.69579 52.1525 4.67519 51.5536C4.65455 50.9547 5.46613 48.022 6.24921 47.2118C7.03237 46.4016 12.9121 43.8605 13.944 43.2829C14.2541 43.1093 16.4033 42.3372 16.4033 42.3372L19.8576 44.5953L16.1272 46.571Z" fill="#FFB5AF"/>
<path opacity="0.2" d="M33.0316 38.873L33.2936 35.4919C33.2936 35.4919 34.8966 37.2718 34.18 39.744C34.18 39.744 33.2783 38.8992 33.0316 38.873Z" fill="black"/>
<path opacity="0.2" d="M40.5257 52.6304C40.5257 52.6304 44.5104 53.8178 45.0319 54.0312C45.0319 54.0312 44.916 54.4453 38.6426 54.177L40.5257 52.6304Z" fill="black"/>
<g opacity="0.5">
<path d="M41.316 40.3561C41.4779 40.2 41.5047 39.9606 41.5224 39.741C41.6105 38.6468 41.6986 37.5526 41.7867 36.4583C42.4884 36.6383 42.7117 37.6357 43.4251 37.7665C43.8231 37.8395 44.2297 37.5825 44.4151 37.2367C44.444 37.1828 44.461 37.1251 44.4814 37.0685C41.2307 32.9578 37.4059 29.6776 33.8455 30.5183C31.2563 31.1296 28.3784 32.5715 25.6235 34.2816C25.6489 35.1107 25.8912 36.0628 26.6914 36.3484C27.1406 36.5088 27.6547 36.3984 28.0716 36.1713C28.4885 35.9443 28.8296 35.6114 29.1764 35.2938C29.8197 34.7046 30.5013 34.1541 31.2161 33.6465C31.7404 33.2742 32.3936 32.9082 33.0089 33.1161C33.4634 33.2696 33.7498 33.6956 33.9632 34.1103C34.1766 34.525 34.3657 34.9744 34.7389 35.2671C35.112 35.5597 35.7453 35.6117 36.0286 35.2376C36.179 35.039 36.2151 34.7494 36.4362 34.6261C36.6333 34.5162 36.8973 34.6007 37.0545 34.7591C37.2117 34.9174 37.2883 35.1319 37.3648 35.3379C37.9759 36.9818 38.8647 38.5303 39.9859 39.9046C40.1508 40.1067 40.3283 40.3111 40.5681 40.425C40.808 40.5388 41.1273 40.538 41.316 40.3561Z" fill="#2246A1"/>
</g>
<g opacity="0.5">
<path d="M81.0226 71.6563C71.4994 71.5414 62.1567 68.9648 52.6351 68.7621C42.5899 68.5482 32.6485 70.9813 22.601 70.9127C13.049 70.8474 3.696 68.5289 -5.72801 67.0405C-15.152 65.552 -25.4317 66.6096 -34.8082 68.3499V128.69L123.814 129.128L124.494 72.2845C119.327 58.5477 95.9954 71.8368 81.0226 71.6563Z" fill="#192CFF" fill-opacity="0.64"/>
</g>
<g opacity="0.3">
<path d="M81.6183 71.6569C72.0791 71.8311 64.1484 69.1703 54.6268 68.9676C44.5816 68.7537 34.8425 69.964 24.8243 70.6785C14.8354 71.3908 4.85355 68.7611 -4.54558 67.1428C-14.7973 65.3778 -25.4317 66.6101 -34.8082 68.3504V69.8863C-23.7309 67.264 -8.75255 67.5585 1.31898 72.6579C5.34831 74.6981 9.65052 77.4016 14.0853 76.3822C16.4064 75.8486 18.4192 74.3227 20.7886 74.0419C24.6059 73.5895 28.0156 76.4435 31.8405 76.834C38.9175 77.5566 44.7228 69.87 51.7902 70.6732C56.346 71.1909 59.9028 75.1714 64.4796 75.4791C68.8838 75.7751 72.8088 72.5828 77.2186 72.3742C80.1084 72.2375 82.8723 73.3941 85.7131 73.9178C88.5538 74.4415 91.976 74.1 93.593 71.8111C100.378 71.7904 107.207 68.4062 113.53 66.0576C102.963 66.2564 91.8676 71.4698 81.6183 71.6569Z" fill="white"/>
</g>
<path opacity="0.2" d="M-34.4436 100.427C-34.4436 100.427 -9.34724 112.787 4.83141 111.429C19.01 110.072 58.8926 91.0263 80.3207 88.5374C101.749 86.0485 124.494 95.1331 124.494 95.1331V107.756C124.494 107.756 96.4886 88.7014 80.9915 92.6194C65.4945 96.5374 30.102 120.184 1.68739 121.8C-26.7272 123.416 -34.4436 117.854 -34.4436 117.854V100.427Z" fill="white"/>
<path opacity="0.3" d="M78.0799 75.3549C78.0799 76.0449 76.805 76.6044 75.2325 76.6044C73.66 76.6044 72.3851 76.0449 72.3851 75.3549C72.3851 74.6648 73.6599 74.1053 75.2325 74.1053C76.8051 74.1053 78.0799 74.6648 78.0799 75.3549Z" fill="white"/>
<path opacity="0.3" d="M12.0506 94.7569C17.7532 94.9426 23.4706 94.5846 29.095 93.6922C34.7842 92.7896 40.3734 91.3423 45.7406 89.372C51.0397 87.4268 56.0174 84.8538 61.1732 82.6193C63.8128 81.4753 66.508 80.4297 69.2971 79.6404C72.1047 78.8459 74.9898 78.3022 77.8978 77.9421C83.7897 77.2124 89.752 77.2183 95.6842 77.305C96.4099 77.3156 97.1356 77.3276 97.8612 77.3396C98.0232 77.3423 98.0232 77.1089 97.8612 77.1063C91.9722 77.0083 86.0631 76.9169 80.1938 77.4611C77.3111 77.7283 74.4416 78.1496 71.6293 78.7998C68.8569 79.4408 66.1679 80.3298 63.5445 81.3759C58.2816 83.4744 53.3006 86.1268 48.0435 88.237C42.7323 90.369 37.1759 91.9755 31.5041 93.0388C25.806 94.107 19.9883 94.6238 14.1752 94.569C13.4668 94.5623 12.7586 94.5466 12.0506 94.5235C11.8888 94.5182 11.889 94.7516 12.0506 94.7569Z" fill="#192CFF" fill-opacity="0.64"/>
<path opacity="0.3" d="M34.3889 95.8785C38.9354 95.511 43.3785 94.3786 47.4893 92.5392C47.6351 92.474 47.5077 92.2727 47.3624 92.3377C43.2938 94.1582 38.8888 95.2814 34.3889 95.6451C34.2289 95.658 34.2274 95.8915 34.3889 95.8785Z" fill="#192CFF" fill-opacity="0.64"/>
<path opacity="0.3" d="M49.5913 91.5709C50.1146 91.5516 50.6177 91.3484 50.9867 91.0028C51.1008 90.896 50.923 90.7309 50.8089 90.8378C50.487 91.1392 50.0487 91.3207 49.5913 91.3375C49.43 91.3434 49.4291 91.5768 49.5913 91.5709Z" fill="#192CFF" fill-opacity="0.64"/>
</g>
</g>
</g>
<defs>
<clipPath id="clip0_1690_638">
<rect width="120" height="93" fill="white"/>
</clipPath>
<clipPath id="clip1_1690_638">
<rect y="12" width="121" height="117" rx="4.5" fill="white"/>
</clipPath>
</defs>
</svg>
