<svg width="355" height="363" viewBox="0 0 355 363" fill="none" xmlns="http://www.w3.org/2000/svg">
<path d="M53.4556 48.1463C53.4586 48.1493 53.4616 48.1969 53.4646 48.2873L53.4742 48.6853C53.4795 49.0505 53.4868 49.5597 53.4962 50.2124C53.508 51.552 53.5251 53.4779 53.5465 55.906L53.4556 55.8152C60.153 55.8018 70.804 55.7805 82.7858 55.7567C82.7197 55.8232 82.9365 55.6075 82.638 55.9058V55.6581L82.6381 55.4088V54.9112C82.6382 54.5801 82.6382 54.2502 82.6382 53.9213C82.6384 53.2636 82.6386 52.6108 82.6389 51.9631C82.6397 50.668 82.6406 49.3941 82.6413 48.1464L82.7874 48.2925C74.435 48.266 67.1266 48.2428 61.8847 48.2261C59.2737 48.2085 57.1784 48.1943 55.7149 48.1844C55.003 48.1762 54.4455 48.1698 54.0465 48.1652C53.8669 48.1614 53.7233 48.1582 53.6101 48.1558C53.5109 48.1526 53.4588 48.1496 53.4556 48.1463C53.4524 48.1431 53.4984 48.14 53.5914 48.1369C53.6998 48.1344 53.8376 48.1314 54.0099 48.1275C54.4013 48.1229 54.9483 48.1164 55.6466 48.1082C57.1022 48.0984 59.186 48.0842 61.7828 48.0666C67.0502 48.05 74.3943 48.0267 82.7874 48.0002L82.9336 47.9998L82.9336 48.1464C82.9345 49.3941 82.9353 50.668 82.9361 51.9631C82.9363 52.6108 82.9366 53.2636 82.9368 53.9213C82.9369 54.2502 82.9369 54.5801 82.9369 54.9112L82.937 55.4088V55.9058C82.638 56.2049 82.853 55.9887 82.7858 56.0555C70.804 56.0316 60.1529 56.0103 53.4556 55.9969L53.364 55.9967L53.3646 55.906C53.3861 53.4548 53.4031 51.5107 53.4149 50.1584C53.4243 49.5143 53.4317 49.0119 53.437 48.6517C53.4408 48.4949 53.444 48.3693 53.4465 48.2696C53.4496 48.1848 53.4525 48.1433 53.4556 48.1463Z" fill="url(#paint0_linear_1496_2533)"/>
<path d="M29.4814 89.9235C29.4784 89.9205 29.4754 89.8729 29.4724 89.7825L29.4628 89.3845C29.4576 89.0193 29.4502 88.5101 29.4408 87.8574C29.429 86.5178 29.4119 84.5919 29.3905 82.1638L29.4814 82.2546C22.784 82.268 12.133 82.2894 0.151253 82.3132C0.217355 82.2466 0.000496179 82.4623 0.29899 82.164V82.4117L0.298906 82.6611V83.1586C0.298837 83.4897 0.298849 83.8196 0.29878 84.1485C0.298573 84.8062 0.29843 85.4591 0.298085 86.1067C0.297326 87.4018 0.296429 88.6757 0.295663 89.9234L0.14959 89.7773C8.50197 89.8038 15.8104 89.8271 21.0523 89.8437C23.6633 89.8613 25.7587 89.8756 27.2222 89.8854C27.934 89.8936 28.4915 89.9 28.8905 89.9046C29.0701 89.9085 29.2137 89.9116 29.3269 89.9141C29.4261 89.9172 29.4783 89.9203 29.4814 89.9235C29.4846 89.9267 29.4386 89.9298 29.3456 89.933C29.2372 89.9354 29.0994 89.9384 28.9271 89.9423C28.5357 89.947 27.9887 89.9534 27.2904 89.9616C25.8348 89.9715 23.751 89.9856 21.1542 90.0032C15.8868 90.0198 8.54268 90.0432 0.14959 90.0697L0.00345337 90.0701L0.0033902 89.9234C0.0025001 88.6757 0.00173346 87.4018 0.000905457 86.1067C0.000698457 85.4591 0.000424471 84.8062 0.000210571 84.1485C0.000141571 83.8196 0.000153229 83.4897 8.42285e-05 83.1586L0 82.6611V82.164C0.299046 81.8649 0.0839784 82.0811 0.151253 82.0143C12.133 82.0383 22.7841 82.0595 29.4814 82.0729L29.5731 82.0731L29.5724 82.1638C29.5509 84.615 29.5339 86.5591 29.5221 87.9115C29.5127 88.5555 29.5053 89.0579 29.5 89.4182C29.4962 89.5749 29.493 89.7006 29.4905 89.8002C29.4874 89.885 29.4845 89.9265 29.4814 89.9235Z" fill="url(#paint1_linear_1496_2533)"/>
<g opacity="0.68" filter="url(#filter0_f_1496_2533)">
<ellipse cx="179.5" cy="319" rx="164.5" ry="33" fill="#D9D9D9"/>
</g>
<path d="M277.689 193.952L297.056 218.732C297.374 219.942 289.737 239.639 288.54 242.278C287.965 243.537 287.342 245.308 286.499 246.323C282.675 250.88 260.742 251.528 254.192 253.324L233.383 229.509L243.586 201.516C244.27 199.891 247.191 200.063 247.191 199.035C253.053 197.917 276.027 192.987 277.689 193.952Z" fill="url(#paint2_linear_1496_2533)"/>
<path d="M298.675 277.502C294.508 278.125 293.005 284.821 288.435 285.334L274.102 274.325L249.652 282.353L240.402 302.478C229.259 303.797 218.995 298.36 208.584 295.549C207.045 293.851 218.567 282.304 217.296 277.343C216.893 275.742 210.026 260.09 209.33 259.406C206.153 256.241 193.75 254.237 190.317 251.537C189.523 250.914 189.29 250.632 189.278 249.569C189.278 248.555 194.728 231.058 195.327 230.239C198.308 226.256 216.624 220.879 221.231 216.591L226.375 187.314C223.32 183.001 206.03 169.144 205.505 165.479C204.845 160.884 211.639 151.916 214.657 148.323L233.865 146.918C236.04 152.6 238.789 168.069 243.042 171.674C246.084 174.252 265.757 178.883 269.789 177.979C273.956 177.05 283.108 165.051 284.219 165.051C286.81 166.615 294.654 178.321 297.453 174.179C300.19 170.122 293.152 164.489 290.28 162.033C234.244 114.171 173.785 163.841 112.617 141.786C102.035 137.974 92.0398 131.278 80.7128 129.054C56.9958 124.398 65.6346 135.762 66.0501 151.549C66.9176 183.844 49.0657 211.996 59.0364 243.741C65.2803 263.597 86.2724 307.878 105.786 316.542C121.268 323.409 139.608 315.503 150.202 303.675C154.809 298.531 171.646 272.908 175.593 271.295C177.304 270.598 176.962 271.967 177.316 272.578C183.523 283.098 186.663 289 197.062 296.417C221.475 313.829 265.952 315.686 289.241 295.549C291.649 293.46 299.603 285.31 300.996 282.988C302.67 280.202 302.487 276.94 298.626 277.514L298.675 277.502ZM141.441 236.006C141.746 236.202 142.602 238.878 142.59 239.477C142.504 243.374 138.936 240.784 137.128 241.004C134.366 241.346 131.617 242.898 128.868 242.983C121.732 243.179 115.964 235.762 108.108 237.888C111.162 227.661 122.66 234.956 129.002 235.786C131.764 236.153 140.268 235.273 141.453 236.019L141.441 236.006ZM71.0354 195.378C74.6644 190.674 86.6512 182.157 92.443 181.314C102.915 179.787 111.969 187.302 115.244 196.869C115.916 198.849 118.421 208.856 118.188 210.004C118.054 210.664 116.649 211.874 115.732 211.569C104.027 196.906 87.2866 192.861 69.5203 198.421C69.0682 196.674 70.2534 196.405 71.0354 195.378ZM134.305 288.805C111.541 295.83 98.3326 286.666 89.3272 266.212C87.6165 262.338 78.77 237.766 80.6884 235.872C89.706 235.493 95.6566 243.802 103.758 246.771C113.997 250.535 134.195 251.231 145.07 249.948C149.298 249.447 170.009 242.153 172.049 243.961C166.184 257.341 148.675 284.357 134.305 288.792V288.805ZM171.426 206.644C160.112 205.752 149.469 210.97 139.572 215.625C141.343 201.011 154.723 187.705 170.29 190.576C177.096 191.835 185.955 204.091 188.288 210.554C182.448 210.359 177.23 207.096 171.414 206.644H171.426Z" fill="url(#paint3_linear_1496_2533)"/>
<path d="M36.3319 77.0005H7V84.7602H36.3319V77.0005Z" fill="#59B0E3"/>
<path d="M47 61.5586H76.3319V53.7989H47V61.5586Z" fill="#FA4050"/>
<path d="M79.0916 65.1468C79.0946 65.1498 79.0976 65.1974 79.1006 65.2878L79.1102 65.6858C79.1154 66.051 79.1228 66.5602 79.1322 67.2129C79.144 68.5525 79.1611 70.4784 79.1825 72.9065L79.0916 72.8157C85.789 72.8023 96.44 72.781 108.422 72.7572C108.356 72.8237 108.573 72.608 108.274 72.9063V72.6586L108.274 72.4093V71.9117C108.274 71.5806 108.274 71.2507 108.274 70.9218C108.274 70.2641 108.275 69.6112 108.275 68.9636C108.276 67.6685 108.277 66.3946 108.277 65.1469L108.423 65.293C100.071 65.2665 92.7626 65.2433 87.5207 65.2266C84.9096 65.209 82.8143 65.1948 81.3508 65.1849C80.639 65.1767 80.0815 65.1703 79.6825 65.1657C79.5029 65.1618 79.3593 65.1587 79.2461 65.1563C79.1469 65.1531 79.0947 65.15 79.0916 65.1468C79.0884 65.1436 79.1343 65.1405 79.2274 65.1373C79.3358 65.1349 79.4736 65.1319 79.6459 65.128C80.0373 65.1233 80.5843 65.1169 81.2826 65.1087C82.7382 65.0988 84.822 65.0847 87.4188 65.0671C92.6862 65.0505 100.03 65.0272 108.423 65.0007L108.57 65.0002L108.57 65.1469C108.57 66.3946 108.571 67.6685 108.572 68.9636C108.572 69.6112 108.573 70.2641 108.573 70.9218C108.573 71.2507 108.573 71.5806 108.573 71.9117L108.573 72.4093V72.9063C108.274 73.2054 108.489 72.9892 108.422 73.056C96.44 73.0321 85.7889 73.0108 79.0916 72.9974L78.9999 72.9972L79.0006 72.9065C79.0221 70.4553 79.0391 68.5112 79.0509 67.1588C79.0603 66.5148 79.0677 66.0124 79.073 65.6522C79.0768 65.4954 79.08 65.3697 79.0825 65.2701C79.0856 65.1853 79.0885 65.1438 79.0916 65.1468Z" fill="url(#paint4_linear_1496_2533)"/>
<path d="M93.6361 76.7603H122.968V69.0006H93.6361V76.7603Z" fill="#DFCA50"/>
<path d="M193.649 41.9779C193.646 41.9748 193.643 41.9273 193.64 41.8369L193.63 41.4389C193.624 41.0737 193.616 40.5645 193.606 39.9118C193.593 38.5722 193.574 36.6464 193.55 34.2183L193.641 34.309C186.943 34.3292 176.292 34.3614 164.311 34.3975C164.377 34.3309 164.16 34.5468 164.458 34.2481L164.459 34.4959L164.459 34.7452L164.459 35.2428C164.46 35.5738 164.46 35.9038 164.46 36.2327C164.461 36.8904 164.461 37.5432 164.461 38.1909C164.462 39.486 164.462 40.7599 164.463 42.0076L164.317 41.8616C172.669 41.8796 179.978 41.8954 185.22 41.9067C187.831 41.9216 189.926 41.9337 191.389 41.9421C192.101 41.9496 192.659 41.9554 193.058 41.9596C193.237 41.9633 193.381 41.9663 193.494 41.9686C193.593 41.9716 193.646 41.9746 193.649 41.9779C193.652 41.981 193.606 41.9842 193.513 41.9875C193.404 41.99 193.267 41.9932 193.094 41.9973C192.703 42.0023 192.156 42.0093 191.458 42.0182C190.002 42.0295 187.918 42.0458 185.322 42.0661C180.054 42.0881 172.71 42.1189 164.317 42.154L164.171 42.1545L164.171 42.0079C164.168 40.7602 164.166 39.4863 164.164 38.1912C164.163 37.5435 164.162 36.8907 164.162 36.233C164.161 35.9041 164.161 35.5741 164.16 35.2431L164.16 34.7455L164.159 34.2485C164.458 33.9491 164.243 34.1655 164.31 34.0986C176.292 34.1103 186.943 34.1207 193.641 34.1273L193.732 34.1274L193.732 34.2181C193.713 36.6693 193.698 38.6134 193.687 39.9658C193.679 40.6098 193.672 41.1122 193.667 41.4725C193.663 41.6293 193.66 41.7549 193.658 41.8546C193.655 41.9394 193.652 41.9809 193.649 41.9779Z" fill="url(#paint5_linear_1496_2533)"/>
<path d="M217.58 0.176427C217.583 0.17946 217.586 0.226997 217.589 0.317384L217.599 0.715433C217.605 1.08058 217.613 1.58979 217.623 2.24252C217.636 3.58207 217.655 5.50792 217.679 7.936L217.588 7.84529C224.285 7.82506 234.936 7.79287 246.918 7.75682C246.852 7.82341 247.069 7.60749 246.77 7.90615L246.77 7.65844L246.77 7.40907L246.769 6.91151C246.769 6.58045 246.769 6.25049 246.769 5.92164C246.768 5.26393 246.768 4.61106 246.767 3.96342C246.767 2.66829 246.766 1.39441 246.766 0.146686L246.912 0.292679C238.56 0.274713 231.251 0.258926 226.009 0.247582C223.398 0.232654 221.303 0.220579 219.839 0.212206C219.128 0.204722 218.57 0.198942 218.171 0.194727C217.991 0.191047 217.848 0.188023 217.735 0.185723C217.635 0.182651 217.583 0.179666 217.58 0.176427C217.577 0.173256 217.623 0.170102 217.716 0.166833C217.824 0.164307 217.962 0.161134 218.134 0.157025C218.526 0.152002 219.073 0.145026 219.771 0.136102C221.227 0.124748 223.31 0.108473 225.907 0.0882252C231.175 0.066217 238.519 0.035395 246.912 0.000326866L247.058 -0.000238192L247.058 0.146388C247.06 1.39411 247.062 2.66799 247.064 3.96312C247.065 4.61075 247.066 5.26363 247.067 5.92134C247.068 6.25019 247.068 6.58015 247.068 6.91121L247.069 7.40877L247.069 7.90584C246.771 8.20519 246.986 7.9888 246.918 8.05566C234.937 8.04395 224.285 8.03358 217.588 8.02704L217.496 8.02692L217.497 7.93619C217.516 5.48501 217.531 3.54085 217.541 2.18851C217.55 1.54445 217.557 1.04205 217.562 0.6818C217.566 0.525029 217.569 0.399379 217.571 0.299741C217.574 0.214937 217.577 0.173394 217.58 0.176427Z" fill="url(#paint6_linear_1496_2533)"/>
<path d="M210.743 13.1061L240.075 13.0762L240.067 5.3165L210.735 5.34646L210.743 13.1061Z" fill="#59B0E3"/>
<path d="M321.845 46.1764C321.848 46.1795 321.851 46.227 321.854 46.3174L321.864 46.7154C321.87 47.0806 321.878 47.5898 321.888 48.2425C321.901 49.5821 321.92 51.5079 321.944 53.936L321.853 53.8453C328.55 53.8251 339.201 53.7929 351.183 53.7568C351.117 53.8234 351.334 53.6075 351.036 53.9061L351.035 53.6584L351.035 53.4091L351.035 52.9115C351.034 52.5805 351.034 52.2505 351.034 51.9216C351.033 51.2639 351.033 50.6111 351.032 49.9634C351.032 48.6683 351.031 47.3944 351.031 46.1467L351.177 46.2927C342.825 46.2747 335.516 46.2589 330.274 46.2476C327.663 46.2327 325.568 46.2206 324.105 46.2122C323.393 46.2047 322.835 46.1989 322.436 46.1947C322.257 46.191 322.113 46.188 322 46.1857C321.901 46.1827 321.848 46.1797 321.845 46.1764C321.842 46.1733 321.888 46.1701 321.981 46.1668C322.089 46.1643 322.227 46.1611 322.399 46.157C322.791 46.152 323.338 46.145 324.036 46.1361C325.492 46.1247 327.576 46.1085 330.172 46.0882C335.44 46.0662 342.784 46.0354 351.177 46.0003L351.323 45.9998L351.323 46.1464C351.325 47.3941 351.327 48.668 351.33 49.9631C351.33 50.6108 351.331 51.2636 351.332 51.9213C351.333 52.2502 351.333 52.5801 351.333 52.9112L351.334 53.4088L351.335 53.9058C351.036 54.2052 351.251 53.9888 351.183 54.0557C339.202 54.044 328.551 54.0336 321.853 54.027L321.762 54.0269L321.762 53.9362C321.781 51.485 321.796 49.5408 321.807 48.1885C321.815 47.5445 321.822 47.0421 321.827 46.6818C321.831 46.525 321.834 46.3994 321.836 46.2997C321.839 46.2149 321.842 46.1734 321.845 46.1764Z" fill="url(#paint7_linear_1496_2533)"/>
<path d="M315.008 59.1061L344.34 59.0762L344.332 51.3165L315 51.3465L315.008 59.1061Z" fill="#59B0E3"/>
<path d="M200.09 28.5589L170.759 28.5889L170.766 36.3485L200.098 36.3186L200.09 28.5589Z" fill="#FA4050"/>
<path d="M301.49 45.4183C301.486 45.4153 301.483 45.3677 301.48 45.2773L301.47 44.8793C301.465 44.5142 301.457 44.0049 301.447 43.3522C301.434 42.0127 301.415 40.0868 301.391 37.6587L301.482 37.7494C294.784 37.7697 284.133 37.8019 272.152 37.8379C272.218 37.7713 272.001 37.9872 272.299 37.6886L272.299 37.9363L272.3 38.1857L272.3 38.6832C272.3 39.0143 272.301 39.3442 272.301 39.6731C272.301 40.3308 272.302 40.9837 272.302 41.6313C272.303 42.9264 272.303 44.2003 272.304 45.448L272.158 45.302C280.51 45.32 287.818 45.3358 293.06 45.3471C295.671 45.3621 297.767 45.3741 299.23 45.3825C299.942 45.39 300.5 45.3958 300.899 45.4C301.078 45.4037 301.222 45.4067 301.335 45.409C301.434 45.4121 301.486 45.4151 301.49 45.4183C301.493 45.4215 301.447 45.4246 301.354 45.4279C301.245 45.4304 301.107 45.4336 300.935 45.4377C300.544 45.4427 299.997 45.4497 299.299 45.4586C297.843 45.47 295.759 45.4863 293.162 45.5065C287.895 45.5285 280.551 45.5593 272.158 45.5944L272.012 45.595L272.011 45.4483C272.009 44.2006 272.007 42.9267 272.005 41.6316C272.004 40.984 272.003 40.3311 272.002 39.6734C272.002 39.3445 272.002 39.0146 272.001 38.6835L272.001 38.186L272 37.6889C272.299 37.3895 272.084 37.6059 272.151 37.5391C284.133 37.5508 294.784 37.5611 301.481 37.5677L301.573 37.5678L301.573 37.6585C301.554 40.1097 301.539 42.0539 301.528 43.4062C301.519 44.0503 301.513 44.5527 301.508 44.9129C301.504 45.0697 301.501 45.1953 301.498 45.295C301.495 45.3798 301.493 45.4213 301.49 45.4183Z" fill="url(#paint8_linear_1496_2533)"/>
<path d="M307.931 31.9998L278.599 32.0298L278.607 39.7895L307.939 39.7595L307.931 31.9998Z" fill="#FA4050"/>
<path d="M113.092 10.1864C113.095 10.1894 113.098 10.2369 113.101 10.3273L113.11 10.7254C113.115 11.0905 113.123 11.5997 113.132 12.2525C113.144 13.5921 113.161 15.5179 113.183 17.946L113.092 17.8552C119.789 17.8418 130.44 17.8205 142.422 17.7967C142.356 17.8632 142.573 17.6475 142.274 17.9459V17.6982L142.274 17.4488V16.9512C142.274 16.6202 142.274 16.2902 142.274 15.9614C142.274 15.3037 142.275 14.6508 142.275 14.0032C142.276 12.708 142.277 11.4341 142.277 10.1864L142.423 10.3326C134.071 10.3061 126.763 10.2828 121.521 10.2661C118.91 10.2485 116.814 10.2343 115.351 10.2244C114.639 10.2162 114.082 10.2099 113.682 10.2053C113.503 10.2014 113.359 10.1982 113.246 10.1958C113.147 10.1926 113.095 10.1896 113.092 10.1864C113.088 10.1832 113.134 10.1801 113.227 10.1769C113.336 10.1745 113.474 10.1714 113.646 10.1675C114.037 10.1629 114.584 10.1565 115.283 10.1483C116.738 10.1384 118.822 10.1242 121.419 10.1067C126.686 10.09 134.03 10.0667 142.423 10.0402L142.57 10.0398L142.57 10.1864C142.57 11.4341 142.571 12.708 142.572 14.0032C142.572 14.6508 142.573 15.3037 142.573 15.9614C142.573 16.2902 142.573 16.6202 142.573 16.9512L142.573 17.4488V17.9459C142.274 18.2449 142.489 18.0288 142.422 18.0955C130.44 18.0716 119.789 18.0504 113.092 18.037L113 18.0368L113.001 17.946C113.022 15.4949 113.039 13.5507 113.051 12.1984C113.06 11.5543 113.068 11.052 113.073 10.6917C113.077 10.5349 113.08 10.4093 113.083 10.3097C113.086 10.2249 113.089 10.1833 113.092 10.1864Z" fill="url(#paint9_linear_1496_2533)"/>
<path d="M127.732 21.418H157.064V13.6583H127.732V21.418Z" fill="#DFCA50"/>
<defs>
<filter id="filter0_f_1496_2533" x="4.8" y="275.8" width="349.4" height="86.4" filterUnits="userSpaceOnUse" color-interpolation-filters="sRGB">
<feFlood flood-opacity="0" result="BackgroundImageFix"/>
<feBlend mode="normal" in="SourceGraphic" in2="BackgroundImageFix" result="shape"/>
<feGaussianBlur stdDeviation="5.1" result="effect1_foregroundBlur_1496_2533"/>
</filter>
<linearGradient id="paint0_linear_1496_2533" x1="82.937" y1="52.0345" x2="53.364" y2="52.0345" gradientUnits="userSpaceOnUse">
<stop stop-color="#FA4050"/>
<stop offset="0.519231" stop-color="#F5E15F"/>
<stop offset="1" stop-color="#59B0E3"/>
</linearGradient>
<linearGradient id="paint1_linear_1496_2533" x1="0" y1="86.0353" x2="29.5731" y2="86.0353" gradientUnits="userSpaceOnUse">
<stop stop-color="#FA4050"/>
<stop offset="0.519231" stop-color="#F5E15F"/>
<stop offset="1" stop-color="#59B0E3"/>
</linearGradient>
<linearGradient id="paint2_linear_1496_2533" x1="233.383" y1="210.286" x2="297.066" y2="236.865" gradientUnits="userSpaceOnUse">
<stop stop-color="#FA4050"/>
<stop offset="1" stop-color="#F5E15F"/>
</linearGradient>
<linearGradient id="paint3_linear_1496_2533" x1="56" y1="180.773" x2="302" y2="266.321" gradientUnits="userSpaceOnUse">
<stop offset="0.0416521" stop-color="#59B0E3"/>
<stop offset="0.534673" stop-color="#FA4050"/>
<stop offset="0.895583" stop-color="#F5E15F"/>
</linearGradient>
<linearGradient id="paint4_linear_1496_2533" x1="108.573" y1="69.035" x2="78.9999" y2="69.035" gradientUnits="userSpaceOnUse">
<stop stop-color="#FA4050"/>
<stop offset="0.519231" stop-color="#F5E15F"/>
<stop offset="1" stop-color="#59B0E3"/>
</linearGradient>
<linearGradient id="paint5_linear_1496_2533" x1="164.163" y1="38.1197" x2="193.736" y2="38.0895" gradientUnits="userSpaceOnUse">
<stop stop-color="#FA4050"/>
<stop offset="0.519231" stop-color="#F5E15F"/>
<stop offset="1" stop-color="#59B0E3"/>
</linearGradient>
<linearGradient id="paint6_linear_1496_2533" x1="247.065" y1="4.03455" x2="217.492" y2="4.06475" gradientUnits="userSpaceOnUse">
<stop stop-color="#FA4050"/>
<stop offset="0.519231" stop-color="#F5E15F"/>
<stop offset="1" stop-color="#59B0E3"/>
</linearGradient>
<linearGradient id="paint7_linear_1496_2533" x1="351.331" y1="50.0345" x2="321.758" y2="50.0648" gradientUnits="userSpaceOnUse">
<stop stop-color="#FA4050"/>
<stop offset="0.519231" stop-color="#F5E15F"/>
<stop offset="1" stop-color="#59B0E3"/>
</linearGradient>
<linearGradient id="paint8_linear_1496_2533" x1="272.004" y1="41.5602" x2="301.577" y2="41.53" gradientUnits="userSpaceOnUse">
<stop stop-color="#FA4050"/>
<stop offset="0.519231" stop-color="#F5E15F"/>
<stop offset="1" stop-color="#59B0E3"/>
</linearGradient>
<linearGradient id="paint9_linear_1496_2533" x1="142.573" y1="14.0746" x2="113" y2="14.0746" gradientUnits="userSpaceOnUse">
<stop stop-color="#FA4050"/>
<stop offset="0.519231" stop-color="#F5E15F"/>
<stop offset="1" stop-color="#59B0E3"/>
</linearGradient>
</defs>
</svg>
